<?xml version="1.0" encoding="utf-8"?>
<!-- Generator: Adobe Illustrator 22.0.0, SVG Export Plug-In . SVG Version: 6.00 Build 0)  -->
<svg version="1.1" id="Layer_1" xmlns="http://www.w3.org/2000/svg" xmlns:xlink="http://www.w3.org/1999/xlink" x="0px" y="0px"
	 viewBox="0 0 512 512" style="enable-background:new 0 0 512 512;" xml:space="preserve">
<style type="text/css">
	.st0{fill:#FFFFFF;}
	.st1{fill:#231F20;}
	.st2{fill:#A3D133;}
	.st3{fill:#3EB1FC;}
</style>

<path class="st0" d="M19.1,322.6c-10.1,35.4,11.7,91,67,91s1-304.4,1-304.4S29.2,287.2,19.1,322.6z"/>
<path class="st0" d="M351.7,496.7H127c-22,0-40-18-40-40V109.2c0-22,18-40,40-40h224.7c22,0,40,18,40,40v347.4
C391.7,478.7,373.7,496.7,351.7,496.7z"/>
<path class="st1" d="M86,413.6c-38.9,0-56.3-20.6-64.1-37.9c-7.3-16.1-8.3-35-2.9-53.1L82.4,111l7.3,2.2L26.4,324.8
c-4.9,16.3-4,33.3,2.5,47.8C38.9,394.8,58.1,406,86,406V413.6z"/>

<g>
<path class="st2" d="M321.5,439c0,13.8-13.3,25.1-29.7,25.1h-98.3c-16.4,0-29.7-11.2-29.7-25.1V157.2c0-13.8,13.3-25.1,29.7-25.1
h98.3c16.4,0,29.7,11.2,29.7,25.1V439z"/>
	<animateMotion
	path="M10,0 -10 0 10,0"
	begin="0s" 
	dur="4s" 
	repeatCount="indefinite"
	/>
</g>

<path class="st3" d="M349.9,500.1h-222c-25.2,0-45.7-20.5-45.7-45.7V112.1c0-25.2,20.5-45.7,45.7-45.7h221.9
c25.2,0,45.7,20.5,45.7,45.7v31.2H388v-31.2c0-21-17.1-38.1-38.1-38.1h-222c-21,0-38.1,17.1-38.1,38.1v342.3
c0,21,17.1,38.1,38.1,38.1h221.9c21,0,38.1-17.1,38.1-38.1v-98.9h7.6v98.9C395.6,479.6,375.1,500.1,349.9,500.1z"/>
<rect x="141.3" y="187.6" class="st1" width="196.1" height="7.6"/>
<rect x="141.3" y="288.4" class="st1" width="160.2" height="7.6"/>
<rect x="141.3" y="389.1" class="st1" width="196.1" height="7.6"/>
<path class="st1" d="M490.3,134.7c-7.7-8.2-20.6-8.5-28.7-0.8L246.9,337.6l-9.3,37l37.4-7.3l188.3-178.5l15.5,16.4L371.5,306.9
l5.2,5.6l112.8-107.1l-20.7-21.8l21-19.9C497.9,156,498.2,143.1,490.3,134.7z M271.4,360.3l-23.5,4.6l5.8-23.3l129.5-122.9
l17.7,18.7L271.4,360.3z M484.5,158.1l-78.1,74.1l-17.7-18.7l78.1-74.1c5.1-4.8,13.2-4.6,18.2,0.7
C489.8,145.2,489.6,153.3,484.5,158.1z"/>
<path class="st1" d="M163.8,132.1h-7.6v-94c-0.1,0-3.3-16.7-19.4-16.7c-15.8,0-16.7,16.2-16.7,16.9l-7.6-0.3
c0.4-8.3,5.9-24.1,24.3-24.1c18,0,25.5,15.5,26.9,23.6L163.8,132.1z"/>
<path class="st1" d="M337.6,132.1H330v-94c-0.1,0-3.3-16.7-19.4-16.7c-15.8,0-16.7,16.2-16.7,16.9l-7.6-0.3
c0.4-8.3,5.9-24.1,24.3-24.1c18,0,25.5,15.5,26.9,23.7L337.6,132.1z"/>
<path class="st1" d="M427.7,98.9c-10.3,0-18.6-8.4-18.6-18.6s8.4-18.6,18.6-18.6c10.3,0,18.6,8.4,18.6,18.6S438,98.9,427.7,98.9z
M427.7,69.2c-6.1,0-11,4.9-11,11s4.9,11,11,11s11-4.9,11-11C438.7,74.2,433.8,69.2,427.7,69.2z"/>

<g>
<polygon class="st3" points="496.3,338.3 475.4,338.3 475.4,317.4 467.8,317.4 467.8,338.3 446.9,338.3 446.9,345.9 467.8,345.9 
467.8,366.8 475.4,366.8 475.4,345.9 496.3,345.9"/>
	<animateTransform
	attributeName="transform"
	type="rotate"
	from="0 470 340"
	to="360 470 340"
	dur="6s"
	repeatCount="indefinite" />	
</g>
</svg>