<?xml version="1.0" encoding="utf-8"?>
<!-- Generator: Adobe Illustrator 22.0.0, SVG Export Plug-In . SVG Version: 6.00 Build 0)  -->
<svg version="1.1" id="Layer_1" xmlns="http://www.w3.org/2000/svg" xmlns:xlink="http://www.w3.org/1999/xlink" x="0px" y="0px"
	 viewBox="0 0 512 512" style="enable-background:new 0 0 512 512;" xml:space="preserve">
<style type="text/css">
	.st0{fill:#A3D133;}
	.st1{fill:#FFFFFF;}
	.st2{fill:#231F20;}
	.st3{fill:#3EB1FC;}
	.st4{fill:none;stroke:#69C299;stroke-linecap:round;stroke-linejoin:round;stroke-miterlimit:10;}
</style>

<g>
<path class="st0" d="M69,452.5c0,29,18.9,52.5,42.2,52.5h162.2c23.3,0,42.2-23.5,42.2-52.5V326.6c0-29-18.9-52.5-42.2-52.5H111.2
c-23.3,0-42.2,23.5-42.2,52.5V452.5z"/>
	<animateMotion
	path="M10,0 -10 0 10,0"
	begin="0s" 
	dur="8s" 
	repeatCount="indefinite"
	/>
</g>

<g>
<path class="st1" d="M184.9,411.9c0,8.6-6.9,15.5-15.5,15.5s-15.5-6.9-15.5-15.5s6.9-15.5,15.5-15.5S184.9,403.3,184.9,411.9z"/>
<path class="st1" d="M279.9,411.9c0,8.6-6.9,15.5-15.5,15.5s-15.5-6.9-15.5-15.5s6.9-15.5,15.5-15.5S279.9,403.3,279.9,411.9z"/>
<path class="st1" d="M375.8,411.9c0,8.6-6.9,15.5-15.5,15.5s-15.5-6.9-15.5-15.5s6.9-15.5,15.5-15.5S375.8,403.3,375.8,411.9z"/>
</g>

<path class="st1" d="M481.8,190.2c0,8.6-6.9,15.5-15.5,15.5s-15.5-6.9-15.5-15.5s6.9-15.5,15.5-15.5S481.8,181.7,481.8,190.2z"/>
<path class="st2" d="M466.3,209.9c-10.9,0-19.7-8.8-19.7-19.7s8.8-19.7,19.7-19.7s19.7,8.8,19.7,19.7
C486,201.1,477.2,209.9,466.3,209.9z M466.3,178.9c-6.2,0-11.3,5.1-11.3,11.3s5.1,11.3,11.3,11.3s11.3-5.1,11.3-11.3
S472.5,178.9,466.3,178.9z"/>

<path class="st2" d="M81.8,202.9H60.2v-21.6c0-2.3-1.9-4.2-4.2-4.2s-4.2,1.9-4.2,4.2v21.6H30.2c-2.3,0-4.2,1.9-4.2,4.2
c0,2.3,1.9,4.2,4.2,4.2h21.6v21.6c0,2.3,1.9,4.2,4.2,4.2s4.2-1.9,4.2-4.2v-21.6h21.6c2.4,0,4.2-1.9,4.2-4.2
C86,204.8,84.1,202.9,81.8,202.9z"/>

<g>
<path class="st2" d="M433.3,97.8l15.3-15.3c1.6-1.6,1.6-4.3,0-5.9c-1.6-1.6-4.3-1.6-5.9,0l-15.3,15.3l-15.2-15.2
c-1.6-1.6-4.3-1.6-5.9,0c-1.6,1.6-1.6,4.3,0,5.9l15.2,15.2l-15.2,15.2c-1.6,1.6-1.6,4.3,0,5.9c1.6,1.6,4.3,1.6,5.9,0l15.2-15.2
l15.3,15.3c1.6,1.6,4.3,1.6,5.9,0c1.6-1.7,1.6-4.3,0-5.9L433.3,97.8z"/>

	<animateTransform
	attributeName="transform"
	type="rotate"
	from="0 430 100"
	to="360 430 100"
	dur="6s"
	repeatCount="indefinite" />	
</g>

<g>
<circle class="st1" cx="264.4" cy="224.9" r="137.4"/>
<path class="st3" d="M224.7,157.1l-24.2-2.7l3.2-17.9l10.1-6.1l0.9-6.1l-1.2-4.6c-0.6-2.3,0.8-4.5,3.1-5.1s4.5,0.8,5.1,3.1l1.6,6.3
l-1.8,11.6l-10.3,6.1l-0.9,5.2l12.6,1.4l13.9-7.9l8.4-8.4c-1.1-1.7-2-3.8-1.7-6.3c0.2-2.1,1.3-5.1,5.5-7.4
c6.5-3.6,12.4-11.6,12.4-11.7c1.4-1.9,4-2.3,5.9-0.9s2.3,4,1,5.9c-0.3,0.4-7,9.7-15.2,14.1c-1,0.5-1.2,0.9-1.2,0.9
c0,0.4,1.1,1.7,1.8,2.4l3.6,2.9l-15.8,15.5L224.7,157.1z"/>
<path class="st3" d="M148.7,219.7c-1.6,0-3.2-1-3.9-2.6c-0.9-2.1,0.1-4.6,2.3-5.5l18.2-7.3c0.6-0.2,5.2-1.8,9.7-3.6l3.4-31.5
l3.2-1.9v-27.7c0-2.3,1.9-4.2,4.2-4.2s4.2,1.9,4.2,4.2V172l-3.6,2.2l-3.4,32.4l-2.4,0.9c-9.1,3.5-12.5,4.6-13.9,4.9l-16.2,6.8
C149.8,219.6,149.3,219.7,148.7,219.7z"/>
<path class="st3" d="M245.1,343.1c-1.3,0-2.6-0.6-3.4-1.7l-13.2-18.1l-13.8-7.1l-3.4-3.4l-8.7-10.3v-11.7l0.8-1.1
c1.4-1.9,2.7-4.2,3.2-5.4c-0.2-0.9-0.2-1.8-0.2-2.7l-2.8-1.4l-11.4-6.4H188l-15.6-17.3l1.7-2.9l-7.4-5.7l-14,5.9
c-2.1,0.9-4.6-0.1-5.5-2.3c-0.9-2.1,0.1-4.6,2.3-5.5l18.5-7.8l17.1,13.3l-2.4,3.9l8.9,9.9h2.6l21.3,11.4l-0.6,3.1
c-0.2,0.9-0.3,2.1-0.2,2.5c0.5,1,1.5,3-3.8,10.9v6l9.2,10.3l13.9,7l14.4,19.7c1.4,1.9,1,4.5-0.9,5.9
C246.9,342.8,246,343.1,245.1,343.1z"/>
<path class="st3" d="M293.9,320.6l-14.1-14.1l-3.7-16.6l5.7-2.9l3.5-7.5c0.3-0.6,0.7-1.6,1-2.6l-6.1-6.1l-0.6-13.3l-4.6-2.1
l-13.4,7.5l-13.3-16l-0.8-14.7l12.1-24.1l9.1-21.8l0.8-0.7c0,0,7.5-6.1,10.9-8.9c1.6-1.3,4.5-6.5,6.2-10.6l0.6-1.4l21.9-11.4
l-3.7-9.3l1.3-1.9c15.5-21.6,16.8-20.9,20-19.3c2.1,1,2.9,3.6,1.9,5.6c-0.5,1-1.3,1.7-2.2,2c-1.8,1.7-7,8.4-11.5,14.6l4.4,11l-5.3,4
l-20.3,10.5c-1.4,3.1-4.7,9.8-8.1,12.5c-2.7,2.2-8,6.5-10,8.1l-8.4,20.1L256,233.6l0.5,9.7l7.1,8.5l11.1-6.1l13.1,6.1l0.7,15.2
l7.5,7.5l-0.8,2.5c0,0-1.5,4.5-2.3,6l-4.6,10.1l-2.5,1.2l1.7,7.8l7.6,7.6c2.9-1.9,5.7-3.9,6.3-4.6c0.6-1,4-8.7,7-15.5l0.9-1.3
l15.6-15.6l8.1-11.4l6-13.7l-2.6-7.2l-6.3-7.2l5.8-9c8.4-7.8,10.9-7.1,12.4-6.7l2.2,0.6l1.1,2.5c0.5,1.4,2,7.4,3.1,11.7l4.9-1.4
l0.7-3.6l18.3-4.3c2.4-0.5,4.5,0.9,5.1,3.1c0.5,2.3-0.9,4.5-3.1,5.1l-13,3l-0.6,3.2l-18.2,5.4l-1.1-4.3c-0.8-3.1-1.9-7.5-2.8-10.9
c-0.9,0.7-1.9,1.5-2.8,2.4l-1.4,2.3l3.5,4.4l4,11.1l-7.9,17.9l-8.8,12.2L316,293.5c-4.8,11-6.5,14.6-7.3,16c-0.5,0.9-1.7,2.7-11.6,9
L293.9,320.6z"/>
<path class="st2" d="M264.4,344.6c-66,0-119.8-53.7-119.8-119.8c0-66,53.7-119.7,119.8-119.7c74,0,119.8,62.2,119.8,119.7
C384.2,290.9,330.5,344.6,264.4,344.6z M264.4,113.5c-61.4,0-111.3,49.9-111.3,111.3S203,336.1,264.4,336.1s111.3-49.9,111.3-111.3
C375.8,171.3,333.2,113.5,264.4,113.5z"/>

	<animateMotion
	path="M5, 5 5 -5 5 5"
	begin="0s" 
	dur="8s" 
	repeatCount="indefinite"
	/>
</g>

<g>
<path class="st2" d="M59.7,151.5c-0.5,0-1-0.1-1.5-0.3c-2.2-0.8-3.2-3.3-2.4-5.4c2.6-6.7,5.5-13.2,8.8-19.6
c1.1-2.1,3.6-2.9,5.7-1.8s2.9,3.6,1.8,5.7c-3.1,6.1-5.9,12.4-8.4,18.8C63,150.4,61.4,151.5,59.7,151.5z"/>
<path class="st2" d="M89.3,99.1c-0.9,0-1.8-0.3-2.6-0.9c-1.8-1.4-2.2-4.1-0.8-5.9C94,81.7,103.1,71.9,113,62.9
c1.7-1.6,4.4-1.4,5.9,0.3c1.6,1.7,1.4,4.4-0.3,5.9c-9.5,8.6-18.3,18.1-26.1,28.2C91.8,98.5,90.5,99.1,89.3,99.1z M147.3,46.8
c-1.4,0-2.8-0.7-3.6-2c-1.2-2-0.6-4.6,1.4-5.8c11.4-7,23.4-12.9,35.9-17.7c2.2-0.8,4.6,0.3,5.4,2.4c0.8,2.2-0.3,4.6-2.4,5.4
c-11.9,4.6-23.5,10.3-34.5,17C148.8,46.6,148.1,46.8,147.3,46.8z M336.2,29.7c-0.5,0-1-0.1-1.5-0.3c-11.9-4.6-24.3-8.2-37-10.5
c-2.3-0.4-3.8-2.6-3.4-4.9s2.6-3.8,4.9-3.4c13.2,2.4,26.1,6.1,38.5,10.9c2.2,0.8,3.2,3.3,2.4,5.4C339.4,28.7,337.8,29.7,336.2,29.7
z M220.3,18.9c-2,0-3.8-1.4-4.1-3.4c-0.4-2.3,1.1-4.5,3.4-4.9c12.8-2.4,26-3.6,39.3-3.6l0.5,4.2v4.2c-13.2,0-25.9,1.1-38.3,3.4
C220.8,18.9,220.5,18.9,220.3,18.9z"/>
<path class="st2" d="M388.5,59.4c-0.9,0-1.8-0.3-2.6-0.9c-5.4-4.2-11.1-8.1-16.9-11.8c-2-1.2-2.6-3.8-1.3-5.8
c1.2-2,3.8-2.6,5.8-1.3c6,3.8,11.9,7.9,17.6,12.3c1.8,1.4,2.2,4.1,0.7,5.9C391,58.8,389.8,59.4,388.5,59.4z"/>
</g>

<path class="st2" d="M360.2,395.1c-7.8,0-14.4,5.4-16.3,12.6h-62.7c-1.5-5.9-6.2-10.5-12.1-12.1V374c0-2.3-1.9-4.2-4.2-4.2
s-4.2,1.9-4.2,4.2v21.6c-5.9,1.5-10.5,6.2-12.1,12.1h-63c-1.9-7.2-8.4-12.6-16.3-12.6c-9.3,0-16.8,7.5-16.8,16.8s7.5,16.8,16.8,16.8
c7.8,0,14.4-5.4,16.3-12.6h63c1.9,7.2,8.4,12.6,16.3,12.6c7.8,0,14.4-5.4,16.3-12.6H344c1.9,7.2,8.4,12.6,16.3,12.6
c9.3,0,16.8-7.5,16.8-16.8C377.1,402.6,369.5,395.1,360.2,395.1z M169.4,420.3c-4.6,0-8.4-3.8-8.4-8.4s3.8-8.4,8.4-8.4
c4.5,0,8.2,3.6,8.4,8c0,0.1,0,0.3,0,0.4s0,0.3,0,0.4C177.6,416.7,173.9,420.3,169.4,420.3z M265,420.3c-4.6,0-8.4-3.8-8.4-8.4
s3.8-8.4,8.4-8.4s8.4,3.8,8.4,8.4S269.6,420.3,265,420.3z M360.2,420.3c-4.2,0-7.7-3.1-8.3-7.1c0.1-0.4,0.2-0.9,0.2-1.3
c0-0.5-0.1-0.9-0.2-1.3c0.6-4,4.1-7.1,8.3-7.1c4.6,0,8.4,3.8,8.4,8.4S364.9,420.3,360.2,420.3z"/>
<path class="st4" d="M236.4,291.1"/>
</svg>
