<?xml version="1.0" encoding="utf-8"?>
<!-- Generator: Adobe Illustrator 22.0.0, SVG Export Plug-In . SVG Version: 6.00 Build 0)  -->
<svg version="1.1" id="Layer_1" xmlns="http://www.w3.org/2000/svg" xmlns:xlink="http://www.w3.org/1999/xlink" x="0px" y="0px"
	 viewBox="0 0 512 512" style="enable-background:new 0 0 512 512;" xml:space="preserve">
<style type="text/css">
	.st0{fill:#FFFFFF;}
	.st1{fill:#231F20;}
	.st2{fill:#A3D133;}
	.st3{fill:#3EB1FC;}
</style>


<g>
<path class="st0" d="M337.5,459.4H199.8c-7,0-12.7-5.7-12.7-12.7V334.1c0-7,5.7-12.7,12.7-12.7h48.3c0,0,5.8,12.2,21,12.2
c8.4,0,46.1,0,65.8,0c8.7,0,15.3,4.5,15.3,7.6v105.5C350.2,453.7,344.5,459.4,337.5,459.4z"/>
<path class="st1" d="M337.6,462.6H199.7c-8.7,0-15.8-7-15.8-15.7v-76.5h6.3v76.5c0,5.2,4.2,9.3,9.4,9.3h137.8
c5.2,0,9.4-4.2,9.4-9.3v-92.2h6.3v92.2C353.4,455.5,346.3,462.6,337.6,462.6z"/>
<path class="st1" d="M184,370.4v-21.8c0-14.1,2.8-32.8,27.1-32.8h27.6c10,0,13.4,4.5,16.1,8.1c2.6,3.5,4.9,6.6,14.4,6.6h68.7
c5.8,0,15.6,2.3,15.6,18.1v7.6H347v-7.6c0-10.4-4.7-11.8-9.3-11.8H269c-12.6,0-16.4-5-19.4-9.1c-2.4-3.2-4.2-5.6-11-5.6H211
c-14.9,0-20.8,7.4-20.8,26.4v21.8L184,370.4z"/>
<path class="st1" d="M238.6,388.7H211c-13.4,0-22-5.4-26.8-17l5.8-2.5c3.9,9.2,10.2,13.1,21,13.1h27.6c6.8,0,8.6-2.3,11-5.5
c3-4,6.8-9,19.4-9h68.7c4.6,0,9.3-1.4,9.3-11.6h6.3c0,15.6-9.8,17.9-15.6,17.9H269c-9.5,0-11.7,3-14.4,6.5
C252,384.2,248.6,388.7,238.6,388.7z"/>
<path class="st1" d="M268.7,504.1c-5.7,0-10.4-4.7-10.4-10.4c0-5.7,4.7-10.4,10.4-10.4c5.7,0,10.4,4.7,10.4,10.4
S274.4,504.1,268.7,504.1z M268.7,489.6c-2.3,0-4.1,1.8-4.1,4.1c0,2.3,1.8,4.1,4.1,4.1c2.3,0,4.1-1.8,4.1-4.1
C272.8,491.4,270.9,489.6,268.7,489.6z"/>
<rect x="265.5" y="471.9" class="st1" width="6.3" height="14.5"/>
<rect x="220.9" y="490.5" class="st1" width="40.5" height="6.3"/>
<rect x="275.9" y="490.5" class="st1" width="40.5" height="6.3"/>
</g>

<g>
<circle class="st0" cx="204" cy="158.2" r="50.3"/>
<circle class="st0" cx="296.2" cy="135.6" r="73"/>
<path class="st1" d="M297.5,211.7h-94.8c-29.9,0-54.2-24.3-54.2-54.2s24.3-54.2,54.2-54.2v6.3c-26.4,0-47.9,21.5-47.9,47.9
s21.5,47.9,47.9,47.9h94.8c38.5,0,69.8-31.3,69.8-69.8c0-38.3-31-69.5-69.3-69.8c-34,0.2-70.4,22.1-70.4,69.8h-6.3
c0-49.5,38.1-75.6,76.2-76.1l0,0h1.1c41.5,0.6,75,34.5,75,76.1C373.6,177.6,339.4,211.7,297.5,211.7z"/>
</g>

<g>
<path class="st2" d="M168.7,233.9c-14.5,14.5-16.8,35.7-5.2,47.4l81.2,81.2c11.7,11.7,32.9,9.3,47.4-5.2l63-63
c14.5-14.5,16.8-35.7,5.2-47.4l-81.2-81.2c-11.7-11.7-32.9-9.3-47.4,5.2L168.7,233.9z"/>
	<animateMotion
	path="M15, 15 15 -15 15 15"
	begin="0s" 
	dur="4s" 
	repeatCount="indefinite"
	/>
</g>

<g>
<path class="st0" d="M131,442.8c0,6.4-5.2,11.7-11.7,11.7s-11.7-5.2-11.7-11.7c0-6.4,5.2-11.7,11.7-11.7S131,436.3,131,442.8z"/>
<path class="st1" d="M119.3,457.6c-8.2,0-14.8-6.6-14.8-14.8c0-8.2,6.7-14.8,14.8-14.8c8.2,0,14.8,6.7,14.8,14.8
C134.2,451,127.5,457.6,119.3,457.6z M119.3,434.3c-4.7,0-8.5,3.8-8.5,8.5s3.8,8.5,8.5,8.5s8.5-3.8,8.5-8.5
C127.8,438.1,124,434.3,119.3,434.3z"/>
</g>

<g>
<polygon class="st3" points="198.5,24.2 180.4,24.2 180.4,6.1 174.1,6.1 174.1,24.2 156,24.2 156,30.5 174.1,30.5 174.1,48.6 
	180.4,48.6 180.4,30.5 198.5,30.5 "/>
	<animateTransform
	attributeName="transform"
	type="rotate"
	from="0 175 30"
	to="360 175 30"
	dur="6s"
	repeatCount="indefinite" />	
</g>

<g>
<path class="st1" d="M115.9,94.2l11.5-11.5c1.2-1.3,1.2-3.3,0-4.5c-1.3-1.2-3.3-1.2-4.5,0l-11.5,11.5L99.8,78.2
c-1.3-1.2-3.3-1.2-4.5,0c-1.2,1.3-1.2,3.3,0,4.5l11.6,11.5l-11.5,11.5c-1.2,1.3-1.2,3.3,0,4.5c0.6,0.6,1.4,0.9,2.2,0.9
c0.8,0,1.6-0.3,2.3-0.9l11.5-11.5l11.5,11.5c0.6,0.6,1.4,0.9,2.2,0.9c0.8,0,1.6-0.3,2.2-0.9c1.2-1.3,1.2-3.3,0-4.5L115.9,94.2z"/>

<animateTransform
	attributeName="transform"
	type="rotate"
	from="0 115 85"
	to="-360 115 85"
	dur="6s"
	repeatCount="indefinite" />	
</g>


<path class="st3" d="M74.1,212.1v6.3h29.3l-6.7,6.7c-21.7,21.7-34.1,53.5-34.1,87.1c0,33.7,12.4,65.4,34.1,87.1l4.5-4.5
c-20.5-20.5-32.3-50.6-32.3-82.6s11.8-62.1,32.3-82.6l6.6-6.6v29.6h6.4v-40.5H74.1z"/>
<path class="st3" d="M420.7,368.7c21.7-21.7,34.1-53.5,34.1-87.1c0-33.7-12.4-65.4-34.1-87.1l-4.5,4.5
c20.5,20.5,32.3,50.6,32.3,82.6s-11.8,62.1-32.3,82.6l-6.7,6.7v-29.6h-6.3v40.5h40v-6.4H414L420.7,368.7z"/>
</svg>
