<?xml version="1.0" encoding="utf-8"?>
<!-- Generator: Adobe Illustrator 22.0.0, SVG Export Plug-In . SVG Version: 6.00 Build 0)  -->
<svg version="1.1" id="Layer_1" xmlns="http://www.w3.org/2000/svg" xmlns:xlink="http://www.w3.org/1999/xlink" x="0px" y="0px"
	 viewBox="0 0 512 512" style="enable-background:new 0 0 512 512;" xml:space="preserve">
<style type="text/css">
	.st0{fill:#FFFFFF;}
	.st1{fill:#A3D133;}
	.st2{fill:#231F20;}
	.st3{fill:#3EB1FC;}
</style>
<path class="st0" d="M450.6,480.5h-337v-48.4c0-25.4,20.7-46.1,46.1-46.1h244.8c25.4,0,46.1,20.7,46.1,46.1V480.5z"/>
<path class="st0" d="M108.3,130.3c-34.1,0-61.9-27.7-61.9-61.9S74.2,6.5,108.3,6.5s61.9,27.7,61.9,61.9S142.5,130.3,108.3,130.3z"/>
<g>
<path class="st1" d="M336.1,473.9c0,9.5-13.5,17.3-30.3,17.3H259c-16.7,0-30.3-7.7-30.3-17.3v-84.7c0-9.5,13.5-17.3,30.3-17.3h46.8
c16.7,0,30.3,7.7,30.3,17.3V473.9z"/>
	<animateMotion
	path="M15, 15 15 -15 15 15"
	begin="0s" 
	dur="8s" 
	repeatCount="indefinite"
	/>

</g>

<g>
<path class="st0" d="M87,278.6c-8.4,0-15.3-6.9-15.3-15.3S78.5,248,87,248s15.3,6.9,15.3,15.3S95.4,278.6,87,278.6z"/>
<path class="st2" d="M87,278.6c-8.4,0-15.3-6.9-15.3-15.3c0-8.4,6.9-15.3,15.3-15.3s15.3,6.9,15.3,15.3
C102.3,271.8,95.4,278.6,87,278.6z M87,254.6c-4.8,0-8.7,3.9-8.7,8.7c0,4.8,3.9,8.7,8.7,8.7s8.7-3.9,8.7-8.7
C95.7,258.5,91.8,254.6,87,254.6z"/>
	<animateMotion
	path="M5, 5 5 -5 5 5"
	begin="0s" 
	dur="4s" 
	repeatCount="indefinite"
	/>
</g>

<g>
<path class="st0" d="M146.9,200.5c-12,0-21.8-9.8-21.8-21.8c0-12,9.8-21.8,21.8-21.8s21.8,9.8,21.8,21.8
C168.7,190.8,158.9,200.5,146.9,200.5z"/>
<path class="st2" d="M146.9,200.5c-12,0-21.7-9.8-21.7-21.8c0-12,9.8-21.8,21.7-21.8c12,0,21.8,9.8,21.8,21.8
C168.7,190.8,158.9,200.5,146.9,200.5z M146.9,163.6c-8.4,0-15.2,6.8-15.2,15.2c0,8.4,6.8,15.2,15.2,15.2c8.4,0,15.2-6.8,15.2-15.2
C162.1,170.4,155.3,163.6,146.9,163.6z"/>
	<animateMotion
	path="M15, 15 15 -15 15 15"
	begin="0s" 
	dur="4s" 
	repeatCount="indefinite"
	/>
</g>

<polygon class="st2" points="454.4,323.9 449.7,319.3 437.9,331.1 426,319.3 421.4,323.9 433.2,335.8 421.4,347.6 426,352.3 
	437.9,340.4 449.7,352.3 454.4,347.6 442.5,335.8 "/>
<polygon class="st3" points="443.7,175.5 427,175.5 427,158.7 420.4,158.7 420.4,175.5 403.7,175.5 403.7,182.1 420.4,182.1 
	420.4,198.8 427,198.8 427,182.1 443.7,182.1 "/>
<g>

<polygon class="st3" points="146.9,65.1 111.6,65.1 111.6,29.8 105,29.8 105,65.1 69.8,65.1 69.8,71.7 105,71.7 105,107 111.6,107 
111.6,71.7 146.9,71.7 	"/>
	<animateTransform
	attributeName="transform"
	type="rotate"
	from="0 110 68"
	to="360 110 68"
	dur="6s"
	repeatCount="indefinite" />	
</g>

<g>
<path class="st0" d="M306.1,445.4L281.9,394l79-38.1v30.3L306.1,445.4z"/>
<path class="st0" d="M261,445.4l-54.8-59.1v-30.3l79,38.1L261,445.4z"/>
<path class="st0" d="M375,235.5h-32.1l-0.2-3.1c0-0.4-3-44.3-23.1-64.4c-11.9-11.9-17.9-9.4-28.7-4.8c-6.3,2.7-14.1,6-24.7,6.5
c-27.3,1.5-37.4-14.1-38.8-16.6c-20.2-26-26-47.2-17.2-63.1c11.2-20.1,46-28.7,95.6-23.4c37.4,4,69.9,41.1,75.6,71.9
c4,21.6,3.8,44.1-0.6,66.9L375,235.5z"/>
<path class="st3" d="M294.8,487.2H273V406h21.9V487.2z M279.5,480.6h8.7v-68h-8.7V480.6z"/>
<path class="st2" d="M344.8,354.3H218.6v-81.5h-7.5c-6.3,0-12-2.9-15.8-8c-3.7-5.1-4.8-11.4-3-17.4l31.5-103.3l6.3,1.9l-31.5,103.3
c-1.2,4-0.5,8.2,2,11.6c2.5,3.4,6.3,5.3,10.5,5.3h14.1v81.5h117.1c4.8-4.6,28.1-30.1,26-81.2v-34.3h6.6v34.2
c2.5,59.9-27.9,86.1-29.2,87.2L344.8,354.3z"/>
<rect x="219.7" y="294.1" class="st2" width="29.1" height="6.6"/>
<path class="st2" d="M372,278.6v-6.6c10.1,0,18.3-10.3,18.3-22.9c0-13.2-7.1-22.8-16.8-22.8v-6.6c13.3,0,23.4,12.6,23.4,29.3
C396.9,265.4,385.7,278.6,372,278.6z"/>
<path class="st2" d="M298.5,219.7c-6.2-6.2-14.4-9.6-23.1-9.6c-8.7,0-16.9,3.4-23.1,9.6l-4.7-4.7c7.4-7.4,17.3-11.5,27.7-11.5
c10.5,0,20.3,4.1,27.7,11.5L298.5,219.7z"/>
<path class="st2" d="M260.9,445.4l-54.8-59.1v-30.3l79,38.1L260.9,445.4z M212.8,383.6l46.4,50.1l17.3-36.6l-63.6-30.7V383.6z"/>
<path class="st2" d="M306.2,445.4L282,394l79-38.1v30.3L306.2,445.4z M290.7,397.1l17.3,36.6l46.4-50.1v-17.2L290.7,397.1z"/>
<rect x="241" y="351.7" class="st2" width="6.6" height="24.4"/>
<rect x="331.6" y="351.1" class="st2" width="6.6" height="21.7"/>
<rect x="200.8" y="342.1" transform="matrix(0.5641 -0.8257 0.8257 0.5641 -191.6321 327.7616)" class="st2" width="27.7" height="6.6"/>
<rect x="351.9" y="340.6" transform="matrix(0.8346 -0.5508 0.5508 0.8346 -133.8305 253.4435)" class="st2" width="6.6" height="18"/>
<path class="st3" d="M375,235.5h-32.1l-0.2-3.1c0-0.4-3-44.3-23.1-64.4c-11.9-11.9-17.9-9.4-28.7-4.8c-6.3,2.7-14.1,6-24.7,6.5
c-27.2,1.5-37.4-14.1-38.8-16.6c-20.2-26-26-47.2-17.2-63.1c11.2-20.1,46-28.7,95.6-23.4c37.4,4,69.9,41.1,75.6,71.9
c4,21.6,3.8,44.1-0.6,66.9L375,235.5z M349,228.9h20.5l4.8-24.7c4.3-22,4.5-43.7,0.6-64.4c-5.3-28.5-36.2-63-69.8-66.6
c-46.2-4.9-79.5,2.6-89.2,20.1c-7.3,13.2-1.5,32.6,16.8,56l0.3,0.5c0.4,0.7,8.2,14.7,32.8,13.4c9.4-0.5,16.4-3.5,22.5-6
c11.2-4.7,20.9-8.8,35.9,6.2C343.1,182.2,348,218.1,349,228.9z"/>
<rect x="257.6" y="227.5" class="st2" width="21.3" height="6.6"/>
<path class="st2" d="M453.9,483.9h-6.6l0-55c-0.4-21.9-18.6-39.7-40.6-39.7h-50.2v-6.6h50.2c25.6,0,46.8,20.7,47.2,46.2l0,1.2
V483.9z"/>
<path class="st2" d="M119.5,483.9h-6.6l0-57.3c0.4-22.9,21.6-41.6,47.2-41.6h50.2v6.6h-50.2c-22.1,0-40.3,15.8-40.6,35.1l0,1V483.9
z"/>
<path class="st2" d="M417.5,482.1h-71.7v-38.3h71.7V482.1z M352.4,475.5h58.5v-25.1h-58.5V475.5z"/>
<rect x="354.9" y="458" class="st2" width="8.3" height="6.6"/>
<rect x="395.1" y="458" class="st2" width="8.3" height="6.6"/>
<rect x="366.9" y="458" class="st2" width="19.9" height="6.6"/>
</g>
<path class="st2" d="M108.3,130.3c-34.1,0-61.9-27.7-61.9-61.9c0-34.1,27.7-61.9,61.9-61.9s61.9,27.7,61.9,61.9
	C170.2,102.5,142.5,130.3,108.3,130.3z M108.3,13.1c-30.5,0-55.3,24.8-55.3,55.3s24.8,55.3,55.3,55.3s55.3-24.8,55.3-55.3
	S138.8,13.1,108.3,13.1z"/>
</svg>
