<?xml version="1.0" encoding="utf-8"?>
<!-- Generator: Adobe Illustrator 22.0.0, SVG Export Plug-In . SVG Version: 6.00 Build 0)  -->
<svg version="1.1" id="Layer_1" xmlns="http://www.w3.org/2000/svg" xmlns:xlink="http://www.w3.org/1999/xlink" x="0px" y="0px"
	 viewBox="0 0 512 512" style="enable-background:new 0 0 512 512;" xml:space="preserve">
<style type="text/css">
	.st0{fill:#A3D133;}
	.st1{fill:#FFFFFF;}
	.st2{fill:#231F20;}
	.st3{fill:#3EB1FC;}
</style>

<g>
<path class="st0" d="M135.4,442.3c0,25.1,16.3,45.4,36.5,45.4h140.3c20.1,0,36.5-20.3,36.5-45.4V240.5c0-25.1-16.3-45.4-36.5-45.4
H171.9c-20.1,0-36.5,20.3-36.5,45.4V442.3z"/>
	<animateMotion
	path="M10,0 -10 0 10,0"
	begin="0s" 
	dur="8s" 
	repeatCount="indefinite"
	/>
</g>

<path class="st1" d="M428.8,388.9H180.5c-9.8,0-17.9-8.1-17.9-17.9v-82.4c0-9.8,8.1-17.9,17.9-17.9h248.3c9.8,0,17.9,8.1,17.9,17.9
V371C446.7,380.8,438.7,388.9,428.8,388.9z"/>

<g>
<path class="st1" d="M437.6,463.3c0,7.4-6,13.4-13.4,13.4c-7.4,0-13.4-6-13.4-13.4c0-7.4,6-13.4,13.4-13.4
C431.6,449.9,437.6,455.9,437.6,463.3z"/>
<path class="st2" d="M424.2,480.3c-9.4,0-17-7.6-17-17c0-9.4,7.6-17,17-17c9.4,0,17,7.6,17,17C441.3,472.7,433.6,480.3,424.2,480.3
z M424.2,453.5c-5.4,0-9.8,4.4-9.8,9.8c0,5.4,4.4,9.8,9.8,9.8c5.4,0,9.8-4.4,9.8-9.8C434,457.9,429.6,453.5,424.2,453.5z"/>
</g>

<path class="st3" d="M388.8,329.7c0,5-4.1,9.1-9.1,9.1c-5,0-9.1-4.1-9.1-9.1c0-5,4.1-9.1,9.1-9.1
C384.8,320.6,388.8,324.7,388.8,329.7z"/>
<path class="st2" d="M111.1,328H92.4v-18.7c0-2-1.6-3.6-3.6-3.6c-2,0-3.6,1.6-3.6,3.6V328H66.4c-2,0-3.6,1.6-3.6,3.6
s1.6,3.6,3.6,3.6h18.7V354c0,2,1.6,3.6,3.6,3.6c2,0,3.6-1.6,3.6-3.6v-18.7h18.7c2,0,3.6-1.6,3.6-3.6S113.1,328,111.1,328z"/>

<g>
<path class="st2" d="M411.5,66.5h-18v-18c0-1.9-1.6-3.5-3.5-3.5s-3.5,1.6-3.5,3.5v18h-18c-1.9,0-3.5,1.6-3.5,3.5
c0,1.9,1.6,3.5,3.5,3.5h18v18c0,1.9,1.6,3.5,3.5,3.5s3.5-1.6,3.5-3.5v-18h18c1.9,0,3.5-1.6,3.5-3.5C415,68.1,413.4,66.5,411.5,66.5z" />
	<animateTransform
	attributeName="transform"
	type="rotate"
	from="0 390 70"
	to="360 390 70"
	dur="6s"
	repeatCount="indefinite" />	
</g>

<path class="st2" d="M421.8,380.7H187.5c-9.6,0-17.5-7.2-17.5-16.1v-69.6c0-8.9,7.8-16.1,17.5-16.1h36.1c2,0,3.6,1.6,3.6,3.6
s-1.6,3.6-3.6,3.6h-36.1c-5.6,0-10.2,4-10.2,8.8v69.6c0,4.9,4.6,8.8,10.2,8.8h234.2c5.6,0,10.2-4,10.2-8.8v-69.6
c0-4.9-4.6-8.8-10.2-8.8H281.8c-2,0-3.6-1.6-3.6-3.6s1.6-3.6,3.6-3.6h139.9c9.6,0,17.5,7.2,17.5,16.1v69.6
C439.2,373.4,431.4,380.7,421.8,380.7z" />
<path class="st2" d="M391,426.7h-72.3c-1.3-5.1-5.3-9.1-10.4-10.4V400c0-2-1.6-3.6-3.6-3.6S301,398,301,400v16.3
c-5.1,1.3-9.1,5.3-10.4,10.4h-72.3c-2,0-3.6,1.6-3.6,3.6s1.6,3.6,3.6,3.6h72.3c1.6,6.3,7.3,10.9,14.1,10.9s12.4-4.6,14.1-10.9H391
c2,0,3.6-1.6,3.6-3.6S393,426.7,391,426.7z"/>

<g>
<circle class="st1" cx="263.2" cy="98.6" r="82.7"/>
<circle class="st1" cx="171.8" cy="119.6" r="61.6"/>
<path class="st3" d="M311.1,153.6c-1,0-1.9-0.4-2.6-1.1c-1.4-1.5-1.3-3.8,0.2-5.1c13.5-12.7,20.9-29.9,20.9-48.4
c0-36.5-29.6-66.3-66-66.5c-34.6,0.3-64,26.7-67.1,60.3c-0.1,1.2-0.1,2.5,0,3.8c0,0.8,0.1,1.6,0.1,2.5c0,2-1.6,3.6-3.6,3.6
s-3.6-1.6-3.6-3.6c0-0.7,0-1.5-0.1-2.2c-0.1-1.6-0.1-3.1,0-4.7c3.5-37.2,35.8-66.4,73.8-66.9v0l1.1,0c40.2,0.6,72.8,33.5,72.8,73.8
c0,20.6-8.2,39.6-23.2,53.7C312.8,153.3,311.9,153.6,311.1,153.6z"/>
<path class="st3" d="M220.8,102.5c-2,0-3.6-1.6-3.6-3.6c0-1.1,0-2.1-0.1-3.2l-0.1-1.2c2.1-22.5,22.9-41.1,46.4-41.4
c1.8-0.3,3.7,1.6,3.7,3.6c0,2-1.6,3.7-3.6,3.7c-19.9,0.3-37.5,15.9-39.2,34.8c0.1,1.4,0.2,2.5,0.2,3.7
C224.5,100.9,222.8,102.5,220.8,102.5z"/>
<path class="st3" d="M171.7,172.7c-29.1,0-52.8-23.7-52.8-52.8c0-29.1,23.7-52.8,52.8-52.8c2,0,3.6,1.6,3.6,3.6c0,2-1.6,3.6-3.6,3.6
c-25.1,0-45.5,20.4-45.5,45.5c0,25.1,20.4,45.5,45.5,45.5c2,0,3.6,1.6,3.6,3.6C175.4,171.1,173.8,172.7,171.7,172.7z"/>
	<animateMotion
	path="M5, 5 5 -5 5 5"
	begin="0s" 
	dur="8s" 
	repeatCount="indefinite"
	/>
</g>

<path class="st1" d="M427.7,256.2H181.6c-10.5,0-19-8.6-19-19v-80.2c0-10.5,8.6-19,19-19h246.1c10.5,0,19,8.6,19,19v80.2
	C446.7,247.6,438.1,256.2,427.7,256.2z"/>
<path class="st2" d="M421.8,248H187.5c-9.6,0-17.5-7.2-17.5-16.1v-69.6c0-8.9,7.8-16.1,17.5-16.1h36.1c2,0,3.6,1.6,3.6,3.6
	c0,2-1.6,3.6-3.6,3.6h-36.1c-5.6,0-10.2,4-10.2,8.8v69.6c0,4.9,4.6,8.8,10.2,8.8h234.2c5.6,0,10.2-4,10.2-8.8v-69.6
	c0-4.9-4.6-8.8-10.2-8.8H281.8c-2,0-3.6-1.6-3.6-3.6c0-2,1.6-3.6,3.6-3.6h139.9c9.6,0,17.5,7.2,17.5,16.1v69.6
	C439.2,240.7,431.4,248,421.8,248z"/>
<path class="st3" d="M388.8,195.2c0,5-4.1,9.1-9.1,9.1c-5,0-9.1-4.1-9.1-9.1c0-5,4.1-9.1,9.1-9.1
	C384.8,186.1,388.8,190.1,388.8,195.2z"/>
<path class="st1" d="M312,430.3c0,4.1-3.3,7.4-7.4,7.4s-7.4-3.3-7.4-7.4c0-4.1,3.3-7.4,7.4-7.4S312,426.3,312,430.3z"/>
</svg>
