<?xml version="1.0" encoding="utf-8"?>
<!-- Generator: Adobe Illustrator 22.0.0, SVG Export Plug-In . SVG Version: 6.00 Build 0)  -->
<svg version="1.1" id="Layer_1" xmlns="http://www.w3.org/2000/svg" xmlns:xlink="http://www.w3.org/1999/xlink" x="0px" y="0px"
	 viewBox="0 0 512 512" style="enable-background:new 0 0 512 512;" xml:space="preserve">
<style type="text/css">
	.st0{fill:#A3D133;}
	.st1{fill:#3EB1FC;}
	.st2{fill:#FFFFFF;}
	.st3{fill:#231F20;}
</style>

<path class="st0" d="M99.8,472c0,18.8,12.2,34,27.3,34h105.1c15.1,0,27.3-15.2,27.3-34v-81.6c0-18.8-12.2-34-27.3-34H127.1
c-15.1,0-27.3,15.2-27.3,34V472z"/>
<polygon class="st1" points="453.8,140.4 437.2,140.4 437.2,123.8 431.4,123.8 431.4,140.4 414.7,140.4 414.7,146.2 431.4,146.2 
431.4,162.9 437.2,162.9 437.2,146.2 453.8,146.2 "/>

<g>
<path class="st2" d="M425.4,443.3c0,5.9-4.8,10.7-10.7,10.7s-10.7-4.8-10.7-10.7c0-5.9,4.8-10.7,10.7-10.7S425.4,437.3,425.4,443.3
z"/>
<path class="st3" d="M414.7,456.9c-7.5,0-13.6-6.1-13.6-13.6s6.1-13.6,13.6-13.6s13.6,6.1,13.6,13.6
C428.3,450.8,422.2,456.9,414.7,456.9z M414.7,435.4c-4.3,0-7.8,3.5-7.8,7.8s3.5,7.8,7.8,7.8s7.8-3.5,7.8-7.8
S419,435.4,414.7,435.4z"/>
</g>

<path class="st3" d="M463.8,209.5l10.5-10.5c1.1-1.1,1.1-3,0-4.1c-1.1-1.1-3-1.1-4.1,0l-10.5,10.5l-10.5-10.5c-1.1-1.1-3-1.1-4.1,0
c-1.1,1.1-1.1,3,0,4.1l10.6,10.5L445,220c-1.1,1.1-1.1,3,0,4.1c0.6,0.6,1.4,0.9,2.1,0.9c0.7,0,1.5-0.3,2-0.9l10.5-10.5l10.5,10.5
c0.6,0.6,1.4,0.9,2.1,0.9c0.8,0,1.5-0.3,2-0.9c1.1-1.1,1.1-3,0-4.1L463.8,209.5z"/>

<g>
<circle class="st2" cx="234.6" cy="56.1" r="49.9"/>
<path class="st3" d="M234.6,108.9c-13.5,0-27-5.1-37.3-15.4c-20.6-20.6-20.6-54.1,0-74.7s54.1-20.6,74.7,0s20.6,54.1,0,74.7l0,0
C261.7,103.8,248.2,108.9,234.6,108.9z M234.6,9.2c-12,0-24.1,4.6-33.2,13.7c-18.3,18.3-18.3,48.1,0,66.4s48.1,18.3,66.4,0l0,0
c18.3-18.3,18.3-48.1,0-66.4C258.7,13.8,246.7,9.2,234.6,9.2z"/>
<rect x="248" y="27" transform="matrix(0.7071 -0.7071 0.7071 0.7071 55.2399 193.187)" class="st3" width="25.7" height="5.8"/>
<rect x="195.6" y="79.5" transform="matrix(0.7074 -0.7069 0.7069 0.7074 2.7871 171.4781)" class="st3" width="25.7" height="5.8"/>
<rect x="257.9" y="69.5" transform="matrix(0.7072 -0.707 0.707 0.7072 18.116 208.5124)" class="st3" width="5.8" height="25.7"/>
<rect x="205.5" y="17.1" transform="matrix(0.7071 -0.7072 0.7072 0.7071 39.8663 156.1687)" class="st3" width="5.8" height="25.7"/>
<path class="st1" d="M234.6,83.3c-6.9,0-13.9-2.6-19.2-7.9c-10.6-10.6-10.6-27.8,0-38.4s27.8-10.6,38.4,0s10.6,27.8,0,38.4l0,0
C248.5,80.6,241.6,83.3,234.6,83.3z M234.6,34.8c-5.5,0-10.9,2.1-15.1,6.2c-8.3,8.3-8.3,21.8,0,30.2c8.3,8.3,21.8,8.3,30.2,0l0,0
c8.3-8.3,8.3-21.8,0-30.2C245.6,36.9,240.1,34.8,234.6,34.8z"/>
	<animateTransform
	attributeName="transform"
	type="rotate"
	from="0 235 57"
	to="360 235 57"
	dur="6s"
	repeatCount="indefinite" />	
</g>

<g>
<circle class="st2" cx="234.6" cy="320.4" r="12.8"/>
<path class="st3" d="M234.6,336.1c-8.7,0-15.7-7.1-15.7-15.7c0-8.7,7.1-15.7,15.7-15.7s15.7,7.1,15.7,15.7
C250.4,329,243.3,336.1,234.6,336.1z M234.6,310.5c-5.5,0-9.9,4.4-9.9,9.9s4.4,9.9,9.9,9.9s9.9-4.4,9.9-9.9
S240.1,310.5,234.6,310.5z"/>

<circle class="st2" cx="319.8" cy="320.4" r="12.8"/>
<path class="st3" d="M319.8,336.1c-8.7,0-15.7-7.1-15.7-15.7c0-8.7,7.1-15.7,15.7-15.7c8.7,0,15.7,7.1,15.7,15.7
S328.5,336.1,319.8,336.1z M319.8,310.5c-5.5,0-9.9,4.4-9.9,9.9s4.4,9.9,9.9,9.9s9.9-4.4,9.9-9.9
C329.7,314.9,325.3,310.5,319.8,310.5z"/>
</g>

<g>
<path class="st2" d="M395.9,257c-15.3,0-24-1.6-24,22.3c-102.1,0-125.5-54.4-140-54.4c-8,0-38.5,42.3-49.2,54.4
c0-17.3-1.8-22.3-21.5-22.3c0-39,28.9-120.4,117.8-120.4C341.7,136.6,395.9,186.3,395.9,257z"/>
<circle class="st2" cx="299.4" cy="396.1" r="17.1"/>
<path class="st2" d="M179,343h-35.4c-1.1,0-2-0.9-2-2v-82c0-1.1,0.9-2,2-2H179c1.1,0,2,0.9,2,2v82C181,342.1,180.1,343,179,343z"/>
<path class="st2" d="M412,343h-35.4c-1.1,0-2-0.9-2-2v-82c0-1.1,0.9-2,2-2H412c1.1,0,2,0.9,2,2v82C414,342.1,413.1,343,412,343z"/>
<path class="st1" d="M299.4,416.1c-11,0-20-9-20-20s9-20,20-20s20,9,20,20S310.4,416.1,299.4,416.1z M299.4,381.9
c-7.8,0-14.2,6.4-14.2,14.2c0,7.8,6.4,14.2,14.2,14.2s14.2-6.4,14.2-14.2S307.2,381.9,299.4,381.9z"/>
<path class="st3" d="M362.8,282.4c-79.9,0-125.9-52.5-126.4-53.1c-0.8-1-1.8-1.6-3-1.6l0,0c-1.1,0-2.2,0.5-2.8,1.4l-45.7,52
l-4.4-3.8l45.6-51.8c1.7-2.2,4.4-3.6,7.4-3.6l0,0c3,0,5.7,1.4,7.5,3.7c0.4,0.4,48.3,54.8,130.8,50.7l0.3,5.8
C369,282.4,365.9,282.4,362.8,282.4z"/>
<path class="st3" d="M278.2,446.2c-59.5,0-102.7-44.9-102.7-106.7h5.8c0,58.4,40.7,100.8,96.8,100.8S375,399.4,375,343h5.8
C380.9,401.8,336.8,446.2,278.2,446.2z"/>
<path class="st1" d="M402,345.6h-17.1c-8.4,0-15.7-7.3-15.7-15.7v-59.8c0-8.4,7.3-15.7,15.7-15.7H402c8.4,0,15.7,7.3,15.7,15.7
v59.8C417.7,338.3,410.4,345.6,402,345.6z M384.9,260.2c-5.2,0-9.9,4.7-9.9,9.9v59.8c0,5.2,4.7,9.9,9.9,9.9H402
c5.2,0,9.9-4.7,9.9-9.9v-59.8c0-5.2-4.7-9.9-9.9-9.9H384.9z"/>
<path class="st1" d="M317.5,398.9v-5.8h15.8c1.5-0.1,41.8-3.5,41.8-52.5h5.8c0,54.5-47,58.3-47.4,58.3H317.5z"/>
<path class="st1" d="M169.9,345.9h-17.2c-8.4,0-15.8-7.4-15.8-15.8v-60.2c0-8.4,7.4-15.8,15.8-15.8h17.2c8.4,0,15.8,7.4,15.8,15.8
v60.2C185.7,338.5,178.3,345.9,169.9,345.9z M152.7,259.9c-5.2,0-10,4.8-10,10v60.2c0,5.2,4.8,10,10,10h17.2c5.2,0,10-4.8,10-10
v-60.2c0-5.2-4.8-10-10-10H152.7z M398.8,257H393c0-64.8-51.1-117.5-113.9-117.5c-62.9,0-114,51.2-114,114.1h-5.8
c0-66.1,53.8-119.9,119.8-119.9C345.1,133.7,398.8,189,398.8,257z"/>
</g>

<g>
<path class="st2" d="M129.6,177.2c-1.3,0-2.5-0.3-3.7-0.9l-13.8-6.4c-15.3,5.9-32.1,4.6-46.3-3.6c-25.6-14.8-34.4-47.7-19.6-73.4
c7.2-12.4,18.8-21.3,32.6-25c13.9-3.7,28.6-2.3,40.8,5.4c27.7,17.6,31.7,55.7,20.3,70.5c-9.3,10.5-2.4,24.8-2.4,24.8
c0.2,2.9-1.1,5.6-3.5,7.3C132.7,176.7,131.2,177.2,129.6,177.2z"/>
<circle class="st0" cx="93.6" cy="119.7" r="42.3"/>
<path class="st3" d="M131.2,179.6c-1.3,0-2.6-0.3-3.8-1l-14.4-6.7c-15.9,6.2-33.4,4.8-48.2-3.7c-13-7.5-22.2-19.6-26.1-34
c-3.9-14.5-1.9-29.6,5.6-42.5c7.5-13,19.6-22.2,34-26.1c14.5-3.9,29.6-1.9,42.5,5.6c26.7,15.5,35.9,49.8,20.5,76.5
c-1.1,2-2.4,3.9-3.7,5.6l1.9,17.2c0.2,3.1-1.1,5.9-3.7,7.6C134.4,179.1,132.8,179.6,131.2,179.6z M113.2,165.6l16.8,7.8
c1.3,0.7,2.3,0.2,2.6-0.1c0.4-0.2,1.2-0.9,1.1-2.2l-2.2-19.4l0.7-0.9c1.4-1.8,2.8-3.8,4-5.9c13.8-24,5.6-54.7-18.3-68.6
c-11.6-6.7-25.1-8.5-38.1-5S56,83.1,49.3,94.7s-8.5,25.1-5,38.1s11.8,23.8,23.4,30.5c13.6,7.9,29.8,8.9,44.3,2.9L113.2,165.6z"/>
<path class="st3" d="M114.3,149.3c-12.4,0-24.3-10.9-34.8-20.6l-1.7-1.6c-8-7.3-11.2-16.3-12.4-20.9c-0.8-3,0-6.1,2.2-8.4l0.2-0.2
c9.2-8.2,12.3-6.9,13.3-6.5c2.8,1.2,6.9,7.4,9.9,12.5l0.3,0.8c0.3,2.8-0.2,5.2-1.1,7.3l-1.2,2.5l12.7,11.6c1.3-0.9,2.9-2,3.7-2.4
c0.9-0.6,2-0.9,3.2-0.9c1.6-0.1,3.3,0.3,4.8,1.2c2.3,1.4,8.3,5,10.5,6.4c3.4,2.2,3.3,6.3,1.7,9.2l-0.4,0.6l-8.5,9.3l-1.2,0.1
C115.2,149.3,114.8,149.3,114.3,149.3z M71.7,101.9c-0.7,0.8-1,1.8-0.7,2.9c1,4.1,3.8,11.8,10.7,18.1l1.7,1.6
c9.7,8.9,20.6,19,30.7,19.1l6.5-7.2c0.1-0.4,0.4-1.2,0.1-1.4c-2.2-1.4-8-5-10.3-6.3c-0.5-0.3-1-0.4-1.5-0.4l0,0l-0.6,0.1
c-1.3,0.8-5.2,3.5-5.2,3.5l-1.9,1.3l-19.3-17.6l3-6.4c0.5-1,0.7-2.1,0.7-3.3c-2.3-3.8-5.2-8-6.6-9.3
C77.7,97.2,74.4,99.5,71.7,101.9z"/>
	<animateMotion
	path="M10,0 -10 0 10,0"
	begin="0s" 
	dur="8s" 
	repeatCount="indefinite"
	/>
</g>
</svg>
