<?xml version="1.0" encoding="utf-8"?>
<!-- Generator: Adobe Illustrator 22.0.0, SVG Export Plug-In . SVG Version: 6.00 Build 0)  -->
<svg version="1.1" id="Layer_1" xmlns="http://www.w3.org/2000/svg" xmlns:xlink="http://www.w3.org/1999/xlink" x="0px" y="0px"
	 viewBox="0 0 512 512" style="enable-background:new 0 0 512 512;" xml:space="preserve">
<style type="text/css">
	.st0{fill:#5E686B;}
	.st1{fill:#3FC6F1;}
</style>
<path class="st0" d="M226.2,507.5c-101.5,0-184-82.5-184-184s82.5-184,184-184c3.3,0,5.9,2.7,5.9,5.9c0,3.3-2.7,5.9-5.9,5.9
	c-94.9,0-172.1,77.2-172.1,172.1s77.2,172.1,172.1,172.1s172.1-77.2,172.1-172.1c0-3.3,2.7-5.9,5.9-5.9c3.3,0,5.9,2.7,5.9,5.9
	C410.2,425,327.7,507.5,226.2,507.5z"/>
<path class="st0" d="M255.9,418.5h-59.4c-3.3,0-5.9-2.7-5.9-5.9v-53.4h-53.4c-3.3,0-5.9-2.7-5.9-5.9v-59.4c0-3.3,2.7-5.9,5.9-5.9
	h53.4v-53.4c0-3.3,2.7-5.9,5.9-5.9h59.4c3.3,0,5.9,2.7,5.9,5.9v53.4h53.4c3.3,0,5.9,2.7,5.9,5.9v59.4c0,3.3-2.7,5.9-5.9,5.9h-53.4
	v53.4C261.8,415.8,259.2,418.5,255.9,418.5z M202.5,406.6H250v-53.4c0-3.3,2.7-5.9,5.9-5.9h53.4v-47.5h-53.4c-3.3,0-5.9-2.7-5.9-5.9
	v-53.4h-47.5v53.4c0,3.3-2.7,5.9-5.9,5.9h-53.4v47.5h53.4c3.3,0,5.9,2.7,5.9,5.9L202.5,406.6L202.5,406.6z"/>
<path class="st1" d="M398.3,240.4h-47.5c-3.3,0-5.9-2.7-5.9-5.9v-41.5h-41.5c-3.3,0-5.9-2.7-5.9-5.9v-47.5c0-3.3,2.7-5.9,5.9-5.9
	h41.5V92c0-3.3,2.7-5.9,5.9-5.9h47.5c3.3,0,5.9,2.7,5.9,5.9v41.5h41.5c3.3,0,5.9,2.7,5.9,5.9V187c0,3.3-2.7,5.9-5.9,5.9h-41.5v41.5
	C404.3,237.8,401.6,240.4,398.3,240.4z M356.8,228.5h35.6V187c0-3.3,2.7-5.9,5.9-5.9h41.5v-35.6h-41.5c-3.3,0-5.9-2.7-5.9-5.9V98
	h-35.6v41.5c0,3.3-2.7,5.9-5.9,5.9h-41.5v35.6h41.5c3.3,0,5.9,2.7,5.9,5.9V228.5z"/>
<path class="st1" d="M291.5,98h-35.6c-3.3,0-5.9-2.7-5.9-5.9V74.2h-17.8c-3.3,0-5.9-2.7-5.9-5.9V32.7c0-3.3,2.7-5.9,5.9-5.9H250V8.9
	c0-3.3,2.7-5.9,5.9-5.9h35.6c3.3,0,5.9,2.7,5.9,5.9v17.8h17.8c3.3,0,5.9,2.7,5.9,5.9v35.6c0,3.3-2.7,5.9-5.9,5.9h-17.8V92
	C297.5,95.3,294.8,98,291.5,98z M261.8,86.1h23.7V68.3c0-3.3,2.7-5.9,5.9-5.9h17.8V38.6h-17.8c-3.3,0-5.9-2.7-5.9-5.9V14.9h-23.7
	v17.8c0,3.3-2.7,5.9-5.9,5.9h-17.8v23.7h17.8c3.3,0,5.9,2.7,5.9,5.9L261.8,86.1L261.8,86.1z"/>
</svg>
