<?xml version="1.0" encoding="utf-8"?>
<!-- Generator: Adobe Illustrator 22.0.0, SVG Export Plug-In . SVG Version: 6.00 Build 0)  -->
<svg version="1.1" id="Layer_1" xmlns="http://www.w3.org/2000/svg" xmlns:xlink="http://www.w3.org/1999/xlink" x="0px" y="0px"
	 viewBox="0 0 512 512" style="enable-background:new 0 0 512 512;" xml:space="preserve">
<style type="text/css">
	.st0{fill:#3FC6F1;}
	.st1{fill:#5E686C;}
</style>
<path class="st0" d="M261.1,505.1c-66.2,0-120-53.8-120-120c0-66.1,53.8-120,120-120c66.1,0,119.9,53.8,119.9,120
	C381.1,451.3,327.3,505.1,261.1,505.1z M261.1,278.6c-58.8,0-106.6,47.8-106.6,106.6c0,58.8,47.8,106.6,106.6,106.6
	c58.8,0,106.6-47.8,106.6-106.6C367.7,326.4,319.9,278.6,261.1,278.6z"/>
<path class="st1" d="M212.6,391.9c-3.7,0-6.7-3-6.7-6.7c0-30.4,24.8-55.2,55.2-55.2c3.7,0,6.7,3,6.7,6.7c0,3.7-3,6.7-6.7,6.7
	c-23.1,0-41.9,18.8-41.9,41.9C219.3,388.9,216.3,391.9,212.6,391.9z"/>
<path class="st1" d="M277.3,214c-2.8,0-5.4-1.8-6.3-4.6c-1.2-3.5,0.7-7.3,4.2-8.4l140-46.7l-15-75.1L400,19.9H122.3v58l-15.2,76.4
	l140,46.7c3.5,1.2,5.4,4.9,4.2,8.4c-1.2,3.5-4.9,5.4-8.4,4.2L97.3,165.1c-3.2-1.1-5.1-4.3-4.4-7.6l16.2-80.8l-0.1-63.4
	c0-3.7,3-6.7,6.7-6.7h291.1c3.7,0,6.7,3,6.7,6.7v64.7l16,79.5c0.7,3.3-1.2,6.6-4.4,7.6l-145.5,48.5C278.7,213.9,278,214,277.3,214z"
	/>
<path class="st1" d="M212.6,134.1c-3.7,0-6.7-3-6.7-6.7V60.8c0-3.7,3-6.7,6.7-6.7c3.7,0,6.7,3,6.7,6.7v66.6
	C219.3,131.1,216.3,134.1,212.6,134.1z"/>
<path class="st1" d="M309.6,134.1c-3.7,0-6.7-3-6.7-6.7V60.8c0-3.7,3-6.7,6.7-6.7c3.7,0,6.7,3,6.7,6.7v66.6
	C316.3,131.1,313.3,134.1,309.6,134.1z"/>
</svg>
