<?xml version="1.0" encoding="utf-8"?>
<!-- Generator: Adobe Illustrator 22.0.0, SVG Export Plug-In . SVG Version: 6.00 Build 0)  -->
<svg version="1.1" id="Layer_1" xmlns="http://www.w3.org/2000/svg" xmlns:xlink="http://www.w3.org/1999/xlink" x="0px" y="0px"
	 viewBox="0 0 512 512" style="enable-background:new 0 0 512 512;" xml:space="preserve">
<style type="text/css">
	.st0{fill:none;stroke:#69C299;stroke-linecap:round;stroke-linejoin:round;stroke-miterlimit:10;}
	.st1{fill:#5E686C;}
	.st2{fill:#3FC6F1;}
</style>
<path class="st0" d="M92.5,415.7"/>
<path class="st1" d="M241.4,481.2c-3.5,0-7.1-0.8-10.7-2.3c-8.3-3.8-31.7-13.5-43.3-14.7c-16.3-1.6-39.9-2.5-70.3-2.5
	c-42.2,0-82.9,1.6-83.3,1.7c0,0,0,0,0,0c-18.2,0-31.5-13.4-31.5-30.6V62.4c0-17.3,14-31.4,31.3-31.4h197.8
	c17.3,0,31.3,14.1,31.3,31.4v395.1C262.7,471.5,253.9,481.2,241.4,481.2z M117.1,448.4c30.8,0,54.9,0.9,71.6,2.5
	c16.2,1.6,46.1,15.1,47.3,15.7c1.8,0.7,3.6,1.1,5.3,1.1c7.1,0,7.9-7.1,7.9-10.2V62.4c0-9.9-8-18-17.9-18H33.6
	c-9.9,0-17.9,8.1-17.9,18v370.4c0,9.6,7.5,17.2,17,17.2C33.7,450,74.7,448.4,117.1,448.4z"/>
<path class="st2" d="M270.5,481.1c-4.3,0-8.2-1.1-11.6-3.4c-6.1-4.1-9.6-11.4-9.6-20.2h13.4c0,4.2,1.3,7.4,3.7,9
	c2.4,1.6,5.8,1.5,9.7-0.1c1-0.5,30.9-14,47.1-15.6c50.5-5.1,151.1-1,155.4-0.9c4.6,0.2,9.1-1.5,12.4-4.7c3.3-3.2,5.2-7.7,5.2-12.4
	V62.4c0-9.9-8-18-17.9-18H280.6c-9.9,0-17.9,8.1-17.9,18h-13.4c0-17.3,14-31.4,31.3-31.4h197.8c17.3,0,31.3,14.1,31.3,31.4v370.4
	c0,8.5-3.3,16.3-9.3,22.1c-6,5.7-13.9,8.8-22.2,8.5c-1.1,0-104-4.1-153.6,0.8c-11.6,1.2-35.1,10.9-43.1,14.6
	C277.7,480.4,274,481.1,270.5,481.1z"/>
</svg>
