<?xml version="1.0" encoding="utf-8"?>
<!-- Generator: Adobe Illustrator 22.0.0, SVG Export Plug-In . SVG Version: 6.00 Build 0)  -->
<svg version="1.1" id="Layer_1" xmlns="http://www.w3.org/2000/svg" xmlns:xlink="http://www.w3.org/1999/xlink" x="0px" y="0px"
	 viewBox="0 0 512 512" style="enable-background:new 0 0 512 512;" xml:space="preserve">
<style type="text/css">
	.st0{fill:#5E686C;}
	.st1{fill:#3FC6F1;}
</style>
<path class="st0" d="M495.3,27.9H401V9.4c0-3.8-3.1-6.8-6.8-6.8c-3.8,0-6.8,3-6.8,6.8v18.5H135.4V9.4c0-3.8-3.1-6.8-6.8-6.8
	c-3.8,0-6.8,3-6.8,6.8v18.5h-107c-3.8,0-6.8,3-6.8,6.8v113.8v0v354.1c0,3.8,3.1,6.8,6.8,6.8h480.5c3.8,0,6.8-3.1,6.8-6.8V148.5V34.7
	C502.1,30.9,499.1,27.9,495.3,27.9z M21.6,41.5h100.2v5.8c0,3.8,3.1,6.8,6.8,6.8s6.8-3,6.8-6.8v-5.8h251.9v5.8c0,3.8,3,6.8,6.8,6.8
	c3.8,0,6.8-3,6.8-6.8v-5.8h87.5v100.2H21.6V41.5z M21.6,495.8V155.3h466.9v340.4H21.6z"/>
<path class="st1" d="M108.1,194.3c-2.7-2.7-7-2.7-9.6,0c-2.7,2.7-2.7,7,0,9.6l32.2,32.2c1.3,1.3,3.1,2,4.8,2c1.7,0,3.5-0.7,4.8-2
	c2.7-2.7,2.7-7,0-9.6L108.1,194.3z"/>
<path class="st1" d="M108.1,295.4c-2.7-2.7-7-2.7-9.6,0s-2.7,7,0,9.6l32.2,32.2c1.3,1.3,3.1,2,4.8,2c1.7,0,3.5-0.7,4.8-2
	c2.7-2.7,2.7-7,0-9.6L108.1,295.4z"/>
<path class="st1" d="M247.2,295.4c-2.7-2.7-7-2.7-9.6,0c-2.7,2.7-2.7,7,0,9.6l32.2,32.2c1.3,1.3,3.1,2,4.8,2c1.7,0,3.5-0.7,4.8-2
	c2.7-2.7,2.7-7,0-9.6L247.2,295.4z"/>
<path class="st0" d="M373.7,295.4c-2.7-2.7-7-2.7-9.6,0c-2.7,2.7-2.7,7,0,9.6l32.2,32.2c1.3,1.3,3.1,2,4.8,2c1.7,0,3.5-0.7,4.8-2
	c2.7-2.7,2.7-7,0-9.6L373.7,295.4z"/>
<path class="st0" d="M247.2,396.6c-2.7-2.7-7-2.7-9.6,0s-2.7,7,0,9.6l32.2,32.2c1.3,1.3,3.1,2,4.8,2c1.7,0,3.5-0.7,4.8-2
	c2.7-2.7,2.7-7,0-9.6L247.2,396.6z"/>
<path class="st0" d="M108.1,396.6c-2.7-2.7-7-2.7-9.6,0s-2.7,7,0,9.6l32.2,32.2c1.3,1.3,3.1,2,4.8,2c1.7,0,3.5-0.7,4.8-2
	c2.7-2.7,2.7-7,0-9.6L108.1,396.6z"/>
<path class="st1" d="M262,238.2c1.7,0,3.5-0.7,4.8-2c2.7-2.7,2.7-7,0-9.6l-32.2-32.2c-2.7-2.7-7-2.7-9.6,0s-2.7,7,0,9.6l32.2,32.2
	C258.5,237.5,260.3,238.2,262,238.2z"/>
<path class="st1" d="M373.7,194.3c-2.7-2.7-7-2.7-9.6,0s-2.7,7,0,9.6l32.2,32.2c1.3,1.3,3.1,2,4.8,2c1.7,0,3.5-0.7,4.8-2
	c2.7-2.7,2.7-7,0-9.6L373.7,194.3z"/>
</svg>
