<?xml version="1.0" encoding="utf-8"?>
<!-- Generator: Adobe Illustrator 22.0.0, SVG Export Plug-In . SVG Version: 6.00 Build 0)  -->
<svg version="1.1" id="Layer_1" xmlns="http://www.w3.org/2000/svg" xmlns:xlink="http://www.w3.org/1999/xlink" x="0px" y="0px"
	 viewBox="0 0 512 512" style="enable-background:new 0 0 512 512;" xml:space="preserve">
<style type="text/css">
	.st0{fill:#5E686C;}
	.st1{fill:#3FC6F1;}
</style>
<path class="st0" d="M223.6,505.7c-119.9,0-217.4-97.5-217.4-217.4C6.2,168.5,103.7,71,223.6,71c3.8,0,6.8,3.1,6.8,6.8
	s-3.1,6.8-6.8,6.8C111.2,84.7,19.9,176,19.9,288.4c0,112.3,91.4,203.7,203.7,203.7c112.3,0,203.7-91.4,203.7-203.7
	c0-3.8,3.1-6.8,6.8-6.8s6.8,3.1,6.8,6.8C440.9,408.2,343.4,505.7,223.6,505.7z"/>
<path class="st1" d="M499.1,246.6c-0.1,0-0.2,0-0.3,0H272.1c-3.8,0-6.8-3.1-6.8-6.8V13.1c0-3.8,3.1-6.8,6.8-6.8
	c119.4,0,232.3,112.3,233.5,231.6c0.2,0.6,0.3,1.3,0.3,1.9C506,243.6,502.9,246.6,499.1,246.6z M279,232.9h212.9
	C487.8,124.8,387.2,24.1,279,20V232.9z"/>
</svg>
