<?xml version="1.0" encoding="utf-8"?>
<!-- Generator: Adobe Illustrator 22.0.0, SVG Export Plug-In . SVG Version: 6.00 Build 0)  -->
<svg version="1.1" id="Layer_1" xmlns="http://www.w3.org/2000/svg" xmlns:xlink="http://www.w3.org/1999/xlink" x="0px" y="0px"
	 viewBox="0 0 512 512" style="enable-background:new 0 0 512 512;" xml:space="preserve">
<style type="text/css">
	.st0{fill:#5E686C;}
	.st1{fill:#3FC6F1;}
</style>
<path class="st0" d="M449.1,91.6c-2.5-3-6.9-3.3-9.9-0.8c-3,2.5-3.3,6.9-0.8,9.9c36.4,43,56.5,97.8,56.5,154.3
	c0,131.8-107.2,238.9-239,238.9S17.1,386.8,17.1,255S124.2,16.1,256,16.1c56.7,0,111.6,20.2,154.6,56.8c2.9,2.5,7.4,2.2,9.9-0.8
	c2.5-2.9,2.2-7.4-0.8-9.9C374.2,23.4,316.1,2,256,2C116.5,2,3,115.5,3,255c0,139.5,113.5,253,253,253c139.5,0,253-113.5,253-253
	C509,195.2,487.7,137.1,449.1,91.6z"/>
<path class="st1" d="M256,119.4c-3.9,0-7,3.1-7,7v87c-19.9,3.4-35.1,20.7-35.1,41.6c0,23.3,18.9,42.2,42.2,42.2
	c9.1,0,17.5-2.9,24.4-7.8l96.5,96.5c1.4,1.4,3.2,2.1,5,2.1c1.8,0,3.6-0.7,5-2.1c2.7-2.7,2.7-7.2,0-9.9l-96.5-96.5
	c4.9-6.9,7.8-15.3,7.8-24.4c0-20.9-15.2-38.2-35.1-41.6v-87C263,122.5,259.9,119.4,256,119.4z M284.1,255
	c0,15.5-12.6,28.1-28.1,28.1s-28.1-12.6-28.1-28.1c0-15.5,12.6-28.1,28.1-28.1C271.5,226.9,284.1,239.5,284.1,255z"/>
</svg>
