<?xml version="1.0" encoding="utf-8"?>
<!-- Generator: Adobe Illustrator 22.0.0, SVG Export Plug-In . SVG Version: 6.00 Build 0)  -->
<svg version="1.1" id="Layer_1" xmlns="http://www.w3.org/2000/svg" xmlns:xlink="http://www.w3.org/1999/xlink" x="0px" y="0px"
	 viewBox="0 0 512 512" style="enable-background:new 0 0 512 512;" xml:space="preserve">
<style type="text/css">
	.st0{fill:#5E686C;}
	.st1{fill:#3FC6F1;}
	.st2{fill:none;stroke:#69C299;stroke-linecap:round;stroke-linejoin:round;stroke-miterlimit:10;}
</style>
<path class="st0" d="M78.6,279.3c-0.3,0-0.6,0-0.9-0.1l-63.4-8.1c-3.4-0.4-5.9-3.3-5.9-6.7v-98.2c0-3.7,3-6.7,6.7-6.7h117.5
	c3.7,0,6.7,3,6.7,6.7v89.5c0,3.7-3,6.7-6.7,6.7s-6.7-3-6.7-6.7V173H22v85.5l57.5,7.4c3.7,0.5,6.3,3.9,5.8,7.5
	C84.8,276.8,82,279.3,78.6,279.3z"/>
<path class="st0" d="M132.7,153.2H15.2c-3.7,0-6.7-3-6.7-6.7V48.5c0-3.4,2.5-6.2,5.8-6.7l117.5-16.3c1.9-0.3,3.9,0.3,5.4,1.6
	s2.3,3.1,2.3,5.1v114.2C139.5,150.1,136.5,153.2,132.7,153.2z M22,139.7h104V40L22,54.4V139.7z"/>
<path class="st0" d="M306.5,153.2H152.6c-3.7,0-6.7-3-6.7-6.7V30.7c0-3.4,2.5-6.2,5.8-6.7L305.6,2.7c1.9-0.3,3.9,0.3,5.3,1.6
	c1.5,1.3,2.3,3.1,2.3,5.1v137C313.3,150.1,310.3,153.2,306.5,153.2z M159.3,139.7h140.4V17.2L159.3,36.6V139.7z"/>
<path class="st0" d="M152.6,258c-3.7,0-6.7-3-6.7-6.7v-85c0-3.7,3-6.7,6.7-6.7h153.9c3.7,0,6.7,3,6.7,6.7s-3,6.7-6.7,6.7H159.3v78.3
	C159.3,255,156.3,258,152.6,258z"/>
<path class="st0" d="M241.6,332.4c-3.7,0-6.7-3-6.7-6.7c0-64.1,53.4-103.1,105-103.8c0,0,0.1,0,0.1,0c3.7,0,6.7,3,6.7,6.7
	c0.1,3.7-2.9,6.8-6.7,6.8c-45,0.6-91.6,34.5-91.6,90.3C248.4,329.4,245.4,332.4,241.6,332.4z"/>
<path class="st1" d="M338.7,494.2H128.5c-66.2,0-120-53.8-120-120c0-66.2,53.8-120,120-120c3.7,0,6.7,3,6.7,6.7c0,3.7-3,6.7-6.7,6.7
	C69.8,267.7,22,315.4,22,374.2s47.8,106.5,106.5,106.5h210.2c85.5,0,155-69.6,155-155c0-85.1-68.9-154.4-153.9-155
	c-75.5,0.5-156.3,49.1-156.3,155c0,3.7-3,6.7-6.7,6.7s-6.7-3-6.7-6.7c0-109.3,84-167.2,168-168.5c0.2,0,0.4,0,0.6,0h2.4
	c0.2,0,0.4,0,0.6,0c91.5,1.6,165.5,76.6,165.5,168.5C507.2,418.6,431.6,494.2,338.7,494.2z"/>
<path class="st2" d="M102.1,506.1"/>
</svg>
