<?xml version="1.0" encoding="utf-8"?>
<!-- Generator: Adobe Illustrator 22.0.0, SVG Export Plug-In . SVG Version: 6.00 Build 0)  -->
<svg version="1.1" id="Layer_1" xmlns="http://www.w3.org/2000/svg" xmlns:xlink="http://www.w3.org/1999/xlink" x="0px" y="0px"
	 viewBox="0 0 512 512" style="enable-background:new 0 0 512 512;" xml:space="preserve">
<style type="text/css">
	.st0{fill:#3FC6F1;}
	.st1{fill:#5E686C;}
</style>
<path class="st0" d="M340.7,31.5c-0.2,0-0.4,0-0.6,0h-2.5c-0.2,0-0.4,0-0.6,0c-85.2,1.4-170.5,60.1-170.5,171c0,3.8,3.1,6.8,6.8,6.8
	c3.8,0,6.8-3.1,6.8-6.8c0-107.5,82-156.8,158.6-157.4c86.2,0.6,156.2,71,156.2,157.4c0,86.8-70.6,157.4-157.4,157.4H124.3
	c-59.6,0-108.1-48.5-108.1-108.1c0-59.6,48.5-108.1,108.1-108.1c3.8,0,6.8-3.1,6.8-6.8s-3.1-6.8-6.8-6.8
	C57.1,130,2.5,184.7,2.5,251.8s54.6,121.8,121.8,121.8h213.3c94.3,0,171.1-76.7,171.1-171.1C508.7,109.3,433.6,33.2,340.7,31.5z"/>
<path class="st1" d="M390.6,450.4H282.1c-2.5-9.6-10.1-17.2-19.7-19.7v-35.1c0-3.8-3.1-6.8-6.8-6.8c-3.8,0-6.8,3.1-6.8,6.8v35.1
	c-9.6,2.5-17.2,10.1-19.7,19.7H120.6c-3.8,0-6.8,3.1-6.8,6.8s3.1,6.8,6.8,6.8h108.5c3,11.8,13.8,20.5,26.5,20.5
	c12.7,0,23.5-8.7,26.5-20.5h108.5c3.8,0,6.8-3.1,6.8-6.8S394.4,450.4,390.6,450.4z M255.6,470.9c-7.5,0-13.7-6.1-13.7-13.7
	c0,0,0,0,0,0c0,0,0,0,0,0c0-7.5,6.1-13.7,13.7-13.7c7.6,0,13.7,6.1,13.7,13.7C269.3,464.8,263.1,470.9,255.6,470.9z"/>
<path class="st1" d="M339.8,110.9c3.8,0,6.8-3.1,6.8-6.9c-0.1-3.8-3.5-7.1-6.9-6.8c-54.1,0.7-102,43.5-106.8,96.7l0.1,1.2
	c0.1,2.5,0.2,5,0.2,7.4c0,3.8,3.1,6.8,6.8,6.8c3.8,0,6.8-3.1,6.8-6.8c0-2.6-0.1-5.3-0.2-8.4l-0.2-0.3
	C250.7,148.7,292.6,111.5,339.8,110.9z"/>
</svg>
