<?xml version="1.0" encoding="utf-8"?>
<!-- Generator: Adobe Illustrator 22.0.0, SVG Export Plug-In . SVG Version: 6.00 Build 0)  -->
<svg version="1.1" id="Layer_1" xmlns="http://www.w3.org/2000/svg" xmlns:xlink="http://www.w3.org/1999/xlink" x="0px" y="0px"
	 viewBox="0 0 512 512" style="enable-background:new 0 0 512 512;" xml:space="preserve">
<style type="text/css">
	.st0{fill:#5E686C;}
	.st1{fill:#3FC6F1;}
</style>
<path class="st0" d="M243.5,330.3c-3.7,0-6.6-3-6.6-6.6c0-63.2,52.5-101.6,103.3-102.2c3.5-0.2,6.7,2.9,6.7,6.6
	c0.1,3.7-2.9,6.7-6.6,6.7c-44.3,0.6-90.2,34-90.2,88.9C250.1,327.3,247.2,330.3,243.5,330.3z"/>
<path class="st0" d="M135.8,116.7c-14.6,0-26.5-11.9-26.5-26.5s11.9-26.5,26.5-26.5s26.5,11.9,26.5,26.5S150.5,116.7,135.8,116.7z
	 M135.8,76.9c-7.3,0-13.3,5.9-13.3,13.3s6,13.3,13.3,13.3s13.3-5.9,13.3-13.3S143.1,76.9,135.8,76.9z"/>
<path class="st0" d="M117.7,266.6c-2.5,0-4.9-1.4-6-3.9c-4.9-10.5-7.4-22.5-7.4-34.7c0-39.2,26.3-71.2,58.7-71.2
	c29.9,0,54.9,27.1,58.3,63.1c0.3,3.6-2.3,6.9-6,7.2c-3.8,0.2-6.9-2.3-7.2-6c-2.7-29.1-22.1-51-45.1-51c-25,0-45.4,26-45.4,57.9
	c0,10.3,2.1,20.4,6.2,29.2c1.5,3.3,0.1,7.3-3.2,8.8C119.6,266.4,118.6,266.6,117.7,266.6z"/>
<path class="st0" d="M190,116.7c-14.6,0-26.5-11.9-26.5-26.5s11.9-26.5,26.5-26.5s26.5,11.9,26.5,26.5S204.6,116.7,190,116.7z
	 M190,76.9c-7.3,0-13.3,5.9-13.3,13.3s6,13.3,13.3,13.3s13.3-5.9,13.3-13.3S197.3,76.9,190,76.9z"/>
<path class="st0" d="M162.9,145.9c-1,0-1.9-0.2-2.8-0.6L133,132.4c-3.3-1.6-4.7-5.5-3.1-8.8c1.6-3.3,5.5-4.7,8.8-3.2l24.2,11.5
	l24.3-11.5c3.3-1.6,7.3-0.2,8.8,3.2c1.6,3.3,0.2,7.3-3.2,8.8l-27.1,12.8C164.9,145.6,163.9,145.9,162.9,145.9z"/>
<path class="st0" d="M11.6,267.8c-2.4,0-4.7-1.3-5.9-3.6c-7.3-13.9,8.6-38,37.2-79.5c22.9-33.2,48.8-70.7,48.8-92v-2.7
	c0-39.2,31.9-71.2,71.2-71.2c39.2,0,71.2,31.9,71.2,71.2v3.1c0,19.2,19.3,49.9,40.1,80.2c2.1,3,1.3,7.2-1.7,9.2
	c-3,2.1-7.1,1.3-9.2-1.7c-20.5-29.9-42.4-63.7-42.4-87.7v-3.1c0-31.9-26-57.9-57.9-57.9c-31.9,0-57.9,26-57.9,57.9v2.7
	c0,25.4-26,63.1-51.2,99.5c-16,23.2-40.3,58.3-36.4,65.8c1.7,3.2,0.4,7.3-2.8,9C13.7,267.6,12.7,267.8,11.6,267.8z"/>
<path class="st1" d="M339.1,489.6H132.1C67,489.6,14,436.6,14,371.4c0-65.1,53-118.1,118.1-118.1c3.7,0,6.6,3,6.6,6.6
	s-3,6.6-6.6,6.6c-57.8,0-104.9,47-104.9,104.9c0,57.8,47,104.9,104.9,104.9h206.9c84.2,0,152.6-68.5,152.6-152.6
	c0-83.8-67.8-152-151.5-152.6c-74.3,0.5-153.9,48.3-153.9,152.6c0,3.7-3,6.6-6.6,6.6s-6.6-3-6.6-6.6c0-107.6,82.7-164.6,165.4-165.9
	c0.2,0,0.4,0,0.6,0h2.4c0.2,0,0.4,0,0.6,0c90.1,1.6,162.9,75.4,162.9,165.9C505,415.1,430.5,489.6,339.1,489.6z"/>
</svg>
