<?xml version="1.0" encoding="utf-8"?>
<!-- Generator: Adobe Illustrator 22.0.0, SVG Export Plug-In . SVG Version: 6.00 Build 0)  -->
<svg version="1.1" id="Layer_1" xmlns="http://www.w3.org/2000/svg" xmlns:xlink="http://www.w3.org/1999/xlink" x="0px" y="0px"
	 viewBox="0 0 512 512" style="enable-background:new 0 0 512 512;" xml:space="preserve">
<style type="text/css">
	.st0{fill:none;stroke:#69C299;stroke-linecap:round;stroke-linejoin:round;stroke-miterlimit:10;}
	.st1{fill:#5E686C;}
	.st2{fill:#3FC6F1;}
</style>
<path class="st0" d="M111.6,494.3"/>
<path class="st1" d="M92.1,281.1c-3.6,0-6.6-2.9-6.7-6.6l-0.1-6.2L74,257.1l-45.3-0.3c-2.7,0-5.1-1.7-6.2-4.2L9.1,219.8
	c-1-2.4-0.5-5.3,1.3-7.2l31.5-33.2l0.1-15.8l-31.8-32.3c-1.9-1.9-2.5-4.8-1.4-7.3l13.6-32.6c1-2.4,3.4-4.1,6-4.1l45.7-1.2l11.3-11.2
	l0.3-45.3c0-2.7,1.7-5.1,4.2-6.2l32.7-13.5c2.4-1,5.3-0.5,7.2,1.3l33.2,31.6l15.9,0.1l32.2-31.8c1.9-1.9,4.8-2.4,7.3-1.4l32.6,13.6
	c2.4,1,4.1,3.4,4.1,6l1.2,45.8l11.2,11.2l45.3,0.3c2.7,0,5.1,1.7,6.2,4.2l13.5,32.7c1,2.4,0.5,5.3-1.4,7.2l-31.6,33.1l0,13.9
	c0,3.7-3,6.7-6.7,6.7c0,0,0,0,0,0c-3.7,0-6.7-3-6.7-6.7l0-16.6c0-1.7,0.7-3.4,1.9-4.6l30.4-31.9l-10.1-24.6l-43.6-0.3
	c-1.8,0-3.5-0.7-4.7-2L245,82.7c-1.2-1.2-1.9-2.9-2-4.6l-1.1-44.1l-24.5-10.2l-31,30.6c-1.3,1.2-3.6,1.9-4.8,1.9l-21.3-0.1
	c-1.7,0-3.4-0.7-4.6-1.8l-32-30.4L99.2,34.2l-0.3,43.6c0,1.8-0.7,3.5-2,4.7l-15.1,15c-1.2,1.2-2.8,1.9-4.6,2l-44.1,1.1l-10.2,24.5
	l30.6,31c1.2,1.3,1.9,3,1.9,4.7l-0.1,21.3c0,1.7-0.7,3.4-1.8,4.6l-30.4,32l10.1,24.6l43.6,0.3c1.8,0,3.5,0.7,4.7,2l15.1,15.1
	c1.2,1.2,1.9,2.9,2,4.6l0.2,8.9c0.1,3.7-2.8,6.8-6.6,6.9C92.2,281.1,92.1,281.1,92.1,281.1z"/>
<path class="st1" d="M170.7,232.2c-8,0-15.8-1.6-23.2-4.7c-14.9-6.2-26.4-17.9-32.6-32.8c-6.1-15-6.1-31.4,0.1-46.3
	c9.4-22.6,31.4-37.2,55.9-37.2c8,0,15.8,1.6,23.2,4.7c14.9,6.2,26.5,17.9,32.6,32.8c6.1,15,6.1,31.4-0.1,46.3
	C217.2,217.6,195.2,232.2,170.7,232.2z M170.9,124.7c-19.1,0-36.2,11.4-43.5,28.9c-4.8,11.6-4.9,24.4-0.1,36s13.8,20.7,25.3,25.5
	c5.8,2.4,11.8,3.6,18.1,3.6c19.1,0,36.2-11.3,43.5-28.9c4.8-11.6,4.9-24.4,0.1-36c-4.8-11.6-13.8-20.7-25.4-25.5
	C183.2,125.9,177.1,124.7,170.9,124.7z"/>
<path class="st1" d="M241.6,339.7c-3.7,0-6.7-3-6.7-6.7c0-2.4-0.1-4.9-0.2-7.3l-0.1-1.2c4.7-52.3,51.8-94.3,104.9-95
	c3.5-0.1,6.8,2.9,6.8,6.6c0.1,3.7-2.9,6.8-6.6,6.8c-46.4,0.6-87.6,37.1-91.7,81.5l0.2,0.3c0.1,3,0.2,5.6,0.2,8.2
	C248.3,336.7,245.3,339.7,241.6,339.7z"/>
<path class="st2" d="M337.4,501H127.9c-66,0-119.6-53.7-119.6-119.6c0-66,53.7-119.6,119.6-119.6c3.7,0,6.7,3,6.7,6.7
	c0,3.7-3,6.7-6.7,6.7c-58.6,0-106.2,47.6-106.2,106.2s47.6,106.2,106.2,106.2h209.5c85.2,0,154.6-69.3,154.6-154.6
	c0-84.8-68.7-153.9-153.4-154.6c-75.3,0.5-155.8,49-155.8,154.6c0,3.7-3,6.7-6.7,6.7s-6.7-3-6.7-6.7c0-109,83.8-166.7,167.5-168
	c0.2,0,0.4,0,0.6,0h2.4c0.2,0,0.4,0,0.6,0c91.3,1.6,165,76.4,165,168C505.5,425.7,430.1,501,337.4,501z"/>
</svg>
