<?xml version="1.0" encoding="utf-8"?>
<!-- Generator: Adobe Illustrator 22.0.0, SVG Export Plug-In . SVG Version: 6.00 Build 0)  -->
<svg version="1.1" id="Layer_1" xmlns="http://www.w3.org/2000/svg" xmlns:xlink="http://www.w3.org/1999/xlink" x="0px" y="0px"
	 viewBox="0 0 512 512" style="enable-background:new 0 0 512 512;" xml:space="preserve">
<style type="text/css">
	.st0{fill:#5E686C;}
	.st1{fill:#3FC6F1;}
</style>
<path class="st0" d="M256,505.4C118.4,505.4,6.6,393.5,6.6,256S118.4,6.5,256,6.5c59.2,0,116.5,21.1,161.4,59.3
	c2.8,2.4,3.2,6.7,0.8,9.5c-2.4,2.9-6.7,3.2-9.5,0.8C366.2,40,312,20.1,256,20.1C125.9,20.1,20.1,125.9,20.1,256
	C20.1,386,125.9,491.8,256,491.8C386,491.8,491.9,386,491.9,256c0-55.8-19.8-109.9-55.8-152.3c-2.4-2.8-2.1-7.1,0.8-9.5
	c2.8-2.4,7.1-2.1,9.5,0.8c38.1,44.9,59,102.1,59,161.1C505.4,393.5,393.5,505.4,256,505.4z"/>
<path class="st1" d="M333.5,324.3c-1.7,0-3.5-0.7-4.8-2c-2.6-2.6-2.6-6.9,0-9.6l56.7-56.7l-56.7-56.7c-2.6-2.6-2.6-6.9,0-9.6
	c2.6-2.6,6.9-2.6,9.6,0l61.5,61.5c2.6,2.6,2.6,6.9,0,9.6l-61.5,61.5C337,323.6,335.2,324.3,333.5,324.3z"/>
<path class="st1" d="M178.4,324.3c-1.7,0-3.5-0.7-4.8-2l-61.5-61.5c-2.6-2.6-2.6-6.9,0-9.6l61.5-61.5c2.6-2.6,6.9-2.6,9.6,0
	c2.6,2.6,2.6,6.9,0,9.6L126.5,256l56.7,56.7c2.6,2.6,2.6,6.9,0,9.6C181.9,323.6,180.2,324.3,178.4,324.3z"/>
<path class="st0" d="M222.7,364.3c-0.7,0-1.4-0.1-2.1-0.3c-3.5-1.2-5.5-5-4.3-8.6L284,152.3c1.2-3.5,5.1-5.5,8.6-4.3
	c3.5,1.2,5.5,5,4.3,8.6l-67.7,203.1C228.2,362.5,225.5,364.3,222.7,364.3z"/>
</svg>
