<?xml version="1.0" encoding="utf-8"?>
<!-- Generator: Adobe Illustrator 22.0.0, SVG Export Plug-In . SVG Version: 6.00 Build 0)  -->
<svg version="1.1" id="Layer_1" xmlns="http://www.w3.org/2000/svg" xmlns:xlink="http://www.w3.org/1999/xlink" x="0px" y="0px"
	 viewBox="0 0 512 512" style="enable-background:new 0 0 512 512;" xml:space="preserve">
<style type="text/css">
	.st0{fill:#3FC6F1;}
	.st1{fill:#5E686C;}
</style>
<path class="st0" d="M394.9,283.9c-14.8,0-26.9,12.1-26.9,26.9c0,14.9,12.1,26.9,26.9,26.9s26.9-12.1,26.9-26.9
	C421.8,296,409.7,283.9,394.9,283.9z M394.9,324.3c-7.4,0-13.5-6-13.5-13.5c0-7.4,6-13.4,13.5-13.4s13.5,6,13.5,13.4
	C408.4,318.3,402.3,324.3,394.9,324.3z"/>
<path class="st1" d="M472.7,216.6H39.3C21.5,216.6,7,230,7,246.4v128.8c0,16.4,14.5,29.8,32.4,29.8h433.3
	c17.8,0,32.3-13.4,32.3-29.8V246.4C505,230,490.5,216.6,472.7,216.6z M491.5,375.2c0,9-8.5,16.4-18.9,16.4H39.3
	c-10.4,0-18.9-7.3-18.9-16.4V246.4c0-9,8.5-16.4,18.9-16.4h433.3c10.4,0,18.9,7.3,18.9,16.4V375.2z"/>
<path class="st0" d="M394.9,74.6c-14.8,0-26.9,12.1-26.9,26.9c0,14.9,12.1,26.9,26.9,26.9s26.9-12.1,26.9-26.9
	C421.8,86.6,409.7,74.6,394.9,74.6z M394.9,115c-7.4,0-13.5-6.1-13.5-13.5c0-7.4,6-13.4,13.5-13.4s13.5,6,13.5,13.4
	C408.4,108.9,402.3,115,394.9,115z"/>
<path class="st1" d="M472.7,7.3H39.3C21.5,7.3,7,20.6,7,37.1v128.8c0,16.4,14.5,29.8,32.4,29.8h433.3c17.8,0,32.3-13.4,32.3-29.8
	V37.1C505,20.6,490.5,7.3,472.7,7.3z M491.5,165.9c0,9-8.5,16.4-18.9,16.4H39.3c-10.4,0-18.9-7.3-18.9-16.4V37.1
	c0-9,8.5-16.4,18.9-16.4h433.3c10.4,0,18.9,7.3,18.9,16.4V165.9z"/>
<path class="st1" d="M415.8,476.8H282.1c-2.4-9.5-9.9-16.9-19.3-19.4v-30c0-3.7-3-6.7-6.7-6.7s-6.7,3-6.7,6.7v30
	c-9.4,2.4-16.9,9.9-19.3,19.4H96.2c-3.7,0-6.7,3-6.7,6.7c0,3.7,3,6.7,6.7,6.7h133.7c3,11.6,13.6,20.2,26.1,20.2
	c12.5,0,23.1-8.6,26.1-20.2h133.7c3.7,0,6.7-3,6.7-6.7C422.5,479.8,419.5,476.8,415.8,476.8z M256,497c-7.4,0-13.5-6-13.5-13.5
	c0-7.4,6-13.5,13.5-13.5c7.4,0,13.5,6,13.5,13.5C269.4,490.9,263.4,497,256,497z"/>
</svg>
