<?xml version="1.0" encoding="utf-8"?>
<!-- Generator: Adobe Illustrator 22.0.0, SVG Export Plug-In . SVG Version: 6.00 Build 0)  -->
<svg version="1.1" id="Layer_1" xmlns="http://www.w3.org/2000/svg" xmlns:xlink="http://www.w3.org/1999/xlink" x="0px" y="0px"
	 viewBox="0 0 512 512" style="enable-background:new 0 0 512 512;" xml:space="preserve">
<style type="text/css">
	.st0{fill:#5E686C;}
	.st1{fill:#3FC6F1;}
</style>
<path class="st0" d="M501.4,176.2h-158c-3.8,0-6.9-3.1-6.9-6.9c0-3.8,3.1-6.9,6.9-6.9h158c3.8,0,6.9,3.1,6.9,6.9
	C508.3,173.1,505.2,176.2,501.4,176.2z"/>
<path class="st1" d="M343.4,176.2H167.9c-3.8,0-6.9-3.1-6.9-6.9c0-3.8,3.1-6.9,6.9-6.9h175.5c3.8,0,6.9,3.1,6.9,6.9
	C350.3,173.1,347.2,176.2,343.4,176.2z"/>
<path class="st0" d="M167.9,176.2H9.9c-3.8,0-6.9-3.1-6.9-6.9c0-3.8,3.1-6.9,6.9-6.9h158c3.8,0,6.9,3.1,6.9,6.9
	C174.7,173.1,171.7,176.2,167.9,176.2z"/>
<path class="st0" d="M167.9,176.2c-2.5,0-4.9-1.4-6.1-3.8L91.5,32c-1.7-3.4-0.3-7.5,3.1-9.2c3.4-1.7,7.5-0.3,9.2,3.1L174,166.3
	c1.7,3.4,0.3,7.5-3.1,9.2C170,175.9,168.9,176.2,167.9,176.2z"/>
<path class="st0" d="M343.4,176.2c-1,0-2.1-0.2-3.1-0.7c-3.4-1.7-4.8-5.8-3.1-9.2l70.2-140.4c1.7-3.4,5.8-4.7,9.2-3.1
	c3.4,1.7,4.8,5.8,3.1,9.2l-70.2,140.4C348.4,174.8,345.9,176.2,343.4,176.2z"/>
<path class="st0" d="M255.7,492.1c-2.1,0-4.1-1-5.4-2.6L4.5,173.5c-1.8-2.3-1.9-5.4-0.4-7.8L91.9,25.3c1.3-2,3.4-3.2,5.8-3.2h316
	c2.4,0,4.6,1.2,5.8,3.2l87.8,140.4c1.5,2.4,1.4,5.6-0.4,7.8l-245.8,316C259.8,491.2,257.8,492.1,255.7,492.1z M18.2,168.9
	l237.4,305.2l237.4-305.2L409.8,35.7H101.5L18.2,168.9z"/>
<path class="st1" d="M255.7,492.1c-0.6,0-1.2-0.1-1.8-0.2c-3.6-1-5.8-4.8-4.8-8.4l87-313.1L249.8,32.5c-2-3.2-1-7.4,2.2-9.4
	c3.2-2,7.4-1,9.4,2.2l87.8,140.4c1,1.6,1.3,3.6,0.8,5.5l-87.8,316C261.4,490.2,258.7,492.1,255.7,492.1z"/>
<path class="st1" d="M255.7,492.1c-3,0-5.8-2-6.6-5l-87.8-316c-0.5-1.9-0.2-3.8,0.8-5.5l87.8-140.4c2-3.2,6.3-4.2,9.4-2.2
	c3.2,2,4.2,6.2,2.2,9.4l-86.2,137.9l87,313.1c1,3.6-1.1,7.4-4.8,8.4C256.9,492.1,256.3,492.1,255.7,492.1z"/>
</svg>
