<?xml version="1.0" encoding="utf-8"?>
<!-- Generator: Adobe Illustrator 22.0.0, SVG Export Plug-In . SVG Version: 6.00 Build 0)  -->
<svg version="1.1" id="Layer_1" xmlns="http://www.w3.org/2000/svg" xmlns:xlink="http://www.w3.org/1999/xlink" x="0px" y="0px"
	 viewBox="0 0 512 512" style="enable-background:new 0 0 512 512;" xml:space="preserve">
<style type="text/css">
	.st0{fill:#3FC6F1;}
	.st1{fill:#5E686C;}
</style>
<path class="st0" d="M168.1,355c-22.9,0-41.4,18.6-41.4,41.4s18.6,41.4,41.4,41.4c22.9,0,41.4-18.6,41.4-41.4
	C209.6,373.6,191,355,168.1,355z M168.1,424.1c-15.2,0-27.6-12.4-27.6-27.6s12.4-27.6,27.6-27.6c15.2,0,27.6,12.4,27.6,27.6
	C195.7,411.7,183.4,424.1,168.1,424.1z"/>
<path class="st0" d="M361.2,370.9h-96.7c-3.8,0-6.9,3.1-6.9,6.9c0,3.8,3.1,6.9,6.9,6.9h96.7c3.8,0,6.9-3.1,6.9-6.9
	C368.1,374,365.1,370.9,361.2,370.9z"/>
<path class="st0" d="M361.2,425.8h-96.7c-3.8,0-6.9,3.1-6.9,6.9c0,3.8,3.1,6.9,6.9,6.9h96.7c3.8,0,6.9-3.1,6.9-6.9
	C368.1,428.8,365.1,425.8,361.2,425.8z"/>
<path class="st1" d="M446.9,123.4c0-2.5-1.4-4.8-3.4-6L330.9,4.9c-0.2-0.2-0.4-0.3-0.5-0.5c0,0,0,0,0,0c-0.2-0.1-0.3-0.3-0.5-0.4
	c0,0-0.1-0.1-0.1-0.1c-0.1-0.1-0.3-0.2-0.4-0.3c-0.1,0-0.1-0.1-0.2-0.1c-0.1-0.1-0.3-0.1-0.4-0.2c-0.1,0-0.1,0-0.2-0.1
	c-0.1-0.1-0.3-0.1-0.4-0.2c-0.1,0-0.1,0-0.2-0.1c-0.1,0-0.3-0.1-0.4-0.1c-0.1,0-0.2,0-0.3,0c-0.1,0-0.3,0-0.4-0.1
	c-0.1,0-0.3,0-0.4,0c-0.1,0-0.1,0-0.2,0c0,0,0,0,0,0l0,0H71.8c-3.8,0-6.9,3.1-6.9,6.9v495.3c0,3.8,3.1,6.9,6.9,6.9H440
	c3.8,0,6.9-3.1,6.9-6.9L446.9,123.4C446.9,123.4,446.9,123.4,446.9,123.4z M332.9,26.5l90,90h-90V26.5z M78.7,498.2V16.7h240.4
	v106.7c0,3.8,3.1,6.9,6.9,6.9h107v367.9L78.7,498.2L78.7,498.2z"/>
</svg>
