<?xml version="1.0" encoding="utf-8"?>
<!-- Generator: Adobe Illustrator 22.0.0, SVG Export Plug-In . SVG Version: 6.00 Build 0)  -->
<svg version="1.1" id="Layer_1" xmlns="http://www.w3.org/2000/svg" xmlns:xlink="http://www.w3.org/1999/xlink" x="0px" y="0px"
	 viewBox="0 0 512 512" style="enable-background:new 0 0 512 512;" xml:space="preserve">
<style type="text/css">
	.st0{fill:#5E686C;}
	.st1{fill:#3FC6F1;}
</style>
<path class="st0" d="M474.2,509.7H38.3c-16.4,0-29.7-13.3-29.7-29.7V193.2c0-16.3,13.3-29.7,29.7-29.7c3.8,0,6.8,3,6.8,6.8
	s-3,6.8-6.8,6.8c-8.9,0-16.1,7.2-16.1,16v286.9c0,8.9,7.2,16.1,16.1,16.1h435.9c8.9,0,16.1-7.2,16.1-16.1V193.2
	c0-8.8-7.2-16-16.1-16c-3.8,0-6.8-3-6.8-6.8s3-6.8,6.8-6.8c16.4,0,29.7,13.3,29.7,29.7v286.9C503.9,496.4,490.5,509.7,474.2,509.7z"
	/>
<path class="st0" d="M26.9,498.3c-1.5,0-2.9-0.5-4.2-1.4c-3-2.3-3.5-6.6-1.2-9.5l160.6-206.5c2.3-2.9,6.6-3.5,9.5-1.2
	c3,2.3,3.5,6.6,1.2,9.5L32.2,495.7C30.9,497.4,28.9,498.3,26.9,498.3z"/>
<path class="st0" d="M485.6,498.3c-2,0-4-0.9-5.4-2.6L319.7,289.2c-2.3-3-1.8-7.2,1.2-9.5c2.9-2.3,7.2-1.8,9.5,1.2L491,487.3
	c2.3,3,1.8,7.2-1.2,9.5C488.5,497.8,487.1,498.3,485.6,498.3z"/>
<path class="st1" d="M256.2,337.7c-1.4,0-2.8-0.4-4-1.3L34.3,175.8c-3-2.2-3.7-6.5-1.4-9.5c2.2-3,6.5-3.7,9.5-1.4l213.9,157.6
	l213.9-157.6c3-2.2,7.3-1.6,9.5,1.4c2.2,3,1.6,7.3-1.4,9.5L260.3,336.4C259.1,337.3,257.6,337.7,256.2,337.7z"/>
<path class="st1" d="M474.1,177.2c-1.4,0-2.8-0.4-4-1.3L256.2,18.2L42.4,175.8c-3,2.2-7.3,1.6-9.5-1.4c-2.2-3-1.6-7.3,1.4-9.5
	L252.2,4.3c2.4-1.8,5.7-1.8,8.1,0l217.9,160.6c3,2.2,3.7,6.5,1.4,9.5C478.3,176.2,476.2,177.2,474.1,177.2z"/>
</svg>
