<?xml version="1.0" encoding="utf-8"?>
<!-- Generator: Adobe Illustrator 22.0.0, SVG Export Plug-In . SVG Version: 6.00 Build 0)  -->
<svg version="1.1" id="Layer_1" xmlns="http://www.w3.org/2000/svg" xmlns:xlink="http://www.w3.org/1999/xlink" x="0px" y="0px"
	 viewBox="0 0 512 512" style="enable-background:new 0 0 512 512;" xml:space="preserve">
<style type="text/css">
	.st0{fill:none;stroke:#69C299;stroke-linecap:round;stroke-linejoin:round;stroke-miterlimit:10;}
	.st1{fill:#5E686C;}
	.st2{fill:#3FC6F1;}
</style>
<path class="st0" d="M49,283.5"/>
<path class="st1" d="M240.6,101.2c-14.6,0-26.5-11.9-26.5-26.5c0-14.6,11.9-26.5,26.5-26.5c14.6,0,26.5,11.9,26.5,26.5
	C267.1,89.3,255.2,101.2,240.6,101.2z M240.6,61.5c-7.3,0-13.2,5.9-13.2,13.2c0,7.3,5.9,13.2,13.2,13.2c7.3,0,13.2-5.9,13.2-13.2
	C253.8,67.4,247.9,61.5,240.6,61.5z"/>
<path class="st1" d="M312.7,250.6c-0.9,0-1.9-0.2-2.8-0.6c-3.3-1.5-4.8-5.5-3.2-8.8c4.1-8.8,6.2-18.8,6.2-29
	c0-31.8-20.3-57.7-45.3-57.7c-25,0-45.3,25.9-45.3,57.7c0,10.2,2.1,20.3,6.2,29c1.5,3.3,0.1,7.2-3.2,8.8c-3.3,1.5-7.2,0.1-8.8-3.2
	c-4.8-10.5-7.4-22.5-7.4-34.6c0-39.1,26.2-71,58.5-71s58.5,31.8,58.5,71c0,12.1-2.6,24.1-7.4,34.6
	C317.6,249.2,315.2,250.6,312.7,250.6z"/>
<path class="st1" d="M294.6,101.2c-14.6,0-26.5-11.9-26.5-26.5c0-14.6,11.9-26.5,26.5-26.5c14.6,0,26.5,11.9,26.5,26.5
	C321.1,89.3,309.2,101.2,294.6,101.2z M294.6,61.5c-7.3,0-13.2,5.9-13.2,13.2c0,7.3,5.9,13.2,13.2,13.2s13.2-5.9,13.2-13.2
	C307.8,67.4,301.9,61.5,294.6,61.5z"/>
<path class="st1" d="M267.6,130.2c-1,0-1.9-0.2-2.8-0.6l-27-12.8c-3.3-1.6-4.7-5.5-3.1-8.8c1.6-3.3,5.5-4.7,8.8-3.1l24.2,11.5
	l24.2-11.5c3.3-1.6,7.2-0.2,8.8,3.1c1.6,3.3,0.2,7.2-3.1,8.8l-27,12.8C269.5,130,268.6,130.2,267.6,130.2z"/>
<path class="st1" d="M116.8,251.9c-2.4,0-4.7-1.3-5.9-3.6c-7.2-13.8,8.6-37.9,37.1-79.2c22.8-33.1,48.7-70.5,48.7-91.7v-2.7
	c0-39.1,31.8-71,70.9-71c39.1,0,71,31.8,71,71v3.1c0,22.5,25.9,59.8,48.8,92.7c27.4,39.4,42.5,62.3,36.2,76.3
	c-1.5,3.3-5.4,4.8-8.8,3.3c-3.3-1.5-4.8-5.4-3.3-8.8c3.5-7.8-18.8-39.8-35-63.2c-25.2-36.2-51.2-73.6-51.2-100.2v-3.1
	c0-31.8-25.9-57.7-57.7-57.7c-31.8,0-57.7,25.9-57.7,57.7v2.7c0,25.3-25.9,62.9-51,99.2c-16,23.2-40.1,58.1-36.2,65.6
	c1.7,3.2,0.4,7.2-2.8,8.9C118.8,251.6,117.8,251.9,116.8,251.9z"/>
<path class="st1" d="M255.7,509c-14.6,0-26.5-11.9-26.5-26.5c0-14.6,11.9-26.4,26.5-26.4c14.6,0,26.5,11.9,26.5,26.4
	C282.1,497.1,270.3,509,255.7,509z M255.7,469.3c-7.3,0-13.2,5.9-13.2,13.2c0,7.3,5.9,13.3,13.2,13.3c7.3,0,13.2-5.9,13.2-13.3
	C268.9,475.2,263,469.3,255.7,469.3z"/>
<path class="st1" d="M255.7,469.3c-3.7,0-6.6-3-6.6-6.6v-39.7c0-3.7,3-6.6,6.6-6.6s6.6,3,6.6,6.6v39.7
	C262.3,466.3,259.3,469.3,255.7,469.3z"/>
<path class="st1" d="M235.8,489.1H125.1c-3.7,0-6.6-3-6.6-6.6c0-3.7,3-6.6,6.6-6.6h110.7c3.7,0,6.6,3,6.6,6.6
	C242.4,486.2,239.5,489.1,235.8,489.1z"/>
<path class="st1" d="M386.2,489.1H275.5c-3.7,0-6.6-3-6.6-6.6c0-3.7,3-6.6,6.6-6.6h110.7c3.7,0,6.6,3,6.6,6.6
	C392.9,486.2,389.9,489.1,386.2,489.1z"/>
<path class="st2" d="M375.2,347.7c-14.6,0-26.5-11.9-26.5-26.5c0-14.6,11.9-26.5,26.5-26.5c14.6,0,26.5,11.9,26.5,26.5
	C401.6,335.8,389.7,347.7,375.2,347.7z M375.2,308c-7.3,0-13.2,5.9-13.2,13.2c0,7.3,5.9,13.2,13.2,13.2s13.2-5.9,13.2-13.2
	C388.4,313.9,382.4,308,375.2,308z"/>
<path class="st2" d="M442,403.1H69.3c-15.8,0-28.7-11.9-28.7-26.5V265.8c0-14.6,12.9-26.5,28.7-26.5H442c15.8,0,28.6,11.9,28.6,26.5
	v110.8C470.7,391.2,457.8,403.1,442,403.1z M69.3,252.6c-8.5,0-15.4,5.9-15.4,13.2v110.8c0,7.3,6.9,13.3,15.4,13.3H442
	c8.5,0,15.4-5.9,15.4-13.3V265.8c0-7.3-6.9-13.2-15.4-13.2H69.3z"/>
</svg>
