<?xml version="1.0" encoding="utf-8"?>
<!-- Generator: Adobe Illustrator 22.0.0, SVG Export Plug-In . SVG Version: 6.00 Build 0)  -->
<svg version="1.1" id="Layer_1" xmlns="http://www.w3.org/2000/svg" xmlns:xlink="http://www.w3.org/1999/xlink" x="0px" y="0px"
	 viewBox="0 0 512 512" style="enable-background:new 0 0 512 512;" xml:space="preserve">
<style type="text/css">
	.st0{fill:#5E686C;}
	.st1{fill:#3FC6F1;}
</style>
<path class="st0" d="M205.1,146.2c-3.8,0-7-2.9-7.3-6.8c-3-40.9-41.9-72.9-88.7-72.9c-4.1,0-7.3-3.3-7.3-7.3s3.3-7.3,7.3-7.3
	c54.4,0,99.8,38,103.3,86.5c0.3,4-2.7,7.6-6.8,7.9C205.5,146.2,205.3,146.2,205.1,146.2z"/>
<path class="st0" d="M54.5,239.8c-1.7,0-3.6-0.4-5.2-1.3c-3.3-1.8-5.3-5.2-5.4-8.9l-2.4-15c-22.8-17.6-35.8-43-35.8-70.1
	c0-51.1,46.5-92.6,103.6-92.6c4.1,0,7.3,3.3,7.3,7.3c0,4.1-3.3,7.3-7.3,7.3c-49,0-88.9,34.9-88.9,77.9c0,23.3,11.8,45.1,32.2,60
	c1.6,1.1,2.6,2.9,2.9,4.8l2.2,14l14-6c1.7-0.7,3.5-0.8,5.3-0.2c17.1,5.8,36.2,6.9,53.8,3c3.9-0.9,7.9,1.6,8.8,5.6
	c0.9,4-1.6,7.9-5.6,8.8c-19.2,4.2-40.1,3.4-59-2.5l-16.1,6.9C57.6,239.4,56.1,239.8,54.5,239.8z"/>
<path class="st1" d="M419.5,460.7c-2.4,0-4.8-0.7-6.9-1.9l-33.3-14.2c-21.8,7.1-44.6,10.7-67.8,10.7c-108.3,0-196.5-78.5-196.5-175
	s88.1-175,196.5-175c108.4,0,196.5,78.5,196.5,175c0,51.8-25.4,100.5-69.9,133.9l-5.4,34.3C432.7,454.8,426.8,460.7,419.5,460.7z
	 M379.7,429.4c1,0,2,0.2,2.9,0.6l35.9,15.4l5.6-36.4c0.3-1.9,1.4-3.7,2.9-4.8c42.2-30.6,66.3-75.8,66.3-123.8
	c0-88.4-81.6-160.3-181.8-160.3c-100.2,0-181.8,71.9-181.8,160.3s81.6,160.3,181.8,160.3c22.6,0,44.7-3.7,65.7-10.8
	C378.1,429.5,378.9,429.4,379.7,429.4z"/>
<path class="st0" d="M393,239.8H221.3c-4.1,0-7.3-3.3-7.3-7.3s3.3-7.3,7.3-7.3H393c4.1,0,7.3,3.3,7.3,7.3S397.1,239.8,393,239.8z"/>
<path class="st0" d="M393,290.9H221.3c-4.1,0-7.3-3.3-7.3-7.3s3.3-7.3,7.3-7.3H393c4.1,0,7.3,3.3,7.3,7.3S397.1,290.9,393,290.9z"/>
<path class="st0" d="M393,341H221.3c-4.1,0-7.3-3.3-7.3-7.3c0-4.1,3.3-7.3,7.3-7.3H393c4.1,0,7.3,3.3,7.3,7.3
	C400.4,337.7,397.1,341,393,341z"/>
</svg>
