<?xml version="1.0" encoding="utf-8"?>
<!-- Generator: Adobe Illustrator 22.0.0, SVG Export Plug-In . SVG Version: 6.00 Build 0)  -->
<svg version="1.1" id="Layer_1" xmlns="http://www.w3.org/2000/svg" xmlns:xlink="http://www.w3.org/1999/xlink" x="0px" y="0px"
	 viewBox="0 0 512 512" style="enable-background:new 0 0 512 512;" xml:space="preserve">
<style type="text/css">
	.st0{fill:#3FC6F1;}
	.st1{fill:#69C299;}
	.st2{fill:none;stroke:#69C299;stroke-linecap:round;stroke-linejoin:round;stroke-miterlimit:10;}
	.st3{fill:#5E686C;}
</style>
<path class="st0" d="M410.9,293.8c-14.3,0-25.9,11.6-25.9,25.8c0,14.3,11.6,25.9,25.9,25.9s25.9-11.6,25.9-25.9
	C436.8,305.4,425.2,293.8,410.9,293.8z M410.9,332.6c-7.1,0-12.9-5.8-12.9-13c0-7.1,5.8-12.9,12.9-12.9s12.9,5.8,12.9,12.9
	C423.8,326.8,418,332.6,410.9,332.6z"/>
<path class="st0" d="M471.5,245.1h-155c-1.7-5.8-5-11-9.6-15.1c-1.7-1.6-2.3-4-1.4-6.2c0.8-1.8,2.9-3.3,4.5-3.4l2.9,0.1
	c16.9,0,31.1-12.7,33.1-29.6c1.5-12.5,1.5-25.2,0.1-37.8c-2.1-18.6-19.2-29.7-34.5-29.7c-2.4,0-4.6-1.3-5.4-3.3
	c-0.9-2.1-0.3-4.7,1.4-6.2c12.9-11.8,14.5-31.7,3.7-45.3c-7.8-9.9-16.7-18.9-26.4-26.6c-13.3-10.6-34.3-9-45.8,3.7
	c-0.6,0.7-2.5,1.6-4.6,1.6c-0.8,0-1.3-0.1-1.5-0.2c-2.1-0.9-3.5-3.1-3.4-5.4c1.1-17.7-11.9-33.2-29.5-35.2
	c-12.3-1.4-25.1-1.5-37.4-0.1c-17.3,1.9-30.3,17-29.8,34.4c0.1,2.4-1.3,4.6-3.3,5.4c-0.3,0.1-0.8,0.2-1.4,0.2c-2.1,0-4.1-1-4.8-1.7
	c-11.2-12.4-31.7-14.3-45.4-3.8c-10,7.8-19,16.8-26.9,26.6c-11.1,13.8-9.5,33.8,3.6,45.7c1.7,1.6,2.3,4.1,1.5,6.2
	c-0.8,2-3.8,3.3-7.3,3.4c-17.2,0-31.2,12.4-33.2,29.5c-1.5,12.4-1.5,25.1-0.1,37.9c2.2,19.3,19.9,29.7,35.4,29.7
	c1.8,0,3.7,1.5,4.5,3.5c0.9,2.1,0.2,4.5-1.5,6.2c-12.8,11.8-14.4,31.7-3.6,45.2c7.7,9.8,16.6,18.8,26.3,26.7
	c5.9,4.8,13.4,7.4,20.9,7.4c3.3,0,6.7-0.5,9.8-1.5v62.7c0,13.5,11.9,24.5,26.4,24.5h337.5c14.5,0,26.4-11,26.4-24.5V269.5
	C497.9,256,486,245.1,471.5,245.1z M84.8,291.2c-9-7.2-17.2-15.5-24.3-24.6c-6.6-8.3-5.6-20.5,2.2-27.7c5.7-5.3,7.6-13.6,4.7-20.6
	c-2.8-6.9-9.5-11.5-16.5-11.5c-9.9,0-21.2-6.4-22.5-18.2c-1.3-11.7-1.3-23.5,0.1-34.9c1.3-10.5,9.9-18.1,20.4-18.1
	c8.9,0,16.3-4.3,19.3-11.3c3-7.2,1.1-15.5-4.7-20.7c-8-7.3-9-19.6-2.2-28.1c7.2-9,15.6-17.3,24.7-24.5c8.5-6.5,21-5.3,27.9,2.3
	c4.6,5.1,14.2,7.4,20.7,4.7c7.1-2.9,11.6-10.1,11.4-17.8c-0.4-10.7,7.7-19.9,18.3-21.1c11.4-1.3,23.2-1.2,34.5,0.1
	c10.8,1.3,18.8,10.7,18.1,21.6c-0.4,7.8,4.1,15,11.3,18c2.4,1,4.8,1.2,6.5,1.2c5.6,0,11-2.3,14.3-5.9c7-7.7,19.9-8.8,28.1-2.3
	c8.9,7.1,17.1,15.4,24.3,24.6c6.6,8.4,5.6,20.6-2.3,27.8c-5.7,5.2-7.6,13.5-4.7,20.7c2.9,6.9,9.7,11.3,17.4,11.3
	c9.6,0,20.4,6.8,21.7,18.2c1.3,11.6,1.3,23.4-0.1,34.9c-1.2,10.3-9.9,18.1-20.2,18.1l-2.8-0.1c-7,0.1-13.9,4.7-16.6,11.3
	c-3,7.2-1.2,15.6,4.6,20.8c1.8,1.6,3.2,3.5,4.3,5.5H133.9c-14.6,0-26.4,11-26.4,24.5v23.6C100.4,296.9,91.1,296.2,84.8,291.2z
	 M484.9,369.9c0,6.4-6,11.5-13.5,11.5H133.9c-7.4,0-13.5-5.2-13.5-11.5V269.5c0-6.4,6.1-11.5,13.5-11.5v0h337.5
	c7.4,0,13.5,5.2,13.5,11.5V369.9z"/>
<path class="st1" d="M180.8,229.5c26.8,0,48.6-21.8,48.6-48.6s-21.8-48.6-48.6-48.6c-26.8,0-48.6,21.8-48.6,48.6
	S154.1,229.5,180.8,229.5z M180.8,145.2c19.7,0,35.6,16,35.6,35.7s-16,35.7-35.6,35.7c-19.7,0-35.6-16-35.6-35.7
	S161.2,145.2,180.8,145.2z"/>
<path class="st1" d="M433.7,473.7H331.1c-2.3-9.1-9.5-16.2-18.6-18.6v-33.1c0-3.6-2.9-6.5-6.5-6.5s-6.5,2.9-6.5,6.5v33.1
	c-9.1,2.3-16.2,9.5-18.6,18.6H178.5c-3.6,0-6.5,2.9-6.5,6.5s2.9,6.5,6.5,6.5H281c2.9,11.1,13,19.4,25,19.4s22.2-8.3,25-19.4h102.6
	c3.6,0,6.5-2.9,6.5-6.5S437.3,473.7,433.7,473.7z M306.1,493.1c-7.1,0-12.9-5.8-12.9-12.9c0-7.1,5.8-12.9,12.9-12.9
	c7.1,0,12.9,5.8,12.9,12.9c0,0,0,0,0,0c0,0,0,0,0,0C319,487.3,313.2,493.1,306.1,493.1z"/>
<path class="st2" d="M116.3,284.9"/>
<path class="st3" d="M98.5,307.9c-7.5,0-15-2.6-20.9-7.3c-9.7-7.8-18.6-16.8-26.3-26.6c-10.7-13.5-9.1-33.3,3.6-45.1
	c1.7-1.6,2.4-4.1,1.5-6.1c-0.8-2-2.8-3.4-4.5-3.4c-15.5,0-33.1-10.4-35.3-29.6c-1.4-12.7-1.4-25.4,0.1-37.7
	c2.1-17,16-29.4,33.1-29.4c3.5,0,6.5-1.3,7.3-3.3c0.9-2.1,0.3-4.6-1.4-6.1c-13.1-11.9-14.6-31.9-3.6-45.6C60,57.7,69,48.8,79,41
	c13.7-10.5,34-8.6,45.2,3.8c0.6,0.7,2.6,1.7,4.8,1.7c0.7,0,1.2-0.1,1.4-0.2c2.1-0.8,3.4-3,3.3-5.4c-0.6-17.3,12.5-32.4,29.7-34.3
	c12.3-1.4,25-1.3,37.3,0.1c17.6,2.1,30.5,17.5,29.4,35.1c-0.1,2.3,1.3,4.5,3.4,5.4c0.1,0,0.6,0.2,1.4,0.2c2.1,0,4-0.9,4.6-1.6
	c11.5-12.7,32.4-14.3,45.6-3.7c9.7,7.8,18.5,16.7,26.3,26.6c10.8,13.6,9.2,33.4-3.7,45.2c-1.7,1.6-2.3,4.1-1.4,6.2
	c0.8,2,2.9,3.3,5.4,3.3c15.3,0,32.3,11.1,34.4,29.6c1.4,12.5,1.4,25.2-0.1,37.7c-2,16.8-16.1,29.5-33,29.5l-2.9-0.1
	c-1.6,0-3.8,1.5-4.5,3.4c-0.9,2.1-0.3,4.6,1.4,6.2c6,5.4,9.8,12.8,10.7,20.8c0.4,3.5-2.1,6.7-5.6,7.2c-3.5,0.4-6.7-2.1-7.2-5.6
	c-0.6-4.9-2.9-9.4-6.6-12.7c-5.8-5.2-7.7-13.5-4.6-20.7c2.7-6.5,9.6-11.2,16.6-11.2l2.8,0.1c10.3,0,19-7.8,20.2-18.1
	c1.3-11.5,1.4-23.2,0.1-34.8c-1.3-11.3-12-18.1-21.6-18.1c-7.7,0-14.5-4.4-17.3-11.3c-2.9-7.1-1-15.4,4.7-20.6
	c7.9-7.2,8.9-19.4,2.3-27.7c-7.2-9.1-15.3-17.4-24.2-24.5c-8.1-6.5-21-5.4-28,2.3c-3.2,3.6-8.6,5.8-14.2,5.8c-1.6,0-4.1-0.2-6.5-1.2
	c-7.1-3-11.6-10.2-11.2-18c0.7-10.8-7.3-20.3-18-21.6c-11.3-1.3-23-1.3-34.4-0.1c-10.6,1.2-18.6,10.4-18.2,21
	c0.3,7.7-4.3,14.9-11.3,17.8c-6.5,2.7-16,0.4-20.6-4.7c-6.8-7.6-19.3-8.7-27.8-2.3c-9.1,7.2-17.4,15.4-24.6,24.4
	c-6.8,8.4-5.8,20.7,2.2,28c5.8,5.2,7.7,13.5,4.7,20.7c-2.9,6.9-10.3,11.2-19.2,11.2c-10.5,0-19.1,7.6-20.3,18.1
	c-1.4,11.3-1.4,23-0.1,34.8c1.3,11.8,12.6,18.1,22.5,18.1c7,0,13.7,4.6,16.5,11.4c2.9,7,1,15.3-4.7,20.5c-7.8,7.2-8.8,19.3-2.3,27.6
	c7.1,9.1,15.2,17.3,24.2,24.5c7.1,5.7,18,5.8,25.2,0.3c2.8-2.2,6.9-1.6,9,1.2c2.2,2.8,1.6,6.9-1.2,9
	C112.9,305.5,105.8,307.9,98.5,307.9z"/>
<path class="st3" d="M181.4,229c-26.7,0-48.4-21.7-48.4-48.4s21.7-48.4,48.4-48.4s48.4,21.7,48.4,48.4S208.1,229,181.4,229z
	 M181.4,145c-19.6,0-35.5,15.9-35.5,35.5c0,19.6,15.9,35.5,35.5,35.5s35.5-15.9,35.5-35.5C216.9,161,201,145,181.4,145z"/>
<path class="st3" d="M306.3,504.6c-14.2,0-25.8-11.6-25.8-25.8c0-14.2,11.6-25.8,25.8-25.8c14.2,0,25.8,11.6,25.8,25.8
	C332,493,320.5,504.6,306.3,504.6z M306.3,465.9c-7.1,0-12.9,5.8-12.9,12.9c0,7.1,5.8,12.9,12.9,12.9c7.1,0,12.9-5.8,12.9-12.9
	C319.2,471.7,313.4,465.9,306.3,465.9z"/>
<path class="st3" d="M306.3,465.9c-3.6,0-6.4-2.9-6.4-6.4v-38.7c0-3.6,2.9-6.4,6.4-6.4s6.4,2.9,6.4,6.4v38.7
	C312.7,463.1,309.8,465.9,306.3,465.9z"/>
<path class="st3" d="M286.9,485.3H179.1c-3.6,0-6.4-2.9-6.4-6.4c0-3.6,2.9-6.4,6.4-6.4h107.9c3.6,0,6.4,2.9,6.4,6.4
	C293.4,482.4,290.5,485.3,286.9,485.3z"/>
<path class="st3" d="M433.5,485.3H325.6c-3.6,0-6.4-2.9-6.4-6.4c0-3.6,2.9-6.4,6.4-6.4h107.9c3.6,0,6.4,2.9,6.4,6.4
	C439.9,482.4,437,485.3,433.5,485.3z"/>
<path class="st0" d="M410.7,344.7c-14.2,0-25.8-11.6-25.8-25.8c0-14.2,11.6-25.8,25.8-25.8c14.2,0,25.8,11.6,25.8,25.8
	C436.5,333.1,424.9,344.7,410.7,344.7z M410.7,306.1c-7.1,0-12.9,5.8-12.9,12.9c0,7.1,5.8,12.9,12.9,12.9c7.1,0,12.9-5.8,12.9-12.9
	C423.6,311.8,417.8,306.1,410.7,306.1z"/>
<path class="st0" d="M471.1,393.3H134.7c-14.5,0-26.3-10.9-26.3-24.4v-100c0-13.4,11.8-24.4,26.3-24.4h336.4
	c14.5,0,26.3,10.9,26.3,24.4v100C497.4,382.4,485.6,393.3,471.1,393.3z M134.7,257.4c-7.4,0-13.4,5.1-13.4,11.5v100
	c0,6.3,6,11.5,13.4,11.5h336.4c7.4,0,13.4-5.1,13.4-11.5v-100c0-6.3-6-11.5-13.4-11.5L134.7,257.4L134.7,257.4z"/>
</svg>
