<?xml version="1.0" encoding="utf-8"?>
<!-- Generator: Adobe Illustrator 22.0.0, SVG Export Plug-In . SVG Version: 6.00 Build 0)  -->
<svg version="1.1" id="Layer_1" xmlns="http://www.w3.org/2000/svg" xmlns:xlink="http://www.w3.org/1999/xlink" x="0px" y="0px"
	 viewBox="0 0 512 512" style="enable-background:new 0 0 512 512;" xml:space="preserve">
<style type="text/css">
	.st0{fill:#5E686B;}
	.st1{fill:#3FC6F1;}
</style>
<path class="st0" d="M433,82.6c-41.6-41.6-96.8-67.2-155.3-72c-3.8-0.3-7,2.5-7.3,6.2c-0.3,3.7,2.5,7,6.2,7.3
	c55.3,4.5,107.5,28.7,146.8,68.1c91.8,91.8,91.8,241.1,0,332.9c-91.8,91.8-241.1,91.8-332.9,0c-44.4-44.4-68.9-103.5-68.9-166.4
	s24.5-122,68.9-166.4c39.5-39.5,91.8-63.7,147.3-68.1c3.7-0.3,6.5-3.5,6.2-7.3c-0.3-3.7-3.4-6.5-7.3-6.2
	c-58.7,4.7-114,30.2-155.8,72c-47,47-72.9,109.5-72.9,176c0,66.5,25.9,129,72.9,176c48.5,48.5,112.3,72.8,176,72.8
	c63.7,0,127.5-24.3,176-72.8C530,337.6,530,179.7,433,82.6z"/>
<path class="st1" d="M281,260.2c-31.5,31.5-44.1,35.4-47.1,35.8l-1.8-1.8c-9.2-9.3-18.7-18.9-34.2-18.9c-11.8,0-24.9,6.1-41.2,19.1
	c-14.3,11.5-21.5,23.2-22,35.6c-0.4,9,2.8,16.7,7.4,23.5c-10.2,6.5-27.7,20.2-34.8,41.7c-1.2,3.5,0.7,7.4,4.3,8.6
	c0.7,0.2,1.4,0.3,2.1,0.3c2.8,0,5.5-1.8,6.4-4.6c6.2-18.6,22.3-30.4,30.7-35.5c2.6,2.7,5.2,5.1,7.5,7.4l4.8,4.6
	c6.8,6.8,17.2,10.4,30.1,10.4c17.6,0,40-6.7,62.8-18.7c25.5-13.2,51.7-32.9,75.6-56.9c31.1-31.1,54.9-65.9,66.9-97.9
	c5.5-14.6,8.4-28.3,8.5-39.8c0.1-13.3-3.5-24-10.3-30.9c-1.4-1.4-2.9-3-4.5-4.7c-9.5-10-22.4-23.7-40-23.7c-13,0-25.1,7.2-37.1,22.1
	c-14.9,18.6-20.7,32.7-18.8,46c1.8,12.8,10.3,21.2,18.6,29.4l1.9,1.9c-0.2,1.6-1.5,5.6-5.8,12.2C305.1,234.5,295,246.3,281,260.2z
	 M327.3,204.4l-2.9-2.9c-7.2-7.1-13.5-13.3-14.7-21.6c-1.3-9.2,3.6-20.2,16-35.6c9.2-11.4,17.9-17,26.5-17
	c11.7,0,21.5,10.3,30.1,19.4c1.6,1.8,3.2,3.4,4.8,5c4.3,4.3,6.5,11.6,6.4,21.2c-0.1,9.9-2.7,22.1-7.7,35.2
	c-11.4,30.3-34.1,63.4-63.8,93.1c-23,23-48,41.8-72.4,54.5c-21,11.1-41,17.2-56.5,17.2c-9.1,0-16.4-2.3-20.5-6.4l-5-4.8
	c-9.3-8.9-19.9-18.9-19.4-31.1c0.3-8.4,5.9-16.8,16.9-25.7c13.6-10.9,24.3-16.2,32.7-16.2c9.9,0,16.3,6.6,25.4,15.8
	c0.7,0.7,1.4,1.4,1.9,1.9c9.4,9.4,31.4-2.7,65.3-36.7c14.6-14.6,25.3-27.1,31.8-37.2C331.1,219.3,332.7,209.8,327.3,204.4z"/>
</svg>
