<?xml version="1.0" encoding="utf-8"?>
<!-- Generator: Adobe Illustrator 22.0.0, SVG Export Plug-In . SVG Version: 6.00 Build 0)  -->
<svg version="1.1" id="Layer_1" xmlns="http://www.w3.org/2000/svg" xmlns:xlink="http://www.w3.org/1999/xlink" x="0px" y="0px"
	 viewBox="0 0 512 512" style="enable-background:new 0 0 512 512;" xml:space="preserve">
<style type="text/css">
	.st0{fill:#5E686B;}
	.st1{fill:#3FC6F1;}
</style>
<path class="st0" d="M203.2,135.5h26.7c3.7,0,6.7-3,6.7-6.7c0-3.7-3-6.7-6.7-6.7h-26.7c-3.7,0-6.7,3-6.7,6.7
	S199.5,135.5,203.2,135.5z"/>
<path class="st0" d="M283.1,135.5h26.7c3.7,0,6.7-3,6.7-6.7c0-3.7-3-6.7-6.7-6.7h-26.7c-3.7,0-6.7,3-6.7,6.7
	S279.4,135.5,283.1,135.5z"/>
<path class="st0" d="M256.5,229.8c62.5,0,113.4-50.9,113.4-113.4c0-34-15.1-64.6-38.9-85.4c-0.7-1.1-1.8-2-3-2.5
	C308.5,12.6,283.6,3,256.5,3C194,3,143.1,53.9,143.1,116.4S194,229.8,256.5,229.8z M256.5,16.3c19.5,0,37.7,5.6,53,15.3L170.7,64.9
	C188.2,35.8,220.1,16.3,256.5,16.3z M163.1,80.5L323.3,42c20.4,18.3,33.2,44.9,33.2,74.4c0,55.2-44.9,100-100,100
	c-55.2,0-100-44.9-100-100C156.5,103.7,158.8,91.6,163.1,80.5z"/>
<path class="st0" d="M126.5,354.1c0.2,0,0.5,0,0.7,0h259.4c3.7,0,6.7-3,6.7-6.7v-47.3c0-29.8-24.2-54-54-54H173.8
	c-29.8,0-54,24.2-54,54v47.4C119.8,351.2,122.8,354.1,126.5,354.1z M133.1,300.1c0-22.4,18.2-40.7,40.7-40.7h76v46.7
	c0,3.7,3,6.7,6.7,6.7c3.7,0,6.7-3,6.7-6.7v-46.7h76c22.4,0,40.7,18.2,40.7,40.7v40.7H133.1V300.1z"/>
<path class="st1" d="M127.7,381.2l-79.1,79.1c-4-2.3-8.6-3.7-13.5-3.7c-14.7,0-26.7,12-26.7,26.7c0,14.7,12,26.7,26.7,26.7
	c14.7,0,26.7-12,26.7-26.7c0-4.9-1.4-9.6-3.7-13.5l79.1-79.1c2.6-2.6,2.6-6.8,0-9.4C134.6,378.6,130.3,378.6,127.7,381.2z
	 M35.1,496.7c-7.4,0-13.3-6-13.3-13.4c0-7.3,6-13.3,13.3-13.3c7.4,0,13.3,6,13.3,13.3C48.4,490.7,42.4,496.7,35.1,496.7z"/>
<path class="st1" d="M476.7,456.6c-5.1,0-9.8,1.4-13.8,3.8L382,381.2c-2.6-2.6-6.8-2.5-9.4,0.1c-2.6,2.6-2.5,6.9,0.1,9.4l80.7,79.1
	c-2.4,4-3.7,8.6-3.7,13.5c0,14.7,12.1,26.7,27.1,26.7c14.9,0,27.1-12,27.1-26.7C503.8,468.6,491.6,456.6,476.7,456.6z M476.7,496.7
	c-7.6,0-13.7-6-13.7-13.4c0-7.3,6.2-13.3,13.7-13.3c7.6,0,13.8,6,13.8,13.3C490.4,490.7,484.2,496.7,476.7,496.7z"/>
<path class="st1" d="M263.2,457.6v-74.5c0-3.7-3-6.7-6.7-6.7c-3.7,0-6.7,3-6.7,6.7v74.4c-11.6,2.9-20.3,13.4-20.3,25.9
	c0,14.7,12,26.7,26.7,26.7c14.7,0,26.7-12,26.7-26.7C282.9,471,274.5,460.6,263.2,457.6z M256.2,496.7c-7.4,0-13.3-6-13.3-13.4
	c0-7.3,6-13.3,13.3-13.3c7.4,0,13.3,6,13.3,13.3C269.6,490.7,263.6,496.7,256.2,496.7z"/>
</svg>
