<?xml version="1.0" encoding="utf-8"?>
<!-- Generator: Adobe Illustrator 22.0.0, SVG Export Plug-In . SVG Version: 6.00 Build 0)  -->
<svg version="1.1" id="Layer_1" xmlns="http://www.w3.org/2000/svg" xmlns:xlink="http://www.w3.org/1999/xlink" x="0px" y="0px"
	 viewBox="0 0 512 512" style="enable-background:new 0 0 512 512;" xml:space="preserve">
<style type="text/css">
	.st0{fill:#5E686C;}
	.st1{fill:#3FC6F1;}
</style>
<path class="st0" d="M254.9,507c-1,0-1.9-0.2-2.8-0.6c-8.6-3.9-209.4-97.8-209.4-217.8v-211c0-0.1,0-0.2,0-0.4c0-0.1,0-0.3,0-0.4
	c0-3.7,3.2-7.1,6.8-6.6c1.3-0.2,140,0.6,200.8-61.5c0,0,0,0,0,0c0,0,0,0.1,0,0c0.5-0.5,1-0.9,1.6-1.2c0,0-0.1,0,0,0c0,0,0,0,0,0l0,0
	l0,0l0,0c1-0.5,2.4-0.8,3.2-0.8c0,0,0,0,0,0l0,0c1,0,2,0.2,2.9,0.7c0,0,0,0,0,0s0,0,0,0c0.6,0.3,1.2,0.7,1.7,1.2c0,0,0,0,0,0
	c0,0,0,0,0,0c0,0,0.1,0,0.1,0.1c58.1,59.3,196.5,61.4,210.5,61.5c4-0.8,7.9,2.5,7.9,6.6v211.9c0,120.1-211.6,213.9-220.6,217.9
	C256.7,506.9,255.8,507,254.9,507z M56,83.5v205.1C56,393,230.9,481.3,255,493c24.9-11.5,209.8-99.9,209.8-204.4V83.5
	c-30.1-0.5-150-6.1-209.7-60.9C196.1,77.1,84.8,82.9,56,83.5z"/>
<path class="st1" d="M254.6,436.4c-0.9,0-1.9-0.2-2.8-0.6c-6.3-2.8-154.1-70.6-154.1-158.6V140.4c0-3.7,3-6.7,6.7-6.7s6.7,3,6.7,6.7
	v136.9c0,73.5,123.8,135.6,143.6,145.1c20.7-9.3,153.6-71.7,153.6-145.1V140.4c0-3.7,3-6.7,6.7-6.7s6.7,3,6.7,6.7v136.9
	c0,88.1-157.7,155.8-164.5,158.6C256.4,436.3,255.5,436.4,254.6,436.4z"/>
<path class="st1" d="M105.1,141.4c-0.6,0-1.1,0-1.3,0c-3.7-0.1-6.6-3.1-6.6-6.8c0.1-3.7,2.7-6.5,6.8-6.6c0.9,0,98.4,0.7,146.6-48.8
	c2.6-2.6,6.8-2.7,9.5-0.1c2.6,2.6,2.7,6.8,0.1,9.5C210.5,139.6,117.6,141.4,105.1,141.4z"/>
<path class="st1" d="M413.2,141.4c-13.4,0-112.9-1.8-162.6-52.8c-2.6-2.6-2.5-6.9,0.1-9.5c2.6-2.6,6.9-2.5,9.5,0.1
	c48.2,49.5,153.1,48.7,154.2,48.8c0,0,0.1,0,0.1,0c3.7,0,6.6,2.9,6.7,6.6c0.1,3.7-2.9,6.7-6.6,6.8
	C414.3,141.4,413.9,141.4,413.2,141.4z"/>
<path class="st0" d="M153.8,189.4c-1.7,0-3.4-0.7-4.7-2c-2.6-2.6-2.6-6.8,0-9.5l14.1-14.1c2.6-2.6,6.8-2.6,9.5,0
	c2.6,2.6,2.6,6.8,0,9.5l-14.1,14.1C157.2,188.7,155.5,189.4,153.8,189.4z"/>
<path class="st0" d="M146.7,252.9c-1.7,0-3.4-0.7-4.7-2c-2.6-2.6-2.6-6.8,0-9.5l77.7-77.6c2.6-2.6,6.8-2.6,9.5,0
	c2.6,2.6,2.6,6.8,0,9.5L151.5,251C150.2,252.3,148.5,252.9,146.7,252.9z"/>
</svg>
