<?xml version="1.0" encoding="utf-8"?>
<!-- Generator: Adobe Illustrator 22.0.0, SVG Export Plug-In . SVG Version: 6.00 Build 0)  -->
<svg version="1.1" id="Layer_1" xmlns="http://www.w3.org/2000/svg" xmlns:xlink="http://www.w3.org/1999/xlink" x="0px" y="0px"
	 viewBox="0 0 512 512" style="enable-background:new 0 0 512 512;" xml:space="preserve">
<style type="text/css">
	.st0{fill:#3FC6F1;}
	.st1{fill:#5E686B;}
</style>
<path class="st0" d="M250.1,266.7c-1.8,0-3.5-0.7-4.8-2c-2.6-2.7-2.6-6.9,0.1-9.6l127.7-125c2.7-2.6,7-2.5,9.6,0.1
	c2.6,2.7,2.6,6.9-0.1,9.6l-127.7,125C253.5,266.1,251.8,266.7,250.1,266.7z"/>
<path class="st1" d="M255.9,505.7C118.6,505.7,7,394.1,7,256.8S118.6,7.9,255.9,7.9c59.1,0,116.3,21,161.1,59.2
	c2.8,2.4,3.2,6.7,0.8,9.5c-2.4,2.8-6.7,3.2-9.5,0.8c-42.4-36.1-96.5-56-152.3-56C126.1,21.4,20.5,127,20.5,256.8
	c0,129.8,105.6,235.4,235.4,235.4c129.8,0,235.4-105.6,235.4-235.4c0-55.7-19.8-109.7-55.7-152c-2.4-2.8-2.1-7.1,0.8-9.5
	c2.9-2.4,7.1-2.1,9.5,0.8c38,44.8,58.9,101.9,58.9,160.7C504.8,394.1,393.1,505.7,255.9,505.7z"/>
<path class="st1" d="M160.3,413.2c-1.2,0-2.5-0.3-3.6-1c-3.2-2-4.1-6.1-2.2-9.3c21.9-35,59.7-56,101.3-56c41.6,0,79.5,20.9,101.3,56
	c2,3.2,1,7.3-2.1,9.3c-3.1,2-7.3,1-9.3-2.2c-19.4-31.1-53-49.6-89.8-49.6c-36.9,0-70.4,18.5-89.8,49.6
	C164.8,412.1,162.6,413.2,160.3,413.2z"/>
<path class="st0" d="M140.6,169.7c-14.9,0-27-12.1-27-27c0-14.9,12.1-27,27-27s27,12.1,27,27C167.6,157.5,155.5,169.7,140.6,169.7z
	 M140.6,129.1c-7.5,0-13.5,6.1-13.5,13.5s6.1,13.5,13.5,13.5s13.5-6.1,13.5-13.5S148,129.1,140.6,129.1z"/>
<path class="st0" d="M255.1,122c-14.9,0-27-12.1-27-27s12.1-27,27-27s27,12.1,27,27S270,122,255.1,122z M255.1,81.5
	c-7.5,0-13.5,6.1-13.5,13.5s6.1,13.5,13.5,13.5c7.5,0,13.5-6.1,13.5-13.5S262.6,81.5,255.1,81.5z"/>
<path class="st0" d="M417.3,284.9c-14.9,0-27-12.1-27-27c0-14.9,12.1-27,27-27s27,12.1,27,27C444.3,272.7,432.2,284.9,417.3,284.9z
	 M417.3,244.3c-7.5,0-13.5,6.1-13.5,13.5c0,7.5,6.1,13.5,13.5,13.5s13.5-6.1,13.5-13.5C430.8,250.4,424.8,244.3,417.3,244.3z"/>
</svg>
