<?xml version="1.0" encoding="utf-8"?>
<!-- Generator: Adobe Illustrator 22.0.0, SVG Export Plug-In . SVG Version: 6.00 Build 0)  -->
<svg version="1.1" id="Layer_1" xmlns="http://www.w3.org/2000/svg" xmlns:xlink="http://www.w3.org/1999/xlink" x="0px" y="0px"
	 viewBox="0 0 512 512" style="enable-background:new 0 0 512 512;" xml:space="preserve">
<style type="text/css">
	.st0{fill:#5E686C;}
	.st1{fill:#3FC6F1;}
</style>
<path class="st0" d="M496.8,494.3H282.4c0-0.1,0-0.2,0-0.3V387c0.2-0.6,0.3-1.3,0.3-1.9c0-0.7-0.1-1.3-0.3-1.9V152
	c0-3.8-3.1-6.8-6.8-6.8c-3.8,0-6.8,3.1-6.8,6.8v103.3H144.7V152c0-3.8-3.1-6.8-6.8-6.8c-3.8,0-6.8,3.1-6.8,6.8v103.3H19.3
	c-0.1,0-0.2,0-0.3,0V13.4c0-3.8-3.1-6.8-6.8-6.8c-3.8,0-6.8,3.1-6.8,6.8v487.8c0,3.8,3.1,6.8,6.8,6.8h484.6c3.8,0,6.8-3.1,6.8-6.8
	C503.6,497.4,500.6,494.3,496.8,494.3z M19,391.9h112V494c0,0.1,0,0.2,0,0.3H19V391.9z M144.7,494V391.9h124.1V494
	c0,0.1,0,0.2,0,0.3H144.6C144.7,494.2,144.7,494.1,144.7,494z M268.7,269v109.3H144.7V269H268.7z M19.3,269H131v109.3H19V268.9
	C19.1,268.9,19.2,269,19.3,269z"/>
<path class="st1" d="M496.8,215.8c-3.8,0-6.8-3.1-6.8-6.8v-71.6h-71.6c-3.8,0-6.8-3.1-6.8-6.8c0-3.8,3.1-6.8,6.8-6.8h78.4
	c3.8,0,6.8,3.1,6.8,6.8V209C503.6,212.8,500.6,215.8,496.8,215.8z"/>
<path class="st1" d="M494.1,132.6c-2.8-2.5-7.2-2.2-9.6,0.7l-208.3,241l-51.9-68.4c-0.1-0.1-0.2-0.2-0.3-0.3
	c-0.1-0.1-0.1-0.1-0.2-0.2c0,0,0,0,0,0c0,0-0.1-0.1-0.1-0.1c-1.4-1.5-3.3-2.1-5.2-2c0,0,0,0,0,0c-0.1,0-0.2,0-0.3,0
	c-0.6,0.1-1.2,0.2-1.8,0.4c-0.8,0.3-1.5,0.7-2.1,1.3l0,0c0,0,0,0,0,0L7.5,496.2c-2.8,2.6-2.9,6.9-0.4,9.7c1.3,1.5,3.2,2.2,5,2.2
	c1.7,0,3.3-0.6,4.6-1.8L218,320.1l52.5,69.1c0.1,0.2,0.3,0.4,0.4,0.5c0,0,0,0,0,0c0.1,0.1,0.3,0.2,0.4,0.4c0,0,0.1,0.1,0.1,0.1
	c0,0,0,0,0,0c0.3,0.3,0.6,0.5,0.9,0.7c0.1,0,0.1,0.1,0.2,0.1c0.3,0.2,0.6,0.3,0.9,0.4c0.1,0,0.1,0,0.2,0.1c0.3,0.1,0.7,0.2,1,0.3
	c0.1,0,0.2,0,0.3,0c0.3,0.1,0.7,0.1,1,0.1c0.3,0,0.6,0,1-0.1c0.1,0,0.2,0,0.2,0c0.3-0.1,0.6-0.1,0.9-0.2c0,0,0.1,0,0.1,0
	c0.3-0.1,0.5-0.2,0.8-0.3c0.1,0,0.2-0.1,0.2-0.1c0.3-0.1,0.5-0.3,0.8-0.5c0,0,0,0,0.1,0c0.4-0.3,0.8-0.7,1.1-1.1l213.7-247.2
	C497.3,139.3,497,135,494.1,132.6z"/>
</svg>
