<?xml version="1.0" encoding="utf-8"?>
<!-- Generator: Adobe Illustrator 22.0.0, SVG Export Plug-In . SVG Version: 6.00 Build 0)  -->
<svg version="1.1" id="Layer_1" xmlns="http://www.w3.org/2000/svg" xmlns:xlink="http://www.w3.org/1999/xlink" x="0px" y="0px"
	 viewBox="0 0 512 512" style="enable-background:new 0 0 512 512;" xml:space="preserve">
<style type="text/css">
	.st0{fill:#5E686B;}
	.st1{fill:#3FC6F1;}
</style>
<path class="st0" d="M472.8,213.6H214c-3.7,0-6.7,3-6.7,6.7s3,6.7,6.7,6.7h258.8c10.4,0,18.9,7.3,18.9,16.4v128.8
	c0,9-8.5,16.4-18.9,16.4H39.5c-10.4,0-18.9-7.3-18.9-16.4V243.4c0-9,8.5-16.4,18.9-16.4h66.8c3.7,0,6.7-3,6.7-6.7s-3-6.7-6.7-6.7
	H39.5c-17.8,0-32.4,13.4-32.4,29.8v128.8c0,16.4,14.5,29.8,32.4,29.8h433.3c17.8,0,32.3-13.4,32.3-29.8V243.4
	C505.2,227,490.6,213.6,472.8,213.6z"/>
<path class="st0" d="M472.8,4.3H214c-3.7,0-6.7,3-6.7,6.7s3,6.7,6.7,6.7h258.8c10.4,0,18.9,7.3,18.9,16.4v128.8
	c0,9-8.5,16.4-18.9,16.4H39.5c-10.4,0-18.9-7.3-18.9-16.4V34.1c0-9,8.5-16.4,18.9-16.4h66.8c3.7,0,6.7-3,6.7-6.7s-3-6.7-6.7-6.7
	H39.5C21.7,4.3,7.2,17.6,7.2,34.1v128.8c0,16.4,14.5,29.8,32.4,29.8h433.3c17.8,0,32.3-13.4,32.3-29.8V34.1
	C505.2,17.7,490.6,4.3,472.8,4.3z"/>
<path class="st1" d="M412.4,314.6c3.7,0,6.7-3,6.7-6.7s-3-6.7-6.7-6.7h-34.7c-3.7,0-6.7,3-6.7,6.7c0,3.7,3,6.7,6.7,6.7H412.4z"/>
<path class="st1" d="M412.4,105.2c3.7,0,6.7-3,6.7-6.7s-3-6.7-6.7-6.7h-34.7c-3.7,0-6.7,3-6.7,6.7s3,6.7,6.7,6.7H412.4z"/>
<path class="st0" d="M415.9,473.8H282.2c-2.4-9.5-9.9-16.9-19.3-19.4v-30c0-3.7-3-6.7-6.7-6.7s-6.7,3-6.7,6.7v30
	c-9.4,2.4-16.9,9.9-19.3,19.4H96.4c-3.7,0-6.7,3-6.7,6.7c0,3.7,3,6.7,6.7,6.7h133.7c3,11.6,13.6,20.2,26.1,20.2
	c12.5,0,23.1-8.6,26.1-20.2h133.7c3.7,0,6.7-3,6.7-6.7C422.6,476.8,419.6,473.8,415.9,473.8z M256.2,494c-7.4,0-13.5-6-13.5-13.5
	c0-7.4,6-13.5,13.5-13.5c7.4,0,13.5,6,13.5,13.5C269.6,487.9,263.6,494,256.2,494z"/>
</svg>
