<?xml version="1.0" encoding="utf-8"?>
<!-- Generator: Adobe Illustrator 22.0.0, SVG Export Plug-In . SVG Version: 6.00 Build 0)  -->
<svg version="1.1" id="Layer_1" xmlns="http://www.w3.org/2000/svg" xmlns:xlink="http://www.w3.org/1999/xlink" x="0px" y="0px"
	 viewBox="0 0 512 512" style="enable-background:new 0 0 512 512;" xml:space="preserve">
<style type="text/css">
	.st0{fill:#3FC6F1;}
	.st1{fill:#5E686B;}
</style>
<path class="st0" d="M182.6,219.9h-95c-3.8,0-6.8,3-6.8,6.8v162.8c0,3.8,3,6.8,6.8,6.8h95c3.8,0,6.8-3,6.8-6.8V226.7
	C189.4,222.9,186.4,219.9,182.6,219.9z M175.9,382.7H94.4V233.5h81.4V382.7z"/>
<path class="st1" d="M507.5,163.1c0-0.2,0-0.4,0-0.5V64.7c0-3.8-3-6.8-6.8-6.8H11.4c-3.8,0-6.8,3-6.8,6.8v97.9v293.6
	c0,3.8,3,6.8,6.8,6.8h489.4c3.7,0,6.8-3,6.8-6.8V163.7C507.5,163.5,507.5,163.3,507.5,163.1z M18.1,71.5H494v84.3H18.1V71.5z
	 M18.1,449.4V169.4H494v280.1H18.1z"/>
<path class="st1" d="M83,84.8c-15,0-27.1,12.2-27.1,27.1s12.2,27.1,27.1,27.1c15,0,27.1-12.2,27.1-27.1C110.2,97,98,84.8,83,84.8z
	 M83,125.5c-7.5,0-13.6-6.1-13.6-13.6S75.6,98.4,83,98.4c7.5,0,13.6,6.1,13.6,13.6S90.5,125.5,83,125.5z"/>
<path class="st1" d="M159.9,84.8c-15,0-27.1,12.2-27.1,27.1s12.2,27.1,27.1,27.1s27.1-12.2,27.1-27.1
	C187.1,97,174.9,84.8,159.9,84.8z M159.9,125.5c-7.5,0-13.6-6.1-13.6-13.6s6.1-13.6,13.6-13.6c7.5,0,13.6,6.1,13.6,13.6
	S167.4,125.5,159.9,125.5z"/>
<path class="st1" d="M236.8,84.8c-15,0-27.1,12.2-27.1,27.1s12.2,27.1,27.1,27.1S264,126.9,264,112C264,97,251.8,84.8,236.8,84.8z
	 M236.8,125.5c-7.5,0-13.6-6.1-13.6-13.6s6.1-13.6,13.6-13.6c7.5,0,13.6,6.1,13.6,13.6S244.3,125.5,236.8,125.5z"/>
<path class="st0" d="M418.9,275.2H256.1c-3.8,0-6.8,3-6.8,6.8c0,3.8,3,6.8,6.8,6.8h162.8c3.8,0,6.8-3,6.8-6.8
	C425.7,278.3,422.6,275.2,418.9,275.2z"/>
<path class="st0" d="M418.9,327.8H256.1c-3.8,0-6.8,3-6.8,6.8c0,3.7,3,6.8,6.8,6.8h162.8c3.8,0,6.8-3,6.8-6.8
	C425.7,330.8,422.6,327.8,418.9,327.8z"/>
<path class="st0" d="M379.4,380.5H257.2c-3.8,0-6.8,3-6.8,6.8c0,3.8,3,6.8,6.8,6.8h122.1c3.8,0,6.8-3,6.8-6.8
	C386.1,383.6,383.1,380.5,379.4,380.5z"/>
</svg>
