<?xml version="1.0" encoding="utf-8"?>
<!-- Generator: Adobe Illustrator 22.0.0, SVG Export Plug-In . SVG Version: 6.00 Build 0)  -->
<svg version="1.1" id="Layer_1" xmlns="http://www.w3.org/2000/svg" xmlns:xlink="http://www.w3.org/1999/xlink" x="0px" y="0px"
	 viewBox="0 0 512 512" style="enable-background:new 0 0 512 512;" xml:space="preserve">
<style type="text/css">
	.st0{fill:#5E686B;}
	.st1{fill:#3FC6F1;}
</style>
<path class="st0" d="M95,169.2h129.9c3.6,0,6.4-2.9,6.4-6.4V36.5c0-1.9-0.8-3.6-2.2-4.9c-1.4-1.2-3.3-1.8-5.1-1.5l-129.9,18
	c-3.2,0.4-5.6,3.2-5.6,6.4v108.3C88.6,166.3,91.4,169.2,95,169.2z M101.4,60l117.1-16.2v112.5H101.4V60z"/>
<path class="st0" d="M246.9,169.2h170.2c3.6,0,6.4-2.9,6.4-6.4V11.3c0-1.9-0.8-3.6-2.2-4.8c-1.4-1.2-3.3-1.8-5.1-1.5L246,28.4
	c-3.2,0.4-5.6,3.2-5.6,6.4v128C240.4,166.3,243.3,169.2,246.9,169.2z M253.3,40.4l157.3-21.7v137.7H253.3V40.4z"/>
<path class="st1" d="M372.2,294.1c-14.2,0-25.7,11.5-25.7,25.7c0,14.2,11.5,25.7,25.7,25.7c14.2,0,25.7-11.5,25.7-25.7
	C397.9,305.6,386.4,294.1,372.2,294.1z M372.2,332.7c-7.1,0-12.9-5.8-12.9-12.9c0-7.1,5.8-12.9,12.9-12.9c7.1,0,12.9,5.8,12.9,12.9
	C385.1,326.9,379.3,332.7,372.2,332.7z"/>
<path class="st0" d="M101.4,191.1h117.1v49.1h12.9v-55.5c0-3.6-2.9-6.4-6.4-6.4H95c-3.6,0-6.4,2.9-6.4,6.4v55.5h12.9L101.4,191.1
	L101.4,191.1z"/>
<path class="st0" d="M253.3,191.1h157.3v49.1h12.9v-55.5c0-3.6-2.9-6.4-6.4-6.4H246.9c-3.6,0-6.4,2.9-6.4,6.4v55.5h12.9L253.3,191.1
	L253.3,191.1z"/>
<path class="st1" d="M437.2,240.2H74.9c-15.4,0-27.9,11.5-27.9,25.7v107.7c0,14.2,12.5,25.7,27.9,25.7h362.3
	c15.4,0,27.8-11.5,27.8-25.7V265.9C465.1,251.7,452.6,240.2,437.2,240.2z M452.2,373.6L452.2,373.6c0,7.1-6.7,12.9-15,12.9H74.9
	c-8.3,0-15-5.8-15-12.9V265.9c0-7.1,6.7-12.9,15-12.9h362.3c8.3,0,15,5.8,15,12.9L452.2,373.6L452.2,373.6z"/>
<path class="st0" d="M383,475.8H281c-2.3-9-9.5-16.1-18.5-18.5v-33c0-3.6-2.9-6.4-6.4-6.4s-6.4,2.9-6.4,6.4v33
	c-9,2.3-16.2,9.5-18.5,18.5h-102c-3.6,0-6.4,2.9-6.4,6.4c0,3.6,2.9,6.4,6.4,6.4h102c2.9,11.1,12.9,19.3,24.9,19.3
	c12,0,22.1-8.2,24.9-19.3h102c3.6,0,6.4-2.9,6.4-6.4C389.4,478.6,386.5,475.8,383,475.8z M256,495.1c-7.1,0-12.8-5.8-12.9-12.9
	c0,0,0,0,0,0c0,0,0,0,0,0c0-7.1,5.8-12.9,12.9-12.9c7.1,0,12.9,5.8,12.9,12.9C268.9,489.3,263.1,495.1,256,495.1z"/>
</svg>
