<?xml version="1.0" encoding="utf-8"?>
<!-- Generator: Adobe Illustrator 22.0.0, SVG Export Plug-In . SVG Version: 6.00 Build 0)  -->
<svg version="1.1" id="Layer_1" xmlns="http://www.w3.org/2000/svg" xmlns:xlink="http://www.w3.org/1999/xlink" x="0px" y="0px"
	 viewBox="0 0 370 80" style="enable-background:new 0 0 370 80;" xml:space="preserve">
<style type="text/css">
	.st0{fill:#FFFFFF;}
	.st1{fill:url(#SVGID_1_);}
	.st2{clip-path:url(#SVGID_4_);}
	.st3{clip-path:url(#SVGID_7_);fill:url(#SVGID_8_);}
	.st4{clip-path:url(#SVGID_7_);fill:url(#SVGID_9_);}
	.st5{clip-path:url(#SVGID_7_);fill:url(#SVGID_10_);}
	.st6{clip-path:url(#SVGID_7_);fill:url(#SVGID_11_);}
	.st7{clip-path:url(#SVGID_7_);fill:url(#SVGID_12_);}
	.st8{clip-path:url(#SVGID_7_);fill:url(#SVGID_13_);}
	.st9{clip-path:url(#SVGID_7_);fill:url(#SVGID_14_);}
	.st10{clip-path:url(#SVGID_7_);fill:url(#SVGID_15_);}
	.st11{clip-path:url(#SVGID_7_);fill:url(#SVGID_16_);}
	.st12{clip-path:url(#SVGID_7_);fill:url(#SVGID_17_);}
	.st13{clip-path:url(#SVGID_7_);fill:url(#SVGID_18_);}
	.st14{clip-path:url(#SVGID_7_);fill:url(#SVGID_19_);}
	.st15{clip-path:url(#SVGID_7_);fill:url(#SVGID_20_);}
	.st16{clip-path:url(#SVGID_7_);fill:url(#SVGID_21_);}
	.st17{clip-path:url(#SVGID_7_);fill:url(#SVGID_22_);}
	.st18{clip-path:url(#SVGID_7_);fill:url(#SVGID_23_);}
	.st19{clip-path:url(#SVGID_7_);fill:url(#SVGID_24_);}
	.st20{clip-path:url(#SVGID_7_);fill:url(#SVGID_25_);}
	.st21{clip-path:url(#SVGID_7_);fill:url(#SVGID_26_);}
	.st22{clip-path:url(#SVGID_7_);fill:url(#SVGID_27_);}
	.st23{clip-path:url(#SVGID_7_);fill:url(#SVGID_28_);}
	.st24{clip-path:url(#SVGID_7_);fill:url(#SVGID_29_);}
	.st25{clip-path:url(#SVGID_7_);fill:url(#SVGID_30_);}
	.st26{clip-path:url(#SVGID_7_);fill:url(#SVGID_31_);}
	.st27{clip-path:url(#SVGID_7_);fill:url(#SVGID_32_);}
	.st28{clip-path:url(#SVGID_7_);fill:url(#SVGID_33_);}
	.st29{clip-path:url(#SVGID_7_);fill:url(#SVGID_34_);}
	.st30{clip-path:url(#SVGID_7_);fill:url(#SVGID_35_);}
	.st31{clip-path:url(#SVGID_7_);fill:url(#SVGID_36_);}
	.st32{clip-path:url(#SVGID_7_);fill:url(#SVGID_37_);}
	.st33{clip-path:url(#SVGID_7_);fill:url(#SVGID_38_);}
	.st34{clip-path:url(#SVGID_7_);fill:url(#SVGID_39_);}
	.st35{clip-path:url(#SVGID_7_);fill:url(#SVGID_40_);}
	.st36{clip-path:url(#SVGID_7_);fill:url(#SVGID_41_);}
	.st37{clip-path:url(#SVGID_7_);fill:url(#SVGID_42_);}
	.st38{clip-path:url(#SVGID_7_);fill:url(#SVGID_43_);}
	.st39{clip-path:url(#SVGID_7_);fill:url(#SVGID_44_);}
	.st40{clip-path:url(#SVGID_7_);fill:url(#SVGID_45_);}
	.st41{clip-path:url(#SVGID_7_);fill:url(#SVGID_46_);}
	.st42{clip-path:url(#SVGID_7_);fill:url(#SVGID_47_);}
	.st43{clip-path:url(#SVGID_7_);fill:url(#SVGID_48_);}
	.st44{clip-path:url(#SVGID_7_);fill:url(#SVGID_49_);}
	.st45{clip-path:url(#SVGID_7_);fill:url(#SVGID_50_);}
	.st46{clip-path:url(#SVGID_7_);fill:url(#SVGID_51_);}
	.st47{clip-path:url(#SVGID_7_);fill:url(#SVGID_52_);}
	.st48{clip-path:url(#SVGID_7_);fill:url(#SVGID_53_);}
	.st49{clip-path:url(#SVGID_7_);fill:url(#SVGID_54_);}
	.st50{clip-path:url(#SVGID_7_);fill:url(#SVGID_55_);}
	.st51{clip-path:url(#SVGID_7_);fill:url(#SVGID_56_);}
	.st52{clip-path:url(#SVGID_7_);fill:url(#SVGID_57_);}
	.st53{clip-path:url(#SVGID_7_);fill:url(#SVGID_58_);}
	.st54{clip-path:url(#SVGID_7_);fill:url(#SVGID_59_);}
	.st55{clip-path:url(#SVGID_7_);fill:url(#SVGID_60_);}
	.st56{clip-path:url(#SVGID_7_);fill:url(#SVGID_61_);}
	.st57{clip-path:url(#SVGID_7_);fill:url(#SVGID_62_);}
	.st58{clip-path:url(#SVGID_7_);fill:url(#SVGID_63_);}
	.st59{clip-path:url(#SVGID_7_);fill:url(#SVGID_64_);}
	.st60{clip-path:url(#SVGID_7_);fill:url(#SVGID_65_);}
	.st61{clip-path:url(#SVGID_7_);fill:url(#SVGID_66_);}
	.st62{clip-path:url(#SVGID_7_);fill:url(#SVGID_67_);}
	.st63{clip-path:url(#SVGID_7_);fill:url(#SVGID_68_);}
	.st64{clip-path:url(#SVGID_7_);fill:url(#SVGID_69_);}
	.st65{clip-path:url(#SVGID_7_);fill:url(#SVGID_70_);}
	.st66{clip-path:url(#SVGID_7_);fill:url(#SVGID_71_);}
	.st67{clip-path:url(#SVGID_7_);fill:url(#SVGID_72_);}
	.st68{clip-path:url(#SVGID_7_);fill:url(#SVGID_73_);}
	.st69{clip-path:url(#SVGID_7_);fill:url(#SVGID_74_);}
	.st70{clip-path:url(#SVGID_7_);fill:url(#SVGID_75_);}
	.st71{clip-path:url(#SVGID_7_);fill:url(#SVGID_76_);}
	.st72{clip-path:url(#SVGID_7_);fill:url(#SVGID_77_);}
	.st73{clip-path:url(#SVGID_7_);fill:url(#SVGID_78_);}
	.st74{clip-path:url(#SVGID_7_);fill:url(#SVGID_79_);}
	.st75{clip-path:url(#SVGID_7_);fill:url(#SVGID_80_);}
	.st76{clip-path:url(#SVGID_7_);fill:url(#SVGID_81_);}
	.st77{clip-path:url(#SVGID_7_);fill:url(#SVGID_82_);}
	.st78{clip-path:url(#SVGID_7_);fill:url(#SVGID_83_);}
	.st79{clip-path:url(#SVGID_7_);fill:url(#SVGID_84_);}
	.st80{clip-path:url(#SVGID_7_);fill:url(#SVGID_85_);}
	.st81{clip-path:url(#SVGID_7_);fill:url(#SVGID_86_);}
	.st82{clip-path:url(#SVGID_7_);fill:url(#SVGID_87_);}
	.st83{clip-path:url(#SVGID_7_);fill:url(#SVGID_88_);}
	.st84{clip-path:url(#SVGID_7_);fill:url(#SVGID_89_);}
	.st85{clip-path:url(#SVGID_7_);fill:url(#SVGID_90_);}
	.st86{clip-path:url(#SVGID_7_);fill:url(#SVGID_91_);}
	.st87{clip-path:url(#SVGID_7_);fill:url(#SVGID_92_);}
	.st88{clip-path:url(#SVGID_7_);fill:url(#SVGID_93_);}
	.st89{clip-path:url(#SVGID_7_);fill:url(#SVGID_94_);}
	.st90{clip-path:url(#SVGID_7_);fill:url(#SVGID_95_);}
	.st91{clip-path:url(#SVGID_7_);fill:url(#SVGID_96_);}
	.st92{clip-path:url(#SVGID_7_);fill:url(#SVGID_97_);}
	.st93{clip-path:url(#SVGID_100_);}
	.st94{fill:url(#SVGID_101_);}
</style>
<g>
	<g>
		<path d="M150.4,48.4h-31.8c1.2,5.2,5.6,8.4,12,8.4c4.5,0,7.7-1.3,10.5-4.1l6.5,7c-3.9,4.5-9.8,6.8-17.3,6.8
			c-14.5,0-24-9.1-24-21.6c0-12.6,9.6-21.6,22.4-21.6c12.3,0,21.9,8.3,21.9,21.8C150.6,46,150.5,47.4,150.4,48.4z M118.5,41.3h20.7
			c-0.9-5.3-4.8-8.7-10.3-8.7C123.3,32.5,119.3,35.9,118.5,41.3z"/>
		<path d="M158.8,8H171v58h-12.2V8z"/>
		<path d="M219.4,42v24H208v-5.2c-2.3,3.8-6.6,5.9-12.8,5.9c-9.8,0-15.7-5.5-15.7-12.7c0-7.4,5.2-12.6,18-12.6h9.7
			c0-5.2-3.1-8.3-9.7-8.3c-4.5,0-9.1,1.5-12.1,3.9l-4.4-8.5c4.6-3.3,11.4-5.1,18.1-5.1C212,23.3,219.4,29.2,219.4,42z M207.3,52.7
			v-4.3h-8.4c-5.7,0-7.5,2.1-7.5,4.9c0,3,2.6,5.1,6.9,5.1C202.3,58.4,205.9,56.5,207.3,52.7z"/>
		<path d="M226.4,62l4.1-8.7c3.7,2.4,9.4,4.1,14.6,4.1c5.6,0,7.7-1.5,7.7-3.8c0-6.9-25.4,0.2-25.4-16.6c0-8,7.2-13.6,19.4-13.6
			c5.8,0,12.2,1.3,16.2,3.7l-4.1,8.7c-4.1-2.3-8.3-3.1-12.1-3.1c-5.5,0-7.8,1.7-7.8,3.9c0,7.2,25.4,0.2,25.4,16.8
			c0,7.8-7.3,13.4-19.8,13.4C237.5,66.6,230.3,64.6,226.4,62z"/>
		<path d="M299,63.9c-2.5,1.8-6.2,2.7-9.9,2.7c-9.9,0-15.7-5.1-15.7-15.1V34.2h-6.5v-9.4h6.5V14.6h12.2v10.2H296v9.4h-10.5v17.1
			c0,3.6,2,5.5,5.2,5.5c1.8,0,3.6-0.5,4.9-1.6L299,63.9z"/>
		<path d="M304.4,11.3c0-3.8,3-6.8,7.6-6.8c4.5,0,7.6,2.8,7.6,6.6c0,4.1-3,7-7.6,7S304.4,15.1,304.4,11.3z M305.9,23.9h12.2v42
			h-12.2V23.9z"/>
		<path d="M326.3,44.9c0-12.7,9.8-21.6,23.4-21.6c8.8,0,15.8,3.8,18.8,10.7l-9.4,5.1c-2.3-4-5.6-5.8-9.4-5.8c-6.2,0-11,4.3-11,11.6
			s4.8,11.6,11,11.6c3.8,0,7.2-1.7,9.4-5.8l9.4,5.2c-3,6.7-10,10.6-18.8,10.6C336,66.6,326.3,57.6,326.3,44.9z"/>
	</g>
</g>
<rect class="st0" width="80" height="80"/>
<linearGradient id="SVGID_1_" gradientUnits="userSpaceOnUse" x1="8.1" y1="80" x2="8.1" y2="-1.818989e-12" gradientTransform="matrix(-1 0 0 -1 16.2 80)">
	<stop  offset="0" style="stop-color:#3EB1FC"/>
	<stop  offset="1" style="stop-color:#618FFB"/>
</linearGradient>
<rect x="0.1" class="st1" width="16" height="80"/>
<g>
	<g>
		<defs>
			<polygon id="SVGID_2_" points="64.1,0 64.1,16 32.1,16 32.1,32 64.1,32 64.1,48 32.1,48 32.1,64 64.1,64 64.1,80 80.1,80 80.1,0 
							"/>
		</defs>
		<linearGradient id="SVGID_3_" gradientUnits="userSpaceOnUse" x1="56.1" y1="0" x2="56.1" y2="80">
			<stop  offset="0" style="stop-color:#5B96F9"/>
			<stop  offset="1" style="stop-color:#786FFF"/>
		</linearGradient>
		<use xlink:href="#SVGID_2_"  style="overflow:visible;fill:url(#SVGID_3_);"/>
		<clipPath id="SVGID_4_">
			<use xlink:href="#SVGID_2_"  style="overflow:visible;"/>
		</clipPath>
		<g class="st2">
			<g>
				<defs>
					<rect id="SVGID_5_" width="80" height="80"/>
				</defs>
				<linearGradient id="SVGID_6_" gradientUnits="userSpaceOnUse" x1="40" y1="0" x2="40" y2="80">
					<stop  offset="0" style="stop-color:#5B96F9"/>
					<stop  offset="1" style="stop-color:#786FFF"/>
				</linearGradient>
				<use xlink:href="#SVGID_5_"  style="overflow:visible;fill:url(#SVGID_6_);"/>
				<clipPath id="SVGID_7_">
					<use xlink:href="#SVGID_5_"  style="overflow:visible;"/>
				</clipPath>
				<linearGradient id="SVGID_8_" gradientUnits="userSpaceOnUse" x1="80" y1="80" x2="80" y2="80">
					<stop  offset="0" style="stop-color:#5B96F9"/>
					<stop  offset="1" style="stop-color:#786FFF"/>
				</linearGradient>
				<path class="st3" d="M80,80L80,80L80,80z"/>
				<linearGradient id="SVGID_9_" gradientUnits="userSpaceOnUse" x1="78.7721" y1="78.5822" x2="78.7721" y2="80">
					<stop  offset="0" style="stop-color:#5B96F9"/>
					<stop  offset="1" style="stop-color:#786FFF"/>
				</linearGradient>
				<path class="st4" d="M77.5,80l2.5-1.4L77.5,80z"/>
				<linearGradient id="SVGID_10_" gradientUnits="userSpaceOnUse" x1="77.5442" y1="77.1643" x2="77.5442" y2="80">
					<stop  offset="0" style="stop-color:#5B96F9"/>
					<stop  offset="1" style="stop-color:#786FFF"/>
				</linearGradient>
				<polygon class="st5" points="75.1,80 80,77.2 80,78.6 77.5,80 				"/>
				<linearGradient id="SVGID_11_" gradientUnits="userSpaceOnUse" x1="76.3163" y1="75.7465" x2="76.3163" y2="80">
					<stop  offset="0" style="stop-color:#5B96F9"/>
					<stop  offset="1" style="stop-color:#786FFF"/>
				</linearGradient>
				<polygon class="st6" points="72.6,80 80,75.7 80,77.2 75.1,80 				"/>
				<linearGradient id="SVGID_12_" gradientUnits="userSpaceOnUse" x1="75.0884" y1="74.3286" x2="75.0884" y2="80">
					<stop  offset="0" style="stop-color:#5B96F9"/>
					<stop  offset="1" style="stop-color:#786FFF"/>
				</linearGradient>
				<polygon class="st7" points="70.2,80 80,74.3 80,75.7 72.6,80 				"/>
				<linearGradient id="SVGID_13_" gradientUnits="userSpaceOnUse" x1="73.8606" y1="72.9108" x2="73.8606" y2="80">
					<stop  offset="0" style="stop-color:#5B96F9"/>
					<stop  offset="1" style="stop-color:#786FFF"/>
				</linearGradient>
				<polygon class="st8" points="67.7,80 80,72.9 80,74.3 70.2,80 				"/>
				<linearGradient id="SVGID_14_" gradientUnits="userSpaceOnUse" x1="72.6327" y1="71.4929" x2="72.6327" y2="80">
					<stop  offset="0" style="stop-color:#5B96F9"/>
					<stop  offset="1" style="stop-color:#786FFF"/>
				</linearGradient>
				<polygon class="st9" points="65.3,80 80,71.5 80,72.9 67.7,80 				"/>
				<linearGradient id="SVGID_15_" gradientUnits="userSpaceOnUse" x1="71.4048" y1="70.0751" x2="71.4048" y2="80">
					<stop  offset="0" style="stop-color:#5B96F9"/>
					<stop  offset="1" style="stop-color:#786FFF"/>
				</linearGradient>
				<polygon class="st10" points="62.8,80 80,70.1 80,71.5 65.3,80 				"/>
				<linearGradient id="SVGID_16_" gradientUnits="userSpaceOnUse" x1="70.1769" y1="68.6573" x2="70.1769" y2="80">
					<stop  offset="0" style="stop-color:#5B96F9"/>
					<stop  offset="1" style="stop-color:#786FFF"/>
				</linearGradient>
				<polygon class="st11" points="60.4,80 80,68.7 80,70.1 62.8,80 				"/>
				<linearGradient id="SVGID_17_" gradientUnits="userSpaceOnUse" x1="68.949" y1="67.2394" x2="68.949" y2="80">
					<stop  offset="0" style="stop-color:#5B96F9"/>
					<stop  offset="1" style="stop-color:#786FFF"/>
				</linearGradient>
				<polygon class="st12" points="57.9,80 80,67.2 80,68.7 60.4,80 				"/>
				<linearGradient id="SVGID_18_" gradientUnits="userSpaceOnUse" x1="67.7211" y1="65.8216" x2="67.7211" y2="80">
					<stop  offset="0" style="stop-color:#5B96F9"/>
					<stop  offset="1" style="stop-color:#786FFF"/>
				</linearGradient>
				<polygon class="st13" points="55.4,80 80,65.8 80,67.2 57.9,80 				"/>
				<linearGradient id="SVGID_19_" gradientUnits="userSpaceOnUse" x1="66.4932" y1="64.4037" x2="66.4932" y2="80">
					<stop  offset="0" style="stop-color:#5B96F9"/>
					<stop  offset="1" style="stop-color:#786FFF"/>
				</linearGradient>
				<polygon class="st14" points="53,80 80,64.4 80,65.8 55.4,80 				"/>
				<linearGradient id="SVGID_20_" gradientUnits="userSpaceOnUse" x1="65.2653" y1="62.9859" x2="65.2653" y2="80">
					<stop  offset="0" style="stop-color:#5B96F9"/>
					<stop  offset="1" style="stop-color:#786FFF"/>
				</linearGradient>
				<polygon class="st15" points="50.5,80 80,63 80,64.4 53,80 				"/>
				<linearGradient id="SVGID_21_" gradientUnits="userSpaceOnUse" x1="64.0374" y1="61.568" x2="64.0374" y2="80">
					<stop  offset="0" style="stop-color:#5B96F9"/>
					<stop  offset="1" style="stop-color:#786FFF"/>
				</linearGradient>
				<polygon class="st16" points="48.1,80 80,61.6 80,63 50.5,80 				"/>
				<linearGradient id="SVGID_22_" gradientUnits="userSpaceOnUse" x1="62.8096" y1="60.1502" x2="62.8096" y2="80">
					<stop  offset="0" style="stop-color:#5B96F9"/>
					<stop  offset="1" style="stop-color:#786FFF"/>
				</linearGradient>
				<polygon class="st17" points="45.6,80 80,60.2 80,61.6 48.1,80 				"/>
				<linearGradient id="SVGID_23_" gradientUnits="userSpaceOnUse" x1="61.5817" y1="58.7324" x2="61.5817" y2="80">
					<stop  offset="0" style="stop-color:#5B96F9"/>
					<stop  offset="1" style="stop-color:#786FFF"/>
				</linearGradient>
				<polygon class="st18" points="43.2,80 80,58.7 80,60.2 45.6,80 				"/>
				<linearGradient id="SVGID_24_" gradientUnits="userSpaceOnUse" x1="60.3538" y1="57.3145" x2="60.3538" y2="80">
					<stop  offset="0" style="stop-color:#5B96F9"/>
					<stop  offset="1" style="stop-color:#786FFF"/>
				</linearGradient>
				<polygon class="st19" points="40.7,80 80,57.3 80,58.7 43.2,80 				"/>
				<linearGradient id="SVGID_25_" gradientUnits="userSpaceOnUse" x1="59.1259" y1="55.8967" x2="59.1259" y2="80">
					<stop  offset="0" style="stop-color:#5B96F9"/>
					<stop  offset="1" style="stop-color:#786FFF"/>
				</linearGradient>
				<polygon class="st20" points="38.3,80 80,55.9 80,57.3 40.7,80 				"/>
				<linearGradient id="SVGID_26_" gradientUnits="userSpaceOnUse" x1="57.898" y1="54.4788" x2="57.898" y2="80">
					<stop  offset="0" style="stop-color:#5B96F9"/>
					<stop  offset="1" style="stop-color:#786FFF"/>
				</linearGradient>
				<polygon class="st21" points="35.8,80 80,54.5 80,55.9 38.3,80 				"/>
				<linearGradient id="SVGID_27_" gradientUnits="userSpaceOnUse" x1="56.6701" y1="53.061" x2="56.6701" y2="80">
					<stop  offset="0" style="stop-color:#5B96F9"/>
					<stop  offset="1" style="stop-color:#786FFF"/>
				</linearGradient>
				<polygon class="st22" points="33.3,80 80,53.1 80,54.5 35.8,80 				"/>
				<linearGradient id="SVGID_28_" gradientUnits="userSpaceOnUse" x1="55.4422" y1="51.6432" x2="55.4422" y2="80">
					<stop  offset="0" style="stop-color:#5B96F9"/>
					<stop  offset="1" style="stop-color:#786FFF"/>
				</linearGradient>
				<polygon class="st23" points="30.9,80 80,51.6 80,53.1 33.3,80 				"/>
				<linearGradient id="SVGID_29_" gradientUnits="userSpaceOnUse" x1="54.2143" y1="50.2253" x2="54.2143" y2="80">
					<stop  offset="0" style="stop-color:#5B96F9"/>
					<stop  offset="1" style="stop-color:#786FFF"/>
				</linearGradient>
				<polygon class="st24" points="28.4,80 80,50.2 80,51.6 30.9,80 				"/>
				<linearGradient id="SVGID_30_" gradientUnits="userSpaceOnUse" x1="52.9864" y1="48.8075" x2="52.9864" y2="80">
					<stop  offset="0" style="stop-color:#5B96F9"/>
					<stop  offset="1" style="stop-color:#786FFF"/>
				</linearGradient>
				<polygon class="st25" points="26,80 80,48.8 80,50.2 28.4,80 				"/>
				<linearGradient id="SVGID_31_" gradientUnits="userSpaceOnUse" x1="51.7586" y1="47.3896" x2="51.7586" y2="80">
					<stop  offset="0" style="stop-color:#5B96F9"/>
					<stop  offset="1" style="stop-color:#786FFF"/>
				</linearGradient>
				<polygon class="st26" points="23.5,80 80,47.4 80,48.8 26,80 				"/>
				<linearGradient id="SVGID_32_" gradientUnits="userSpaceOnUse" x1="50.5307" y1="45.9718" x2="50.5307" y2="80">
					<stop  offset="0" style="stop-color:#5B96F9"/>
					<stop  offset="1" style="stop-color:#786FFF"/>
				</linearGradient>
				<polygon class="st27" points="21.1,80 80,46 80,47.4 23.5,80 				"/>
				<linearGradient id="SVGID_33_" gradientUnits="userSpaceOnUse" x1="49.3028" y1="44.5539" x2="49.3028" y2="80">
					<stop  offset="0" style="stop-color:#5B96F9"/>
					<stop  offset="1" style="stop-color:#786FFF"/>
				</linearGradient>
				<polygon class="st28" points="18.6,80 80,44.6 80,46 21.1,80 				"/>
				<linearGradient id="SVGID_34_" gradientUnits="userSpaceOnUse" x1="48.0749" y1="43.1361" x2="48.0749" y2="80">
					<stop  offset="0" style="stop-color:#5B96F9"/>
					<stop  offset="1" style="stop-color:#786FFF"/>
				</linearGradient>
				<polygon class="st29" points="16.1,80 80,43.1 80,44.6 18.6,80 				"/>
				<linearGradient id="SVGID_35_" gradientUnits="userSpaceOnUse" x1="46.847" y1="41.7183" x2="46.847" y2="80">
					<stop  offset="0" style="stop-color:#5B96F9"/>
					<stop  offset="1" style="stop-color:#786FFF"/>
				</linearGradient>
				<polygon class="st30" points="13.7,80 80,41.7 80,43.1 16.1,80 				"/>
				<linearGradient id="SVGID_36_" gradientUnits="userSpaceOnUse" x1="45.6191" y1="40.3004" x2="45.6191" y2="80">
					<stop  offset="0" style="stop-color:#5B96F9"/>
					<stop  offset="1" style="stop-color:#786FFF"/>
				</linearGradient>
				<polygon class="st31" points="11.2,80 80,40.3 80,41.7 13.7,80 				"/>
				<linearGradient id="SVGID_37_" gradientUnits="userSpaceOnUse" x1="44.3912" y1="38.8826" x2="44.3912" y2="80">
					<stop  offset="0" style="stop-color:#5B96F9"/>
					<stop  offset="1" style="stop-color:#786FFF"/>
				</linearGradient>
				<polygon class="st32" points="8.8,80 80,38.9 80,40.3 11.2,80 				"/>
				<linearGradient id="SVGID_38_" gradientUnits="userSpaceOnUse" x1="43.1633" y1="37.4647" x2="43.1633" y2="80">
					<stop  offset="0" style="stop-color:#5B96F9"/>
					<stop  offset="1" style="stop-color:#786FFF"/>
				</linearGradient>
				<polygon class="st33" points="6.3,80 80,37.5 80,38.9 8.8,80 				"/>
				<linearGradient id="SVGID_39_" gradientUnits="userSpaceOnUse" x1="41.9354" y1="36.0469" x2="41.9354" y2="80">
					<stop  offset="0" style="stop-color:#5B96F9"/>
					<stop  offset="1" style="stop-color:#786FFF"/>
				</linearGradient>
				<polygon class="st34" points="3.9,80 80,36 80,37.5 6.3,80 				"/>
				<linearGradient id="SVGID_40_" gradientUnits="userSpaceOnUse" x1="40.7076" y1="34.629" x2="40.7076" y2="80">
					<stop  offset="0" style="stop-color:#5B96F9"/>
					<stop  offset="1" style="stop-color:#786FFF"/>
				</linearGradient>
				<polygon class="st35" points="1.4,80 80,34.6 80,36 3.9,80 				"/>
				<linearGradient id="SVGID_41_" gradientUnits="userSpaceOnUse" x1="40" y1="33.2112" x2="40" y2="80">
					<stop  offset="0" style="stop-color:#5B96F9"/>
					<stop  offset="1" style="stop-color:#786FFF"/>
				</linearGradient>
				<polygon class="st36" points="0,79.4 80,33.2 80,34.6 1.4,80 0,80 				"/>
				<linearGradient id="SVGID_42_" gradientUnits="userSpaceOnUse" x1="40" y1="31.7934" x2="40" y2="79.3992">
					<stop  offset="0" style="stop-color:#5B96F9"/>
					<stop  offset="1" style="stop-color:#786FFF"/>
				</linearGradient>
				<polygon class="st37" points="0,78 80,31.8 80,33.2 0,79.4 				"/>
				<linearGradient id="SVGID_43_" gradientUnits="userSpaceOnUse" x1="40" y1="30.3755" x2="40" y2="77.9813">
					<stop  offset="0" style="stop-color:#5B96F9"/>
					<stop  offset="1" style="stop-color:#786FFF"/>
				</linearGradient>
				<polygon class="st38" points="0,76.6 80,30.4 80,31.8 0,78 				"/>
				<linearGradient id="SVGID_44_" gradientUnits="userSpaceOnUse" x1="40" y1="28.9577" x2="40" y2="76.5635">
					<stop  offset="0" style="stop-color:#5B96F9"/>
					<stop  offset="1" style="stop-color:#786FFF"/>
				</linearGradient>
				<polygon class="st39" points="0,75.1 80,29 80,30.4 0,76.6 				"/>
				<linearGradient id="SVGID_45_" gradientUnits="userSpaceOnUse" x1="40" y1="27.5398" x2="40" y2="75.1457">
					<stop  offset="0" style="stop-color:#5B96F9"/>
					<stop  offset="1" style="stop-color:#786FFF"/>
				</linearGradient>
				<polygon class="st40" points="0,73.7 80,27.5 80,29 0,75.1 				"/>
				<linearGradient id="SVGID_46_" gradientUnits="userSpaceOnUse" x1="40" y1="26.122" x2="40" y2="73.7278">
					<stop  offset="0" style="stop-color:#5B96F9"/>
					<stop  offset="1" style="stop-color:#786FFF"/>
				</linearGradient>
				<polygon class="st41" points="0,72.3 80,26.1 80,27.5 0,73.7 				"/>
				<linearGradient id="SVGID_47_" gradientUnits="userSpaceOnUse" x1="40" y1="24.7041" x2="40" y2="72.31">
					<stop  offset="0" style="stop-color:#5B96F9"/>
					<stop  offset="1" style="stop-color:#786FFF"/>
				</linearGradient>
				<polygon class="st42" points="0,70.9 80,24.7 80,26.1 0,72.3 				"/>
				<linearGradient id="SVGID_48_" gradientUnits="userSpaceOnUse" x1="40" y1="23.2863" x2="40" y2="70.8921">
					<stop  offset="0" style="stop-color:#5B96F9"/>
					<stop  offset="1" style="stop-color:#786FFF"/>
				</linearGradient>
				<polygon class="st43" points="0,69.5 80,23.3 80,24.7 0,70.9 				"/>
				<linearGradient id="SVGID_49_" gradientUnits="userSpaceOnUse" x1="40" y1="21.8685" x2="40" y2="69.4743">
					<stop  offset="0" style="stop-color:#5B96F9"/>
					<stop  offset="1" style="stop-color:#786FFF"/>
				</linearGradient>
				<polygon class="st44" points="0,68.1 80,21.9 80,23.3 0,69.5 				"/>
				<linearGradient id="SVGID_50_" gradientUnits="userSpaceOnUse" x1="40" y1="20.4506" x2="40" y2="68.0564">
					<stop  offset="0" style="stop-color:#5B96F9"/>
					<stop  offset="1" style="stop-color:#786FFF"/>
				</linearGradient>
				<polygon class="st45" points="0,66.6 80,20.5 80,21.9 0,68.1 				"/>
				<linearGradient id="SVGID_51_" gradientUnits="userSpaceOnUse" x1="40" y1="19.0328" x2="40" y2="66.6386">
					<stop  offset="0" style="stop-color:#5B96F9"/>
					<stop  offset="1" style="stop-color:#786FFF"/>
				</linearGradient>
				<polygon class="st46" points="0,65.2 80,19 80,20.5 0,66.6 				"/>
				<linearGradient id="SVGID_52_" gradientUnits="userSpaceOnUse" x1="40" y1="17.6149" x2="40" y2="65.2208">
					<stop  offset="0" style="stop-color:#5B96F9"/>
					<stop  offset="1" style="stop-color:#786FFF"/>
				</linearGradient>
				<polygon class="st47" points="0,63.8 80,17.6 80,19 0,65.2 				"/>
				<linearGradient id="SVGID_53_" gradientUnits="userSpaceOnUse" x1="40" y1="16.1971" x2="40" y2="63.8029">
					<stop  offset="0" style="stop-color:#5B96F9"/>
					<stop  offset="1" style="stop-color:#786FFF"/>
				</linearGradient>
				<polygon class="st48" points="0,62.4 80,16.2 80,17.6 0,63.8 				"/>
				<linearGradient id="SVGID_54_" gradientUnits="userSpaceOnUse" x1="40" y1="14.7792" x2="40" y2="62.3851">
					<stop  offset="0" style="stop-color:#5B96F9"/>
					<stop  offset="1" style="stop-color:#786FFF"/>
				</linearGradient>
				<polygon class="st49" points="0,61 80,14.8 80,16.2 0,62.4 				"/>
				<linearGradient id="SVGID_55_" gradientUnits="userSpaceOnUse" x1="40" y1="13.3614" x2="40" y2="60.9672">
					<stop  offset="0" style="stop-color:#5B96F9"/>
					<stop  offset="1" style="stop-color:#786FFF"/>
				</linearGradient>
				<polygon class="st50" points="0,59.5 80,13.4 80,14.8 0,61 				"/>
				<linearGradient id="SVGID_56_" gradientUnits="userSpaceOnUse" x1="40" y1="11.9436" x2="40" y2="59.5494">
					<stop  offset="0" style="stop-color:#5B96F9"/>
					<stop  offset="1" style="stop-color:#786FFF"/>
				</linearGradient>
				<polygon class="st51" points="0,58.1 80,11.9 80,13.4 0,59.5 				"/>
				<linearGradient id="SVGID_57_" gradientUnits="userSpaceOnUse" x1="40" y1="10.5257" x2="40" y2="58.1315">
					<stop  offset="0" style="stop-color:#5B96F9"/>
					<stop  offset="1" style="stop-color:#786FFF"/>
				</linearGradient>
				<polygon class="st52" points="0,56.7 80,10.5 80,11.9 0,58.1 				"/>
				<linearGradient id="SVGID_58_" gradientUnits="userSpaceOnUse" x1="40" y1="9.1079" x2="40" y2="56.7137">
					<stop  offset="0" style="stop-color:#5B96F9"/>
					<stop  offset="1" style="stop-color:#786FFF"/>
				</linearGradient>
				<polygon class="st53" points="0,55.3 80,9.1 80,10.5 0,56.7 				"/>
				<linearGradient id="SVGID_59_" gradientUnits="userSpaceOnUse" x1="40" y1="7.69" x2="40" y2="55.2959">
					<stop  offset="0" style="stop-color:#5B96F9"/>
					<stop  offset="1" style="stop-color:#786FFF"/>
				</linearGradient>
				<polygon class="st54" points="0,53.9 80,7.7 80,9.1 0,55.3 				"/>
				<linearGradient id="SVGID_60_" gradientUnits="userSpaceOnUse" x1="40" y1="6.2722" x2="40" y2="53.878">
					<stop  offset="0" style="stop-color:#5B96F9"/>
					<stop  offset="1" style="stop-color:#786FFF"/>
				</linearGradient>
				<polygon class="st55" points="0,52.5 80,6.3 80,7.7 0,53.9 				"/>
				<linearGradient id="SVGID_61_" gradientUnits="userSpaceOnUse" x1="40" y1="4.8543" x2="40" y2="52.4602">
					<stop  offset="0" style="stop-color:#5B96F9"/>
					<stop  offset="1" style="stop-color:#786FFF"/>
				</linearGradient>
				<polygon class="st56" points="0,51 80,4.9 80,6.3 0,52.5 				"/>
				<linearGradient id="SVGID_62_" gradientUnits="userSpaceOnUse" x1="40" y1="3.4365" x2="40" y2="51.0423">
					<stop  offset="0" style="stop-color:#5B96F9"/>
					<stop  offset="1" style="stop-color:#786FFF"/>
				</linearGradient>
				<polygon class="st57" points="0,49.6 80,3.4 80,4.9 0,51 				"/>
				<linearGradient id="SVGID_63_" gradientUnits="userSpaceOnUse" x1="40" y1="2.0187" x2="40" y2="49.6245">
					<stop  offset="0" style="stop-color:#5B96F9"/>
					<stop  offset="1" style="stop-color:#786FFF"/>
				</linearGradient>
				<polygon class="st58" points="0,48.2 80,2 80,3.4 0,49.6 				"/>
				<linearGradient id="SVGID_64_" gradientUnits="userSpaceOnUse" x1="40" y1="0.6008" x2="40" y2="48.2066">
					<stop  offset="0" style="stop-color:#5B96F9"/>
					<stop  offset="1" style="stop-color:#786FFF"/>
				</linearGradient>
				<polygon class="st59" points="0,46.8 80,0.6 80,2 0,48.2 				"/>
				<linearGradient id="SVGID_65_" gradientUnits="userSpaceOnUse" x1="40" y1="0" x2="40" y2="46.7888">
					<stop  offset="0" style="stop-color:#5B96F9"/>
					<stop  offset="1" style="stop-color:#786FFF"/>
				</linearGradient>
				<polygon class="st60" points="0,45.4 78.6,0 80,0 80,0.6 0,46.8 				"/>
				<linearGradient id="SVGID_66_" gradientUnits="userSpaceOnUse" x1="39.2924" y1="0" x2="39.2924" y2="45.371">
					<stop  offset="0" style="stop-color:#5B96F9"/>
					<stop  offset="1" style="stop-color:#786FFF"/>
				</linearGradient>
				<polygon class="st61" points="0,44 76.1,0 78.6,0 0,45.4 				"/>
				<linearGradient id="SVGID_67_" gradientUnits="userSpaceOnUse" x1="38.0646" y1="0" x2="38.0646" y2="43.9531">
					<stop  offset="0" style="stop-color:#5B96F9"/>
					<stop  offset="1" style="stop-color:#786FFF"/>
				</linearGradient>
				<polygon class="st62" points="0,42.5 73.7,0 76.1,0 0,44 				"/>
				<linearGradient id="SVGID_68_" gradientUnits="userSpaceOnUse" x1="36.8367" y1="0" x2="36.8367" y2="42.5353">
					<stop  offset="0" style="stop-color:#5B96F9"/>
					<stop  offset="1" style="stop-color:#786FFF"/>
				</linearGradient>
				<polygon class="st63" points="0,41.1 71.2,0 73.7,0 0,42.5 				"/>
				<linearGradient id="SVGID_69_" gradientUnits="userSpaceOnUse" x1="35.6088" y1="0" x2="35.6088" y2="41.1174">
					<stop  offset="0" style="stop-color:#5B96F9"/>
					<stop  offset="1" style="stop-color:#786FFF"/>
				</linearGradient>
				<polygon class="st64" points="0,39.7 68.8,0 71.2,0 0,41.1 				"/>
				<linearGradient id="SVGID_70_" gradientUnits="userSpaceOnUse" x1="34.3809" y1="0" x2="34.3809" y2="39.6996">
					<stop  offset="0" style="stop-color:#5B96F9"/>
					<stop  offset="1" style="stop-color:#786FFF"/>
				</linearGradient>
				<polygon class="st65" points="0,38.3 66.3,0 68.8,0 0,39.7 				"/>
				<linearGradient id="SVGID_71_" gradientUnits="userSpaceOnUse" x1="33.153" y1="0" x2="33.153" y2="38.2817">
					<stop  offset="0" style="stop-color:#5B96F9"/>
					<stop  offset="1" style="stop-color:#786FFF"/>
				</linearGradient>
				<polygon class="st66" points="0,36.9 63.9,0 66.3,0 0,38.3 				"/>
				<linearGradient id="SVGID_72_" gradientUnits="userSpaceOnUse" x1="31.9251" y1="0" x2="31.9251" y2="36.8639">
					<stop  offset="0" style="stop-color:#5B96F9"/>
					<stop  offset="1" style="stop-color:#786FFF"/>
				</linearGradient>
				<polygon class="st67" points="0,35.4 61.4,0 63.9,0 0,36.9 				"/>
				<linearGradient id="SVGID_73_" gradientUnits="userSpaceOnUse" x1="30.6972" y1="0" x2="30.6972" y2="35.4461">
					<stop  offset="0" style="stop-color:#5B96F9"/>
					<stop  offset="1" style="stop-color:#786FFF"/>
				</linearGradient>
				<polygon class="st68" points="0,34 58.9,0 61.4,0 0,35.4 				"/>
				<linearGradient id="SVGID_74_" gradientUnits="userSpaceOnUse" x1="29.4693" y1="0" x2="29.4693" y2="34.0282">
					<stop  offset="0" style="stop-color:#5B96F9"/>
					<stop  offset="1" style="stop-color:#786FFF"/>
				</linearGradient>
				<polygon class="st69" points="0,32.6 56.5,0 58.9,0 0,34 				"/>
				<linearGradient id="SVGID_75_" gradientUnits="userSpaceOnUse" x1="28.2414" y1="0" x2="28.2414" y2="32.6104">
					<stop  offset="0" style="stop-color:#5B96F9"/>
					<stop  offset="1" style="stop-color:#786FFF"/>
				</linearGradient>
				<polygon class="st70" points="0,31.2 54,0 56.5,0 0,32.6 				"/>
				<linearGradient id="SVGID_76_" gradientUnits="userSpaceOnUse" x1="27.0136" y1="0" x2="27.0136" y2="31.1925">
					<stop  offset="0" style="stop-color:#5B96F9"/>
					<stop  offset="1" style="stop-color:#786FFF"/>
				</linearGradient>
				<polygon class="st71" points="0,29.8 51.6,0 54,0 0,31.2 				"/>
				<linearGradient id="SVGID_77_" gradientUnits="userSpaceOnUse" x1="25.7857" y1="0" x2="25.7857" y2="29.7747">
					<stop  offset="0" style="stop-color:#5B96F9"/>
					<stop  offset="1" style="stop-color:#786FFF"/>
				</linearGradient>
				<polygon class="st72" points="0,28.4 49.1,0 51.6,0 0,29.8 				"/>
				<linearGradient id="SVGID_78_" gradientUnits="userSpaceOnUse" x1="24.5578" y1="0" x2="24.5578" y2="28.3568">
					<stop  offset="0" style="stop-color:#5B96F9"/>
					<stop  offset="1" style="stop-color:#786FFF"/>
				</linearGradient>
				<polygon class="st73" points="0,26.9 46.7,0 49.1,0 0,28.4 				"/>
				<linearGradient id="SVGID_79_" gradientUnits="userSpaceOnUse" x1="23.3299" y1="0" x2="23.3299" y2="26.939">
					<stop  offset="0" style="stop-color:#5B96F9"/>
					<stop  offset="1" style="stop-color:#786FFF"/>
				</linearGradient>
				<polygon class="st74" points="0,25.5 44.2,0 46.7,0 0,26.9 				"/>
				<linearGradient id="SVGID_80_" gradientUnits="userSpaceOnUse" x1="22.102" y1="0" x2="22.102" y2="25.5212">
					<stop  offset="0" style="stop-color:#5B96F9"/>
					<stop  offset="1" style="stop-color:#786FFF"/>
				</linearGradient>
				<polygon class="st75" points="0,24.1 41.7,0 44.2,0 0,25.5 				"/>
				<linearGradient id="SVGID_81_" gradientUnits="userSpaceOnUse" x1="20.8741" y1="0" x2="20.8741" y2="24.1033">
					<stop  offset="0" style="stop-color:#5B96F9"/>
					<stop  offset="1" style="stop-color:#786FFF"/>
				</linearGradient>
				<polygon class="st76" points="0,22.7 39.3,0 41.7,0 0,24.1 				"/>
				<linearGradient id="SVGID_82_" gradientUnits="userSpaceOnUse" x1="19.6462" y1="0" x2="19.6462" y2="22.6855">
					<stop  offset="0" style="stop-color:#5B96F9"/>
					<stop  offset="1" style="stop-color:#786FFF"/>
				</linearGradient>
				<polygon class="st77" points="0,21.3 36.8,0 39.3,0 0,22.7 				"/>
				<linearGradient id="SVGID_83_" gradientUnits="userSpaceOnUse" x1="18.4183" y1="0" x2="18.4183" y2="21.2676">
					<stop  offset="0" style="stop-color:#5B96F9"/>
					<stop  offset="1" style="stop-color:#786FFF"/>
				</linearGradient>
				<polygon class="st78" points="0,19.8 34.4,0 36.8,0 0,21.3 				"/>
				<linearGradient id="SVGID_84_" gradientUnits="userSpaceOnUse" x1="17.1904" y1="0" x2="17.1904" y2="19.8498">
					<stop  offset="0" style="stop-color:#5B96F9"/>
					<stop  offset="1" style="stop-color:#786FFF"/>
				</linearGradient>
				<polygon class="st79" points="0,18.4 31.9,0 34.4,0 0,19.8 				"/>
				<linearGradient id="SVGID_85_" gradientUnits="userSpaceOnUse" x1="15.9626" y1="0" x2="15.9626" y2="18.432">
					<stop  offset="0" style="stop-color:#5B96F9"/>
					<stop  offset="1" style="stop-color:#786FFF"/>
				</linearGradient>
				<polygon class="st80" points="0,17 29.5,0 31.9,0 0,18.4 				"/>
				<linearGradient id="SVGID_86_" gradientUnits="userSpaceOnUse" x1="14.7347" y1="0" x2="14.7347" y2="17.0141">
					<stop  offset="0" style="stop-color:#5B96F9"/>
					<stop  offset="1" style="stop-color:#786FFF"/>
				</linearGradient>
				<polygon class="st81" points="0,15.6 27,0 29.5,0 0,17 				"/>
				<linearGradient id="SVGID_87_" gradientUnits="userSpaceOnUse" x1="13.5068" y1="0" x2="13.5068" y2="15.5963">
					<stop  offset="0" style="stop-color:#5B96F9"/>
					<stop  offset="1" style="stop-color:#786FFF"/>
				</linearGradient>
				<polygon class="st82" points="0,14.2 24.6,0 27,0 0,15.6 				"/>
				<linearGradient id="SVGID_88_" gradientUnits="userSpaceOnUse" x1="12.2789" y1="0" x2="12.2789" y2="14.1784">
					<stop  offset="0" style="stop-color:#5B96F9"/>
					<stop  offset="1" style="stop-color:#786FFF"/>
				</linearGradient>
				<polygon class="st83" points="0,12.8 22.1,0 24.6,0 0,14.2 				"/>
				<linearGradient id="SVGID_89_" gradientUnits="userSpaceOnUse" x1="11.051" y1="0" x2="11.051" y2="12.7606">
					<stop  offset="0" style="stop-color:#5B96F9"/>
					<stop  offset="1" style="stop-color:#786FFF"/>
				</linearGradient>
				<polygon class="st84" points="0,11.3 19.6,0 22.1,0 0,12.8 				"/>
				<linearGradient id="SVGID_90_" gradientUnits="userSpaceOnUse" x1="9.8231" y1="0" x2="9.8231" y2="11.3427">
					<stop  offset="0" style="stop-color:#5B96F9"/>
					<stop  offset="1" style="stop-color:#786FFF"/>
				</linearGradient>
				<polygon class="st85" points="0,9.9 17.2,0 19.6,0 0,11.3 				"/>
				<linearGradient id="SVGID_91_" gradientUnits="userSpaceOnUse" x1="8.5952" y1="0" x2="8.5952" y2="9.9249">
					<stop  offset="0" style="stop-color:#5B96F9"/>
					<stop  offset="1" style="stop-color:#786FFF"/>
				</linearGradient>
				<polygon class="st86" points="0,8.5 14.7,0 17.2,0 0,9.9 				"/>
				<linearGradient id="SVGID_92_" gradientUnits="userSpaceOnUse" x1="7.3673" y1="0" x2="7.3673" y2="8.5071">
					<stop  offset="0" style="stop-color:#5B96F9"/>
					<stop  offset="1" style="stop-color:#786FFF"/>
				</linearGradient>
				<polygon class="st87" points="0,7.1 12.3,0 14.7,0 0,8.5 				"/>
				<linearGradient id="SVGID_93_" gradientUnits="userSpaceOnUse" x1="6.1394" y1="0" x2="6.1394" y2="7.0892">
					<stop  offset="0" style="stop-color:#5B96F9"/>
					<stop  offset="1" style="stop-color:#786FFF"/>
				</linearGradient>
				<polygon class="st88" points="0,5.7 9.8,0 12.3,0 0,7.1 				"/>
				<linearGradient id="SVGID_94_" gradientUnits="userSpaceOnUse" x1="4.9116" y1="0" x2="4.9116" y2="5.6714">
					<stop  offset="0" style="stop-color:#5B96F9"/>
					<stop  offset="1" style="stop-color:#786FFF"/>
				</linearGradient>
				<polygon class="st89" points="0,4.3 7.4,0 9.8,0 0,5.7 				"/>
				<linearGradient id="SVGID_95_" gradientUnits="userSpaceOnUse" x1="3.6837" y1="0" x2="3.6837" y2="4.2535">
					<stop  offset="0" style="stop-color:#5B96F9"/>
					<stop  offset="1" style="stop-color:#786FFF"/>
				</linearGradient>
				<polygon class="st90" points="0,2.8 4.9,0 7.4,0 0,4.3 				"/>
				<linearGradient id="SVGID_96_" gradientUnits="userSpaceOnUse" x1="2.4558" y1="0" x2="2.4558" y2="2.8357">
					<stop  offset="0" style="stop-color:#5B96F9"/>
					<stop  offset="1" style="stop-color:#786FFF"/>
				</linearGradient>
				<polygon class="st91" points="0,1.4 2.5,0 4.9,0 0,2.8 				"/>
				<linearGradient id="SVGID_97_" gradientUnits="userSpaceOnUse" x1="1.2279" y1="0" x2="1.2279" y2="1.4178">
					<stop  offset="0" style="stop-color:#5B96F9"/>
					<stop  offset="1" style="stop-color:#786FFF"/>
				</linearGradient>
				<polygon class="st92" points="0,0 0,0 2.5,0 0,1.4 				"/>
			</g>
		</g>
	</g>
	<g>
		<defs>
			<polygon id="SVGID_98_" points="64.1,0 64.1,16 32.1,16 32.1,32 64.1,32 64.1,48 32.1,48 32.1,64 64.1,64 64.1,80 80.1,80 
				80.1,0 			"/>
		</defs>
		<linearGradient id="SVGID_99_" gradientUnits="userSpaceOnUse" x1="56.1" y1="0" x2="56.1" y2="80">
			<stop  offset="0" style="stop-color:#5B96F9"/>
			<stop  offset="1" style="stop-color:#786FFF"/>
		</linearGradient>
		<use xlink:href="#SVGID_98_"  style="overflow:visible;fill:url(#SVGID_99_);"/>
		<clipPath id="SVGID_100_">
			<use xlink:href="#SVGID_98_"  style="overflow:visible;"/>
		</clipPath>
		<g class="st93">
			<linearGradient id="SVGID_101_" gradientUnits="userSpaceOnUse" x1="8.1" y1="0" x2="8.1" y2="80">
				<stop  offset="0" style="stop-color:#5B96F9"/>
				<stop  offset="1" style="stop-color:#786FFF"/>
			</linearGradient>
			<rect x="0.1" class="st94" width="16" height="80"/>
		</g>
	</g>
</g>
</svg>
