<?xml version="1.0" encoding="utf-8"?>
<!-- Generator: Adobe Illustrator 22.0.0, SVG Export Plug-In . SVG Version: 6.00 Build 0)  -->
<svg version="1.1" id="Layer_1" xmlns="http://www.w3.org/2000/svg" xmlns:xlink="http://www.w3.org/1999/xlink" x="0px" y="0px"
	 viewBox="0 0 370 80" style="enable-background:new 0 0 370 80;" xml:space="preserve">
<style type="text/css">
	.st0{fill:none;}
	.st1{enable-background:new    ;}
	.st2{fill:#FFFFFF;}
</style>
<g>
	<g>
		<rect x="103.7" y="8" class="st0" width="268.1" height="62.1"/>
		<g class="st1">
			<path class="st2" d="M150.2,48.3h-31.7c1.2,5.2,5.6,8.4,12,8.4c4.4,0,7.6-1.3,10.5-4.1l6.5,7c-3.9,4.4-9.8,6.8-17.3,6.8
				c-14.5,0-23.9-9.1-23.9-21.6c0-12.6,9.6-21.6,22.4-21.6c12.3,0,21.8,8.3,21.8,21.8C150.5,46,150.3,47.3,150.2,48.3z M118.3,41.2
				H139c-0.9-5.3-4.8-8.7-10.3-8.7C123.2,32.5,119.2,35.8,118.3,41.2z"/>
			<path class="st2" d="M158.6,8h12.2v57.9h-12.2V8z"/>
			<path class="st2" d="M219.2,41.9v23.9h-11.4v-5.2c-2.3,3.8-6.6,5.9-12.8,5.9c-9.8,0-15.7-5.5-15.7-12.7c0-7.4,5.2-12.6,18-12.6
				h9.7c0-5.2-3.1-8.3-9.7-8.3c-4.4,0-9,1.5-12.1,3.9l-4.4-8.5c4.6-3.3,11.4-5.1,18.1-5.1C211.8,23.3,219.2,29.2,219.2,41.9z
				 M207,52.6v-4.3h-8.3c-5.7,0-7.5,2.1-7.5,4.9c0,3,2.6,5.1,6.9,5.1C202.1,58.3,205.6,56.4,207,52.6z"/>
			<path class="st2" d="M226.1,62l4.1-8.7c3.7,2.4,9.4,4.1,14.6,4.1c5.6,0,7.7-1.5,7.7-3.8c0-6.9-25.4,0.2-25.4-16.6
				c0-8,7.2-13.6,19.4-13.6c5.8,0,12.2,1.3,16.1,3.7l-4.1,8.7c-4.1-2.3-8.3-3.1-12.1-3.1c-5.5,0-7.8,1.7-7.8,3.9
				c0,7.2,25.4,0.2,25.4,16.8c0,7.8-7.3,13.3-19.8,13.3C237.2,66.5,230,64.5,226.1,62z"/>
			<path class="st2" d="M298.7,63.8c-2.5,1.8-6.2,2.7-9.9,2.7c-9.9,0-15.7-5.1-15.7-15.1V34.2h-6.5v-9.4h6.5V14.6h12.2v10.2h10.5
				v9.4h-10.5v17.1c0,3.6,2,5.5,5.2,5.5c1.8,0,3.6-0.5,4.9-1.6L298.7,63.8z"/>
			<path class="st2" d="M304,11.3c0-3.8,3-6.8,7.6-6.8c4.5,0,7.6,2.8,7.6,6.6c0,4.1-3,7-7.6,7C307.1,18.1,304,15.1,304,11.3z
				 M305.5,23.9h12.2v42h-12.2V23.9z"/>
			<path class="st2" d="M325.9,44.9c0-12.6,9.8-21.6,23.4-21.6c8.8,0,15.8,3.8,18.8,10.7l-9.4,5.1c-2.3-4-5.6-5.8-9.4-5.8
				c-6.2,0-11,4.3-11,11.6c0,7.3,4.8,11.6,11,11.6c3.8,0,7.2-1.7,9.4-5.8l9.4,5.1c-3,6.7-10,10.6-18.8,10.6
				C335.6,66.5,325.9,57.5,325.9,44.9z"/>
		</g>
	</g>
	<rect class="st2" width="16" height="80"/>
	<rect x="32" y="16" class="st2" width="48" height="16"/>
	<rect x="32" y="48" class="st2" width="48" height="16"/>
	<rect x="64" class="st2" width="16" height="80"/>
</g>
</svg>
